M48
; DRILL file {KiCad (5.99.0-11678-ga208dac8d8)} date Friday, September 17, 2021 at 02:15:57 AM
; FORMAT={-:-/ absolute / metric / decimal}
; #@! TF.CreationDate,2021-09-17T02:15:57+07:00
; #@! TF.GenerationSoftware,Kicad,Pcbnew,(5.99.0-11678-ga208dac8d8)
; #@! TF.FileFunction,MixedPlating,1,2
FMAT,2
METRIC
; #@! TA.AperFunction,Plated,PTH,ViaDrill
T1C0.400
; #@! TA.AperFunction,Plated,PTH,ComponentDrill
T2C1.000
; #@! TA.AperFunction,Plated,PTH,ComponentDrill
T3C2.200
; #@! TA.AperFunction,NonPlated,NPTH,ComponentDrill
T4C0.787
%
G90
G05
T1
X37.753Y-34.09
X39.437Y-31.362
X39.591Y-29.618
X41.753Y-28.675
X42.849Y-31.768
X48.153Y-29.465
X48.753Y-31.29
X48.753Y-32.739
X48.953Y-28.49
X52.353Y-27.69
X55.953Y-29.89
X55.953Y-30.89
X55.953Y-32.09
T2
X24.253Y-25.41
X24.253Y-27.95
X24.253Y-30.49
X24.253Y-33.03
X24.253Y-35.57
T3
X24.753Y-21.49
X24.753Y-39.49
X54.753Y-21.49
X54.753Y-39.49
T4
X23.483Y-23.836
X23.483Y-37.236
X24.753Y-23.836
X24.753Y-37.236
X26.023Y-23.836
X26.023Y-37.236
X53.483Y-23.836
X53.483Y-37.29
X54.753Y-23.836
X54.753Y-37.29
X56.023Y-23.836
X56.023Y-37.29
T0
M30
