%TF.GenerationSoftware,KiCad,Pcbnew,(5.99.0-11678-ga208dac8d8)*%
%TF.CreationDate,2021-08-19T14:25:42+07:00*%
%TF.ProjectId,sharp_memory_display,73686172-705f-46d6-956d-6f72795f6469,rev?*%
%TF.SameCoordinates,Original*%
%TF.FileFunction,Copper,L1,Top*%
%TF.FilePolarity,Positive*%
%FSLAX46Y46*%
G04 Gerber Fmt 4.6, Leading zero omitted, Abs format (unit mm)*
G04 Created by KiCad (PCBNEW (5.99.0-11678-ga208dac8d8)) date 2021-08-19 14:25:42*
%MOMM*%
%LPD*%
G01*
G04 APERTURE LIST*
%TA.AperFunction,ComponentPad*%
%ADD10C,3.800000*%
%TD*%
%TA.AperFunction,ComponentPad*%
%ADD11O,1.700000X1.700000*%
%TD*%
%TA.AperFunction,ComponentPad*%
%ADD12R,1.700000X1.700000*%
%TD*%
%TA.AperFunction,ViaPad*%
%ADD13C,0.800000*%
%TD*%
%TA.AperFunction,Conductor*%
%ADD14C,0.250000*%
%TD*%
%TA.AperFunction,Conductor*%
%ADD15C,0.254000*%
%TD*%
G04 APERTURE END LIST*
D10*
%TO.P,H4,1*%
%TO.N,N/C*%
X54752642Y-21490389D03*
%TD*%
%TO.P,H3,1*%
%TO.N,N/C*%
X24752642Y-39490389D03*
%TD*%
%TO.P,H2,1*%
%TO.N,N/C*%
X24752642Y-21490389D03*
%TD*%
%TO.P,H1,1*%
%TO.N,N/C*%
X54752642Y-39490389D03*
%TD*%
D11*
%TO.P,J1,5*%
%TO.N,SCLK*%
X24252600Y-25410400D03*
%TO.P,J1,4*%
%TO.N,SI*%
X24252600Y-27950400D03*
%TO.P,J1,3*%
%TO.N,SCS*%
X24252600Y-30490400D03*
%TO.P,J1,2*%
%TO.N,VDD*%
X24252600Y-33030400D03*
D12*
%TO.P,J1,1*%
%TO.N,VSS*%
X24252600Y-35570400D03*
%TD*%
D13*
%TO.N,VDD*%
X39437200Y-31362500D03*
X45952642Y-31315389D03*
%TO.N,SI*%
X45802642Y-28765389D03*
%TO.N,EXTMODE*%
X42849500Y-31768500D03*
X39591300Y-29618300D03*
%TD*%
D14*
%TO.N,VDD*%
X39484311Y-31315389D02*
X39437200Y-31362500D01*
X41323387Y-31315389D02*
X39484311Y-31315389D01*
X44774530Y-32493501D02*
X42501499Y-32493501D01*
X42501499Y-32493501D02*
X41323387Y-31315389D01*
X45952642Y-31315389D02*
X44774530Y-32493501D01*
X25920500Y-31362500D02*
X24252600Y-33030400D01*
X39437200Y-31362500D02*
X25920500Y-31362500D01*
%TO.N,SI*%
X44987653Y-27950400D02*
X24252600Y-27950400D01*
X45802642Y-28765389D02*
X44987653Y-27950400D01*
%TO.N,EXTMODE*%
X39591300Y-29618300D02*
X40699300Y-29618300D01*
X40699300Y-29618300D02*
X42849500Y-31768500D01*
%TD*%
%TO.N,VSS*%
D15*
X26139932Y-23744182D02*
X26201217Y-23858839D01*
X26283694Y-23959337D01*
X26384192Y-24041814D01*
X26498849Y-24103099D01*
X26623259Y-24140839D01*
X26720223Y-24150389D01*
X26752642Y-24153582D01*
X26785061Y-24150389D01*
X52720223Y-24150389D01*
X52752642Y-24153582D01*
X52785061Y-24150389D01*
X52882025Y-24140839D01*
X53006435Y-24103099D01*
X53121092Y-24041814D01*
X53221590Y-23959337D01*
X53304067Y-23858839D01*
X53365352Y-23744182D01*
X53398619Y-23634517D01*
X53551827Y-23736888D01*
X54013168Y-23927982D01*
X54502924Y-24025400D01*
X55002276Y-24025400D01*
X55492032Y-23927982D01*
X55953373Y-23736888D01*
X56092643Y-23643831D01*
X56092642Y-37336969D01*
X55953373Y-37243912D01*
X55492032Y-37052818D01*
X55002276Y-36955400D01*
X54502924Y-36955400D01*
X54013168Y-37052818D01*
X53551827Y-37243912D01*
X53398624Y-37346279D01*
X53365351Y-37236596D01*
X53304066Y-37121939D01*
X53221589Y-37021441D01*
X53121091Y-36938964D01*
X53006434Y-36877679D01*
X52882024Y-36839939D01*
X52785060Y-36830389D01*
X52785053Y-36830389D01*
X52752641Y-36827197D01*
X52720232Y-36830389D01*
X26785061Y-36830389D01*
X26752642Y-36827196D01*
X26720223Y-36830389D01*
X26623259Y-36839939D01*
X26498849Y-36877679D01*
X26384192Y-36938964D01*
X26283694Y-37021441D01*
X26201217Y-37121939D01*
X26139932Y-37236596D01*
X26106645Y-37346326D01*
X25953373Y-37243912D01*
X25492032Y-37052818D01*
X25318859Y-37018372D01*
X25346780Y-37009902D01*
X25457094Y-36950937D01*
X25553785Y-36871585D01*
X25633137Y-36774894D01*
X25692102Y-36664580D01*
X25728412Y-36544882D01*
X25740672Y-36420400D01*
X25737600Y-35856150D01*
X25578850Y-35697400D01*
X24379600Y-35697400D01*
X24379600Y-35717400D01*
X24125600Y-35717400D01*
X24125600Y-35697400D01*
X24105600Y-35697400D01*
X24105600Y-35443400D01*
X24125600Y-35443400D01*
X24125600Y-35423400D01*
X24379600Y-35423400D01*
X24379600Y-35443400D01*
X25578850Y-35443400D01*
X25737600Y-35284650D01*
X25740672Y-34720400D01*
X25728412Y-34595918D01*
X25692102Y-34476220D01*
X25633137Y-34365906D01*
X25553785Y-34269215D01*
X25457094Y-34189863D01*
X25346780Y-34130898D01*
X25274220Y-34108887D01*
X25406075Y-33977032D01*
X25568590Y-33733811D01*
X25680532Y-33463558D01*
X25737600Y-33176660D01*
X25737600Y-32884140D01*
X25693810Y-32663992D01*
X26235302Y-32122500D01*
X38733489Y-32122500D01*
X38777426Y-32166437D01*
X38946944Y-32279705D01*
X39135302Y-32357726D01*
X39335261Y-32397500D01*
X39539139Y-32397500D01*
X39739098Y-32357726D01*
X39927456Y-32279705D01*
X40096974Y-32166437D01*
X40188022Y-32075389D01*
X41008586Y-32075389D01*
X41937700Y-33004504D01*
X41961498Y-33033502D01*
X41990496Y-33057300D01*
X42077222Y-33128475D01*
X42209252Y-33199047D01*
X42352513Y-33242504D01*
X42464166Y-33253501D01*
X42464176Y-33253501D01*
X42501499Y-33257177D01*
X42538822Y-33253501D01*
X44737208Y-33253501D01*
X44774530Y-33257177D01*
X44811852Y-33253501D01*
X44811863Y-33253501D01*
X44923516Y-33242504D01*
X45066777Y-33199047D01*
X45198806Y-33128475D01*
X45314531Y-33033502D01*
X45338334Y-33004498D01*
X45992444Y-32350389D01*
X46054581Y-32350389D01*
X46254540Y-32310615D01*
X46442898Y-32232594D01*
X46612416Y-32119326D01*
X46756579Y-31975163D01*
X46869847Y-31805645D01*
X46947868Y-31617287D01*
X46987642Y-31417328D01*
X46987642Y-31213450D01*
X46947868Y-31013491D01*
X46869847Y-30825133D01*
X46756579Y-30655615D01*
X46612416Y-30511452D01*
X46442898Y-30398184D01*
X46254540Y-30320163D01*
X46054581Y-30280389D01*
X45850703Y-30280389D01*
X45650744Y-30320163D01*
X45462386Y-30398184D01*
X45292868Y-30511452D01*
X45148705Y-30655615D01*
X45035437Y-30825133D01*
X44957416Y-31013491D01*
X44917642Y-31213450D01*
X44917642Y-31275587D01*
X44459729Y-31733501D01*
X43884500Y-31733501D01*
X43884500Y-31666561D01*
X43844726Y-31466602D01*
X43766705Y-31278244D01*
X43653437Y-31108726D01*
X43509274Y-30964563D01*
X43339756Y-30851295D01*
X43151398Y-30773274D01*
X42951439Y-30733500D01*
X42889302Y-30733500D01*
X41263104Y-29107303D01*
X41239301Y-29078299D01*
X41123576Y-28983326D01*
X40991547Y-28912754D01*
X40848286Y-28869297D01*
X40736633Y-28858300D01*
X40736622Y-28858300D01*
X40699300Y-28854624D01*
X40661978Y-28858300D01*
X40295011Y-28858300D01*
X40251074Y-28814363D01*
X40095482Y-28710400D01*
X44672851Y-28710400D01*
X44767642Y-28805191D01*
X44767642Y-28867328D01*
X44807416Y-29067287D01*
X44885437Y-29255645D01*
X44998705Y-29425163D01*
X45142868Y-29569326D01*
X45312386Y-29682594D01*
X45500744Y-29760615D01*
X45700703Y-29800389D01*
X45904581Y-29800389D01*
X46104540Y-29760615D01*
X46292898Y-29682594D01*
X46462416Y-29569326D01*
X46606579Y-29425163D01*
X46719847Y-29255645D01*
X46797868Y-29067287D01*
X46837642Y-28867328D01*
X46837642Y-28663450D01*
X46797868Y-28463491D01*
X46719847Y-28275133D01*
X46606579Y-28105615D01*
X46462416Y-27961452D01*
X46292898Y-27848184D01*
X46104540Y-27770163D01*
X45904581Y-27730389D01*
X45842444Y-27730389D01*
X45551456Y-27439402D01*
X45527654Y-27410399D01*
X45411929Y-27315426D01*
X45279900Y-27244854D01*
X45136639Y-27201397D01*
X45024986Y-27190400D01*
X45024975Y-27190400D01*
X44987653Y-27186724D01*
X44950331Y-27190400D01*
X25530778Y-27190400D01*
X25406075Y-27003768D01*
X25199232Y-26796925D01*
X25024840Y-26680400D01*
X25199232Y-26563875D01*
X25406075Y-26357032D01*
X25568590Y-26113811D01*
X25680532Y-25843558D01*
X25737600Y-25556660D01*
X25737600Y-25264140D01*
X25680532Y-24977242D01*
X25568590Y-24706989D01*
X25406075Y-24463768D01*
X25199232Y-24256925D01*
X24956011Y-24094410D01*
X24789405Y-24025400D01*
X25002276Y-24025400D01*
X25492032Y-23927982D01*
X25953373Y-23736888D01*
X26106651Y-23634471D01*
X26139932Y-23744182D02*
X26106651Y-23634471D01*
%TA.AperFunction,Conductor*%
G36*
X26139932Y-23744182D02*
G01*
X26201217Y-23858839D01*
X26283694Y-23959337D01*
X26384192Y-24041814D01*
X26498849Y-24103099D01*
X26623259Y-24140839D01*
X26720223Y-24150389D01*
X26752642Y-24153582D01*
X26785061Y-24150389D01*
X52720223Y-24150389D01*
X52752642Y-24153582D01*
X52785061Y-24150389D01*
X52882025Y-24140839D01*
X53006435Y-24103099D01*
X53121092Y-24041814D01*
X53221590Y-23959337D01*
X53304067Y-23858839D01*
X53365352Y-23744182D01*
X53398619Y-23634517D01*
X53551827Y-23736888D01*
X54013168Y-23927982D01*
X54502924Y-24025400D01*
X55002276Y-24025400D01*
X55492032Y-23927982D01*
X55953373Y-23736888D01*
X56092643Y-23643831D01*
X56092642Y-37336969D01*
X55953373Y-37243912D01*
X55492032Y-37052818D01*
X55002276Y-36955400D01*
X54502924Y-36955400D01*
X54013168Y-37052818D01*
X53551827Y-37243912D01*
X53398624Y-37346279D01*
X53365351Y-37236596D01*
X53304066Y-37121939D01*
X53221589Y-37021441D01*
X53121091Y-36938964D01*
X53006434Y-36877679D01*
X52882024Y-36839939D01*
X52785060Y-36830389D01*
X52785053Y-36830389D01*
X52752641Y-36827197D01*
X52720232Y-36830389D01*
X26785061Y-36830389D01*
X26752642Y-36827196D01*
X26720223Y-36830389D01*
X26623259Y-36839939D01*
X26498849Y-36877679D01*
X26384192Y-36938964D01*
X26283694Y-37021441D01*
X26201217Y-37121939D01*
X26139932Y-37236596D01*
X26106645Y-37346326D01*
X25953373Y-37243912D01*
X25492032Y-37052818D01*
X25318859Y-37018372D01*
X25346780Y-37009902D01*
X25457094Y-36950937D01*
X25553785Y-36871585D01*
X25633137Y-36774894D01*
X25692102Y-36664580D01*
X25728412Y-36544882D01*
X25740672Y-36420400D01*
X25737600Y-35856150D01*
X25578850Y-35697400D01*
X24379600Y-35697400D01*
X24379600Y-35717400D01*
X24125600Y-35717400D01*
X24125600Y-35697400D01*
X24105600Y-35697400D01*
X24105600Y-35443400D01*
X24125600Y-35443400D01*
X24125600Y-35423400D01*
X24379600Y-35423400D01*
X24379600Y-35443400D01*
X25578850Y-35443400D01*
X25737600Y-35284650D01*
X25740672Y-34720400D01*
X25728412Y-34595918D01*
X25692102Y-34476220D01*
X25633137Y-34365906D01*
X25553785Y-34269215D01*
X25457094Y-34189863D01*
X25346780Y-34130898D01*
X25274220Y-34108887D01*
X25406075Y-33977032D01*
X25568590Y-33733811D01*
X25680532Y-33463558D01*
X25737600Y-33176660D01*
X25737600Y-32884140D01*
X25693810Y-32663992D01*
X26235302Y-32122500D01*
X38733489Y-32122500D01*
X38777426Y-32166437D01*
X38946944Y-32279705D01*
X39135302Y-32357726D01*
X39335261Y-32397500D01*
X39539139Y-32397500D01*
X39739098Y-32357726D01*
X39927456Y-32279705D01*
X40096974Y-32166437D01*
X40188022Y-32075389D01*
X41008586Y-32075389D01*
X41937700Y-33004504D01*
X41961498Y-33033502D01*
X41990496Y-33057300D01*
X42077222Y-33128475D01*
X42209252Y-33199047D01*
X42352513Y-33242504D01*
X42464166Y-33253501D01*
X42464176Y-33253501D01*
X42501499Y-33257177D01*
X42538822Y-33253501D01*
X44737208Y-33253501D01*
X44774530Y-33257177D01*
X44811852Y-33253501D01*
X44811863Y-33253501D01*
X44923516Y-33242504D01*
X45066777Y-33199047D01*
X45198806Y-33128475D01*
X45314531Y-33033502D01*
X45338334Y-33004498D01*
X45992444Y-32350389D01*
X46054581Y-32350389D01*
X46254540Y-32310615D01*
X46442898Y-32232594D01*
X46612416Y-32119326D01*
X46756579Y-31975163D01*
X46869847Y-31805645D01*
X46947868Y-31617287D01*
X46987642Y-31417328D01*
X46987642Y-31213450D01*
X46947868Y-31013491D01*
X46869847Y-30825133D01*
X46756579Y-30655615D01*
X46612416Y-30511452D01*
X46442898Y-30398184D01*
X46254540Y-30320163D01*
X46054581Y-30280389D01*
X45850703Y-30280389D01*
X45650744Y-30320163D01*
X45462386Y-30398184D01*
X45292868Y-30511452D01*
X45148705Y-30655615D01*
X45035437Y-30825133D01*
X44957416Y-31013491D01*
X44917642Y-31213450D01*
X44917642Y-31275587D01*
X44459729Y-31733501D01*
X43884500Y-31733501D01*
X43884500Y-31666561D01*
X43844726Y-31466602D01*
X43766705Y-31278244D01*
X43653437Y-31108726D01*
X43509274Y-30964563D01*
X43339756Y-30851295D01*
X43151398Y-30773274D01*
X42951439Y-30733500D01*
X42889302Y-30733500D01*
X41263104Y-29107303D01*
X41239301Y-29078299D01*
X41123576Y-28983326D01*
X40991547Y-28912754D01*
X40848286Y-28869297D01*
X40736633Y-28858300D01*
X40736622Y-28858300D01*
X40699300Y-28854624D01*
X40661978Y-28858300D01*
X40295011Y-28858300D01*
X40251074Y-28814363D01*
X40095482Y-28710400D01*
X44672851Y-28710400D01*
X44767642Y-28805191D01*
X44767642Y-28867328D01*
X44807416Y-29067287D01*
X44885437Y-29255645D01*
X44998705Y-29425163D01*
X45142868Y-29569326D01*
X45312386Y-29682594D01*
X45500744Y-29760615D01*
X45700703Y-29800389D01*
X45904581Y-29800389D01*
X46104540Y-29760615D01*
X46292898Y-29682594D01*
X46462416Y-29569326D01*
X46606579Y-29425163D01*
X46719847Y-29255645D01*
X46797868Y-29067287D01*
X46837642Y-28867328D01*
X46837642Y-28663450D01*
X46797868Y-28463491D01*
X46719847Y-28275133D01*
X46606579Y-28105615D01*
X46462416Y-27961452D01*
X46292898Y-27848184D01*
X46104540Y-27770163D01*
X45904581Y-27730389D01*
X45842444Y-27730389D01*
X45551456Y-27439402D01*
X45527654Y-27410399D01*
X45411929Y-27315426D01*
X45279900Y-27244854D01*
X45136639Y-27201397D01*
X45024986Y-27190400D01*
X45024975Y-27190400D01*
X44987653Y-27186724D01*
X44950331Y-27190400D01*
X25530778Y-27190400D01*
X25406075Y-27003768D01*
X25199232Y-26796925D01*
X25024840Y-26680400D01*
X25199232Y-26563875D01*
X25406075Y-26357032D01*
X25568590Y-26113811D01*
X25680532Y-25843558D01*
X25737600Y-25556660D01*
X25737600Y-25264140D01*
X25680532Y-24977242D01*
X25568590Y-24706989D01*
X25406075Y-24463768D01*
X25199232Y-24256925D01*
X24956011Y-24094410D01*
X24789405Y-24025400D01*
X25002276Y-24025400D01*
X25492032Y-23927982D01*
X25953373Y-23736888D01*
X26106651Y-23634471D01*
X26139932Y-23744182D01*
G37*
%TD.AperFunction*%
%TD*%
M02*
