%TF.GenerationSoftware,KiCad,Pcbnew,(5.99.0-11678-ga208dac8d8)*%
%TF.CreationDate,2021-09-17T02:16:07+07:00*%
%TF.ProjectId,sharp_memory_display,73686172-705f-46d6-956d-6f72795f6469,rev?*%
%TF.SameCoordinates,Original*%
%TF.FileFunction,Legend,Top*%
%TF.FilePolarity,Positive*%
%FSLAX46Y46*%
G04 Gerber Fmt 4.6, Leading zero omitted, Abs format (unit mm)*
G04 Created by KiCad (PCBNEW (5.99.0-11678-ga208dac8d8)) date 2021-09-17 02:16:07*
%MOMM*%
%LPD*%
G01*
G04 APERTURE LIST*
%ADD10C,0.120000*%
%ADD11C,0.150000*%
%ADD12C,0.125000*%
G04 APERTURE END LIST*
D10*
X52652642Y-35840389D02*
X52652642Y-25140389D01*
X52652642Y-25140389D02*
X27402642Y-25140389D01*
X27402642Y-35840389D02*
X52652642Y-35840389D01*
X27402642Y-25140389D02*
X27402642Y-35840389D01*
D11*
X32052641Y-31218960D02*
X31338356Y-31218960D01*
X31338356Y-29718960D01*
X32481213Y-31147531D02*
X32695499Y-31218960D01*
X33052642Y-31218960D01*
X33195499Y-31147531D01*
X33266927Y-31076103D01*
X33338356Y-30933246D01*
X33338356Y-30790389D01*
X33266927Y-30647531D01*
X33195499Y-30576103D01*
X33052642Y-30504674D01*
X32766927Y-30433246D01*
X32624070Y-30361817D01*
X32552642Y-30290389D01*
X32481213Y-30147531D01*
X32481213Y-30004674D01*
X32552642Y-29861817D01*
X32624070Y-29790389D01*
X32766927Y-29718960D01*
X33124070Y-29718960D01*
X33338356Y-29790389D01*
X34266927Y-29718960D02*
X34409784Y-29718960D01*
X34552642Y-29790389D01*
X34624070Y-29861817D01*
X34695499Y-30004674D01*
X34766927Y-30290389D01*
X34766927Y-30647531D01*
X34695499Y-30933246D01*
X34624070Y-31076103D01*
X34552642Y-31147531D01*
X34409784Y-31218960D01*
X34266927Y-31218960D01*
X34124070Y-31147531D01*
X34052642Y-31076103D01*
X33981213Y-30933246D01*
X33909784Y-30647531D01*
X33909784Y-30290389D01*
X33981213Y-30004674D01*
X34052642Y-29861817D01*
X34124070Y-29790389D01*
X34266927Y-29718960D01*
X36195499Y-31218960D02*
X35338356Y-31218960D01*
X35766927Y-31218960D02*
X35766927Y-29718960D01*
X35624070Y-29933246D01*
X35481213Y-30076103D01*
X35338356Y-30147531D01*
X37624070Y-31218960D02*
X36766927Y-31218960D01*
X37195499Y-31218960D02*
X37195499Y-29718960D01*
X37052642Y-29933246D01*
X36909784Y-30076103D01*
X36766927Y-30147531D01*
X38766927Y-30433246D02*
X38981213Y-30504674D01*
X39052642Y-30576103D01*
X39124070Y-30718960D01*
X39124070Y-30933246D01*
X39052642Y-31076103D01*
X38981213Y-31147531D01*
X38838356Y-31218960D01*
X38266927Y-31218960D01*
X38266927Y-29718960D01*
X38766927Y-29718960D01*
X38909784Y-29790389D01*
X38981213Y-29861817D01*
X39052642Y-30004674D01*
X39052642Y-30147531D01*
X38981213Y-30290389D01*
X38909784Y-30361817D01*
X38766927Y-30433246D01*
X38266927Y-30433246D01*
X39624070Y-29718960D02*
X40624070Y-29718960D01*
X39981213Y-31218960D01*
X41195499Y-31218960D02*
X41195499Y-29718960D01*
X41552642Y-29718960D01*
X41766927Y-29790389D01*
X41909784Y-29933246D01*
X41981213Y-30076103D01*
X42052642Y-30361817D01*
X42052642Y-30576103D01*
X41981213Y-30861817D01*
X41909784Y-31004674D01*
X41766927Y-31147531D01*
X41552642Y-31218960D01*
X41195499Y-31218960D01*
X42695499Y-31218960D02*
X42695499Y-29718960D01*
X42695499Y-30433246D02*
X43552642Y-30433246D01*
X43552642Y-31218960D02*
X43552642Y-29718960D01*
X44552642Y-29718960D02*
X44695499Y-29718960D01*
X44838356Y-29790389D01*
X44909784Y-29861817D01*
X44981213Y-30004674D01*
X45052642Y-30290389D01*
X45052642Y-30647531D01*
X44981213Y-30933246D01*
X44909784Y-31076103D01*
X44838356Y-31147531D01*
X44695499Y-31218960D01*
X44552642Y-31218960D01*
X44409784Y-31147531D01*
X44338356Y-31076103D01*
X44266927Y-30933246D01*
X44195499Y-30647531D01*
X44195499Y-30290389D01*
X44266927Y-30004674D01*
X44338356Y-29861817D01*
X44409784Y-29790389D01*
X44552642Y-29718960D01*
X45552642Y-29718960D02*
X46481213Y-29718960D01*
X45981213Y-30290389D01*
X46195499Y-30290389D01*
X46338356Y-30361817D01*
X46409784Y-30433246D01*
X46481213Y-30576103D01*
X46481213Y-30933246D01*
X46409784Y-31076103D01*
X46338356Y-31147531D01*
X46195499Y-31218960D01*
X45766927Y-31218960D01*
X45624070Y-31147531D01*
X45552642Y-31076103D01*
D12*
X26135975Y-27640389D02*
X26835975Y-27640389D01*
X26835975Y-27807055D01*
X26802642Y-27907055D01*
X26735975Y-27973722D01*
X26669308Y-28007055D01*
X26535975Y-28040389D01*
X26435975Y-28040389D01*
X26302642Y-28007055D01*
X26235975Y-27973722D01*
X26169308Y-27907055D01*
X26135975Y-27807055D01*
X26135975Y-27640389D01*
X26135975Y-28340389D02*
X26835975Y-28340389D01*
X26785975Y-31990389D02*
X26785975Y-32423722D01*
X26519308Y-32190389D01*
X26519308Y-32290389D01*
X26485975Y-32357055D01*
X26452642Y-32390389D01*
X26385975Y-32423722D01*
X26219308Y-32423722D01*
X26152642Y-32390389D01*
X26119308Y-32357055D01*
X26085975Y-32290389D01*
X26085975Y-32090389D01*
X26119308Y-32023722D01*
X26152642Y-31990389D01*
X26152642Y-32723722D02*
X26119308Y-32757055D01*
X26085975Y-32723722D01*
X26119308Y-32690389D01*
X26152642Y-32723722D01*
X26085975Y-32723722D01*
X26785975Y-32990389D02*
X26785975Y-33423722D01*
X26519308Y-33190389D01*
X26519308Y-33290389D01*
X26485975Y-33357055D01*
X26452642Y-33390389D01*
X26385975Y-33423722D01*
X26219308Y-33423722D01*
X26152642Y-33390389D01*
X26119308Y-33357055D01*
X26085975Y-33290389D01*
X26085975Y-33090389D01*
X26119308Y-33023722D01*
X26152642Y-32990389D01*
X26552642Y-33657055D02*
X26085975Y-33823722D01*
X26552642Y-33990389D01*
X26752642Y-35207055D02*
X26785975Y-35140389D01*
X26785975Y-35040389D01*
X26752642Y-34940389D01*
X26685975Y-34873722D01*
X26619308Y-34840389D01*
X26485975Y-34807055D01*
X26385975Y-34807055D01*
X26252642Y-34840389D01*
X26185975Y-34873722D01*
X26119308Y-34940389D01*
X26085975Y-35040389D01*
X26085975Y-35107055D01*
X26119308Y-35207055D01*
X26152642Y-35240389D01*
X26385975Y-35240389D01*
X26385975Y-35107055D01*
X26085975Y-35540389D02*
X26785975Y-35540389D01*
X26085975Y-35940389D01*
X26785975Y-35940389D01*
X26085975Y-36273722D02*
X26785975Y-36273722D01*
X26785975Y-36440389D01*
X26752642Y-36540389D01*
X26685975Y-36607055D01*
X26619308Y-36640389D01*
X26485975Y-36673722D01*
X26385975Y-36673722D01*
X26252642Y-36640389D01*
X26185975Y-36607055D01*
X26119308Y-36540389D01*
X26085975Y-36440389D01*
X26085975Y-36273722D01*
X26202642Y-30273722D02*
X26169308Y-30240389D01*
X26135975Y-30140389D01*
X26135975Y-30073722D01*
X26169308Y-29973722D01*
X26235975Y-29907055D01*
X26302642Y-29873722D01*
X26435975Y-29840389D01*
X26535975Y-29840389D01*
X26669308Y-29873722D01*
X26735975Y-29907055D01*
X26802642Y-29973722D01*
X26835975Y-30073722D01*
X26835975Y-30140389D01*
X26802642Y-30240389D01*
X26769308Y-30273722D01*
X26169308Y-30540389D02*
X26135975Y-30640389D01*
X26135975Y-30807055D01*
X26169308Y-30873722D01*
X26202642Y-30907055D01*
X26269308Y-30940389D01*
X26335975Y-30940389D01*
X26402642Y-30907055D01*
X26435975Y-30873722D01*
X26469308Y-30807055D01*
X26502642Y-30673722D01*
X26535975Y-30607055D01*
X26569308Y-30573722D01*
X26635975Y-30540389D01*
X26702642Y-30540389D01*
X26769308Y-30573722D01*
X26802642Y-30607055D01*
X26835975Y-30673722D01*
X26835975Y-30840389D01*
X26802642Y-30940389D01*
X26252642Y-25073722D02*
X26219308Y-25040389D01*
X26185975Y-24940389D01*
X26185975Y-24873722D01*
X26219308Y-24773722D01*
X26285975Y-24707055D01*
X26352642Y-24673722D01*
X26485975Y-24640389D01*
X26585975Y-24640389D01*
X26719308Y-24673722D01*
X26785975Y-24707055D01*
X26852642Y-24773722D01*
X26885975Y-24873722D01*
X26885975Y-24940389D01*
X26852642Y-25040389D01*
X26819308Y-25073722D01*
X26185975Y-25707055D02*
X26185975Y-25373722D01*
X26885975Y-25373722D01*
X26185975Y-25940389D02*
X26885975Y-25940389D01*
X26185975Y-26340389D02*
X26585975Y-26040389D01*
X26885975Y-26340389D02*
X26485975Y-25940389D01*
D11*
X31252522Y-32695150D02*
X31389427Y-32742769D01*
X31627522Y-32742769D01*
X31728713Y-32695150D01*
X31782284Y-32647531D01*
X31841808Y-32552293D01*
X31853713Y-32457055D01*
X31817999Y-32361817D01*
X31776332Y-32314198D01*
X31687046Y-32266579D01*
X31502522Y-32218960D01*
X31413237Y-32171341D01*
X31371570Y-32123722D01*
X31335856Y-32028484D01*
X31347761Y-31933246D01*
X31407284Y-31838008D01*
X31460856Y-31790389D01*
X31562046Y-31742769D01*
X31800142Y-31742769D01*
X31937046Y-31790389D01*
X32633475Y-32695150D02*
X32532284Y-32742769D01*
X32341808Y-32742769D01*
X32252522Y-32695150D01*
X32216808Y-32599912D01*
X32264427Y-32218960D01*
X32323951Y-32123722D01*
X32425142Y-32076103D01*
X32615618Y-32076103D01*
X32704903Y-32123722D01*
X32740618Y-32218960D01*
X32728713Y-32314198D01*
X32240618Y-32409436D01*
X33187046Y-32076103D02*
X33062046Y-33076103D01*
X33181094Y-32123722D02*
X33282284Y-32076103D01*
X33472761Y-32076103D01*
X33562046Y-32123722D01*
X33603713Y-32171341D01*
X33639427Y-32266579D01*
X33603713Y-32552293D01*
X33544189Y-32647531D01*
X33490618Y-32695150D01*
X33389427Y-32742769D01*
X33198951Y-32742769D01*
X33109665Y-32695150D01*
X33948951Y-32076103D02*
X34329903Y-32076103D01*
X34133475Y-31742769D02*
X34026332Y-32599912D01*
X34062046Y-32695150D01*
X34151332Y-32742769D01*
X34246570Y-32742769D01*
X34966808Y-32695150D02*
X34865618Y-32742769D01*
X34675142Y-32742769D01*
X34585856Y-32695150D01*
X34550142Y-32599912D01*
X34597761Y-32218960D01*
X34657284Y-32123722D01*
X34758475Y-32076103D01*
X34948951Y-32076103D01*
X35038237Y-32123722D01*
X35073951Y-32218960D01*
X35062046Y-32314198D01*
X34573951Y-32409436D01*
X35437046Y-32742769D02*
X35520380Y-32076103D01*
X35508475Y-32171341D02*
X35562046Y-32123722D01*
X35663237Y-32076103D01*
X35806094Y-32076103D01*
X35895380Y-32123722D01*
X35931094Y-32218960D01*
X35865618Y-32742769D01*
X35931094Y-32218960D02*
X35990618Y-32123722D01*
X36091808Y-32076103D01*
X36234665Y-32076103D01*
X36323951Y-32123722D01*
X36359665Y-32218960D01*
X36294189Y-32742769D01*
X36770380Y-32742769D02*
X36895380Y-31742769D01*
X36847761Y-32123722D02*
X36948951Y-32076103D01*
X37139427Y-32076103D01*
X37228713Y-32123722D01*
X37270380Y-32171341D01*
X37306094Y-32266579D01*
X37270380Y-32552293D01*
X37210856Y-32647531D01*
X37157284Y-32695150D01*
X37056094Y-32742769D01*
X36865618Y-32742769D01*
X36776332Y-32695150D01*
X38062046Y-32695150D02*
X37960856Y-32742769D01*
X37770380Y-32742769D01*
X37681094Y-32695150D01*
X37645380Y-32599912D01*
X37692999Y-32218960D01*
X37752522Y-32123722D01*
X37853713Y-32076103D01*
X38044189Y-32076103D01*
X38133475Y-32123722D01*
X38169189Y-32218960D01*
X38157284Y-32314198D01*
X37669189Y-32409436D01*
X38532284Y-32742769D02*
X38615618Y-32076103D01*
X38591808Y-32266579D02*
X38651332Y-32171341D01*
X38704903Y-32123722D01*
X38806094Y-32076103D01*
X38901332Y-32076103D01*
X39978713Y-31838008D02*
X40032284Y-31790389D01*
X40133475Y-31742769D01*
X40371570Y-31742769D01*
X40460856Y-31790389D01*
X40502522Y-31838008D01*
X40538237Y-31933246D01*
X40526332Y-32028484D01*
X40460856Y-32171341D01*
X39817999Y-32742769D01*
X40437046Y-32742769D01*
X41181094Y-31742769D02*
X41276332Y-31742769D01*
X41365618Y-31790389D01*
X41407284Y-31838008D01*
X41442999Y-31933246D01*
X41466808Y-32123722D01*
X41437046Y-32361817D01*
X41365618Y-32552293D01*
X41306094Y-32647531D01*
X41252522Y-32695150D01*
X41151332Y-32742769D01*
X41056094Y-32742769D01*
X40966808Y-32695150D01*
X40925142Y-32647531D01*
X40889427Y-32552293D01*
X40865618Y-32361817D01*
X40895380Y-32123722D01*
X40966808Y-31933246D01*
X41026332Y-31838008D01*
X41079903Y-31790389D01*
X41181094Y-31742769D01*
X41883475Y-31838008D02*
X41937046Y-31790389D01*
X42038237Y-31742769D01*
X42276332Y-31742769D01*
X42365618Y-31790389D01*
X42407284Y-31838008D01*
X42442999Y-31933246D01*
X42431094Y-32028484D01*
X42365618Y-32171341D01*
X41722761Y-32742769D01*
X42341808Y-32742769D01*
X43294189Y-32742769D02*
X42722761Y-32742769D01*
X43008475Y-32742769D02*
X43133475Y-31742769D01*
X43020380Y-31885627D01*
X42913237Y-31980865D01*
X42812046Y-32028484D01*
D10*
X31363975Y-28010222D02*
X31463975Y-28043555D01*
X31630642Y-28043555D01*
X31697308Y-28010222D01*
X31730642Y-27976889D01*
X31763975Y-27910222D01*
X31763975Y-27843555D01*
X31730642Y-27776889D01*
X31697308Y-27743555D01*
X31630642Y-27710222D01*
X31497308Y-27676889D01*
X31430642Y-27643555D01*
X31397308Y-27610222D01*
X31363975Y-27543555D01*
X31363975Y-27476889D01*
X31397308Y-27410222D01*
X31430642Y-27376889D01*
X31497308Y-27343555D01*
X31663975Y-27343555D01*
X31763975Y-27376889D01*
X32063975Y-28043555D02*
X32063975Y-27343555D01*
X32363975Y-28043555D02*
X32363975Y-27676889D01*
X32330642Y-27610222D01*
X32263975Y-27576889D01*
X32163975Y-27576889D01*
X32097308Y-27610222D01*
X32063975Y-27643555D01*
X32997308Y-28043555D02*
X32997308Y-27676889D01*
X32963975Y-27610222D01*
X32897308Y-27576889D01*
X32763975Y-27576889D01*
X32697308Y-27610222D01*
X32997308Y-28010222D02*
X32930642Y-28043555D01*
X32763975Y-28043555D01*
X32697308Y-28010222D01*
X32663975Y-27943555D01*
X32663975Y-27876889D01*
X32697308Y-27810222D01*
X32763975Y-27776889D01*
X32930642Y-27776889D01*
X32997308Y-27743555D01*
X33330642Y-28043555D02*
X33330642Y-27576889D01*
X33330642Y-27710222D02*
X33363975Y-27643555D01*
X33397308Y-27610222D01*
X33463975Y-27576889D01*
X33530642Y-27576889D01*
X33763975Y-27576889D02*
X33763975Y-28276889D01*
X33763975Y-27610222D02*
X33830642Y-27576889D01*
X33963975Y-27576889D01*
X34030642Y-27610222D01*
X34063975Y-27643555D01*
X34097308Y-27710222D01*
X34097308Y-27910222D01*
X34063975Y-27976889D01*
X34030642Y-28010222D01*
X33963975Y-28043555D01*
X33830642Y-28043555D01*
X33763975Y-28010222D01*
X34930642Y-28043555D02*
X34930642Y-27343555D01*
X35163975Y-27843555D01*
X35397308Y-27343555D01*
X35397308Y-28043555D01*
X35997308Y-28010222D02*
X35930642Y-28043555D01*
X35797308Y-28043555D01*
X35730642Y-28010222D01*
X35697308Y-27943555D01*
X35697308Y-27676889D01*
X35730642Y-27610222D01*
X35797308Y-27576889D01*
X35930642Y-27576889D01*
X35997308Y-27610222D01*
X36030642Y-27676889D01*
X36030642Y-27743555D01*
X35697308Y-27810222D01*
X36330642Y-28043555D02*
X36330642Y-27576889D01*
X36330642Y-27643555D02*
X36363975Y-27610222D01*
X36430642Y-27576889D01*
X36530642Y-27576889D01*
X36597308Y-27610222D01*
X36630642Y-27676889D01*
X36630642Y-28043555D01*
X36630642Y-27676889D02*
X36663975Y-27610222D01*
X36730642Y-27576889D01*
X36830642Y-27576889D01*
X36897308Y-27610222D01*
X36930642Y-27676889D01*
X36930642Y-28043555D01*
X37363975Y-28043555D02*
X37297308Y-28010222D01*
X37263975Y-27976889D01*
X37230642Y-27910222D01*
X37230642Y-27710222D01*
X37263975Y-27643555D01*
X37297308Y-27610222D01*
X37363975Y-27576889D01*
X37463975Y-27576889D01*
X37530642Y-27610222D01*
X37563975Y-27643555D01*
X37597308Y-27710222D01*
X37597308Y-27910222D01*
X37563975Y-27976889D01*
X37530642Y-28010222D01*
X37463975Y-28043555D01*
X37363975Y-28043555D01*
X37897308Y-28043555D02*
X37897308Y-27576889D01*
X37897308Y-27710222D02*
X37930642Y-27643555D01*
X37963975Y-27610222D01*
X38030642Y-27576889D01*
X38097308Y-27576889D01*
X38263975Y-27576889D02*
X38430642Y-28043555D01*
X38597308Y-27576889D02*
X38430642Y-28043555D01*
X38363975Y-28210222D01*
X38330642Y-28243555D01*
X38263975Y-28276889D01*
X31397308Y-29170555D02*
X31397308Y-28470555D01*
X31563975Y-28470555D01*
X31663975Y-28503889D01*
X31730642Y-28570555D01*
X31763975Y-28637222D01*
X31797308Y-28770555D01*
X31797308Y-28870555D01*
X31763975Y-29003889D01*
X31730642Y-29070555D01*
X31663975Y-29137222D01*
X31563975Y-29170555D01*
X31397308Y-29170555D01*
X32097308Y-29170555D02*
X32097308Y-28703889D01*
X32097308Y-28470555D02*
X32063975Y-28503889D01*
X32097308Y-28537222D01*
X32130642Y-28503889D01*
X32097308Y-28470555D01*
X32097308Y-28537222D01*
X32397308Y-29137222D02*
X32463975Y-29170555D01*
X32597308Y-29170555D01*
X32663975Y-29137222D01*
X32697308Y-29070555D01*
X32697308Y-29037222D01*
X32663975Y-28970555D01*
X32597308Y-28937222D01*
X32497308Y-28937222D01*
X32430642Y-28903889D01*
X32397308Y-28837222D01*
X32397308Y-28803889D01*
X32430642Y-28737222D01*
X32497308Y-28703889D01*
X32597308Y-28703889D01*
X32663975Y-28737222D01*
X32997308Y-28703889D02*
X32997308Y-29403889D01*
X32997308Y-28737222D02*
X33063975Y-28703889D01*
X33197308Y-28703889D01*
X33263975Y-28737222D01*
X33297308Y-28770555D01*
X33330642Y-28837222D01*
X33330642Y-29037222D01*
X33297308Y-29103889D01*
X33263975Y-29137222D01*
X33197308Y-29170555D01*
X33063975Y-29170555D01*
X32997308Y-29137222D01*
X33730642Y-29170555D02*
X33663975Y-29137222D01*
X33630642Y-29070555D01*
X33630642Y-28470555D01*
X34297308Y-29170555D02*
X34297308Y-28803889D01*
X34263975Y-28737222D01*
X34197308Y-28703889D01*
X34063975Y-28703889D01*
X33997308Y-28737222D01*
X34297308Y-29137222D02*
X34230642Y-29170555D01*
X34063975Y-29170555D01*
X33997308Y-29137222D01*
X33963975Y-29070555D01*
X33963975Y-29003889D01*
X33997308Y-28937222D01*
X34063975Y-28903889D01*
X34230642Y-28903889D01*
X34297308Y-28870555D01*
X34563975Y-28703889D02*
X34730642Y-29170555D01*
X34897308Y-28703889D02*
X34730642Y-29170555D01*
X34663975Y-29337222D01*
X34630642Y-29370555D01*
X34563975Y-29403889D01*
X35930642Y-28803889D02*
X36030642Y-28837222D01*
X36063975Y-28870555D01*
X36097308Y-28937222D01*
X36097308Y-29037222D01*
X36063975Y-29103889D01*
X36030642Y-29137222D01*
X35963975Y-29170555D01*
X35697308Y-29170555D01*
X35697308Y-28470555D01*
X35930642Y-28470555D01*
X35997308Y-28503889D01*
X36030642Y-28537222D01*
X36063975Y-28603889D01*
X36063975Y-28670555D01*
X36030642Y-28737222D01*
X35997308Y-28770555D01*
X35930642Y-28803889D01*
X35697308Y-28803889D01*
X36397308Y-29170555D02*
X36397308Y-28703889D01*
X36397308Y-28837222D02*
X36430642Y-28770555D01*
X36463975Y-28737222D01*
X36530642Y-28703889D01*
X36597308Y-28703889D01*
X37097308Y-29137222D02*
X37030642Y-29170555D01*
X36897308Y-29170555D01*
X36830642Y-29137222D01*
X36797308Y-29070555D01*
X36797308Y-28803889D01*
X36830642Y-28737222D01*
X36897308Y-28703889D01*
X37030642Y-28703889D01*
X37097308Y-28737222D01*
X37130642Y-28803889D01*
X37130642Y-28870555D01*
X36797308Y-28937222D01*
X37730642Y-29170555D02*
X37730642Y-28803889D01*
X37697308Y-28737222D01*
X37630642Y-28703889D01*
X37497308Y-28703889D01*
X37430642Y-28737222D01*
X37730642Y-29137222D02*
X37663975Y-29170555D01*
X37497308Y-29170555D01*
X37430642Y-29137222D01*
X37397308Y-29070555D01*
X37397308Y-29003889D01*
X37430642Y-28937222D01*
X37497308Y-28903889D01*
X37663975Y-28903889D01*
X37730642Y-28870555D01*
X38063975Y-29170555D02*
X38063975Y-28470555D01*
X38130642Y-28903889D02*
X38330642Y-29170555D01*
X38330642Y-28703889D02*
X38063975Y-28970555D01*
X38730642Y-29170555D02*
X38663975Y-29137222D01*
X38630642Y-29103889D01*
X38597308Y-29037222D01*
X38597308Y-28837222D01*
X38630642Y-28770555D01*
X38663975Y-28737222D01*
X38730642Y-28703889D01*
X38830642Y-28703889D01*
X38897308Y-28737222D01*
X38930642Y-28770555D01*
X38963975Y-28837222D01*
X38963975Y-29037222D01*
X38930642Y-29103889D01*
X38897308Y-29137222D01*
X38830642Y-29170555D01*
X38730642Y-29170555D01*
X39563975Y-28703889D02*
X39563975Y-29170555D01*
X39263975Y-28703889D02*
X39263975Y-29070555D01*
X39297308Y-29137222D01*
X39363975Y-29170555D01*
X39463975Y-29170555D01*
X39530642Y-29137222D01*
X39563975Y-29103889D01*
X39797308Y-28703889D02*
X40063975Y-28703889D01*
X39897308Y-28470555D02*
X39897308Y-29070555D01*
X39930642Y-29137222D01*
X39997308Y-29170555D01*
X40063975Y-29170555D01*
D11*
%TO.C,J4*%
X47955022Y-30823722D02*
X48669308Y-30823722D01*
X48812165Y-30871341D01*
X48907403Y-30966579D01*
X48955022Y-31109436D01*
X48955022Y-31204674D01*
X48288356Y-29918960D02*
X48955022Y-29918960D01*
X47907403Y-30157055D02*
X48621689Y-30395150D01*
X48621689Y-29776103D01*
D10*
X50902642Y-33150389D02*
X50902642Y-34640389D01*
X50902642Y-34640389D02*
X52242642Y-34640389D01*
X50902642Y-27830389D02*
X50902642Y-26340389D01*
X50902642Y-26340389D02*
X52242642Y-26340389D01*
X50902642Y-33150389D02*
X49702642Y-33150389D01*
%TO.C,J1*%
X22922600Y-36900400D02*
X22922600Y-35570400D01*
X22922600Y-34300400D02*
X22922600Y-24080400D01*
X25582600Y-24080400D02*
X22922600Y-24080400D01*
X25582600Y-34300400D02*
X25582600Y-24080400D01*
X25582600Y-34300400D02*
X22922600Y-34300400D01*
X24252600Y-36900400D02*
X22922600Y-36900400D01*
%TD*%
M02*
