%TF.GenerationSoftware,KiCad,Pcbnew,(5.99.0-11678-ga208dac8d8)*%
%TF.CreationDate,2021-09-17T02:16:07+07:00*%
%TF.ProjectId,sharp_memory_display,73686172-705f-46d6-956d-6f72795f6469,rev?*%
%TF.SameCoordinates,Original*%
%TF.FileFunction,Legend,Bot*%
%TF.FilePolarity,Positive*%
%FSLAX46Y46*%
G04 Gerber Fmt 4.6, Leading zero omitted, Abs format (unit mm)*
G04 Created by KiCad (PCBNEW (5.99.0-11678-ga208dac8d8)) date 2021-09-17 02:16:07*
%MOMM*%
%LPD*%
G01*
G04 APERTURE LIST*
%ADD10C,0.120000*%
%ADD11C,0.150000*%
G04 APERTURE END LIST*
D10*
X25260975Y-29140389D02*
X25960975Y-29140389D01*
X25460975Y-28907055D01*
X25960975Y-28673722D01*
X25260975Y-28673722D01*
X25960975Y-28207055D02*
X25960975Y-28073722D01*
X25927642Y-28007055D01*
X25860975Y-27940389D01*
X25727642Y-27907055D01*
X25494308Y-27907055D01*
X25360975Y-27940389D01*
X25294308Y-28007055D01*
X25260975Y-28073722D01*
X25260975Y-28207055D01*
X25294308Y-28273722D01*
X25360975Y-28340389D01*
X25494308Y-28373722D01*
X25727642Y-28373722D01*
X25860975Y-28340389D01*
X25927642Y-28273722D01*
X25960975Y-28207055D01*
X25294308Y-27640389D02*
X25260975Y-27540389D01*
X25260975Y-27373722D01*
X25294308Y-27307055D01*
X25327642Y-27273722D01*
X25394308Y-27240389D01*
X25460975Y-27240389D01*
X25527642Y-27273722D01*
X25560975Y-27307055D01*
X25594308Y-27373722D01*
X25627642Y-27507055D01*
X25660975Y-27573722D01*
X25694308Y-27607055D01*
X25760975Y-27640389D01*
X25827642Y-27640389D01*
X25894308Y-27607055D01*
X25927642Y-27573722D01*
X25960975Y-27507055D01*
X25960975Y-27340389D01*
X25927642Y-27240389D01*
X25260975Y-26940389D02*
X25960975Y-26940389D01*
X25927642Y-36148722D02*
X25960975Y-36215389D01*
X25960975Y-36315389D01*
X25927642Y-36415389D01*
X25860975Y-36482055D01*
X25794308Y-36515389D01*
X25660975Y-36548722D01*
X25560975Y-36548722D01*
X25427642Y-36515389D01*
X25360975Y-36482055D01*
X25294308Y-36415389D01*
X25260975Y-36315389D01*
X25260975Y-36248722D01*
X25294308Y-36148722D01*
X25327642Y-36115389D01*
X25560975Y-36115389D01*
X25560975Y-36248722D01*
X25260975Y-35815389D02*
X25960975Y-35815389D01*
X25260975Y-35415389D01*
X25960975Y-35415389D01*
X25260975Y-35082055D02*
X25960975Y-35082055D01*
X25960975Y-34915389D01*
X25927642Y-34815389D01*
X25860975Y-34748722D01*
X25794308Y-34715389D01*
X25660975Y-34682055D01*
X25560975Y-34682055D01*
X25427642Y-34715389D01*
X25360975Y-34748722D01*
X25294308Y-34815389D01*
X25260975Y-34915389D01*
X25260975Y-35082055D01*
X25244308Y-31398722D02*
X25210975Y-31298722D01*
X25210975Y-31132055D01*
X25244308Y-31065389D01*
X25277642Y-31032055D01*
X25344308Y-30998722D01*
X25410975Y-30998722D01*
X25477642Y-31032055D01*
X25510975Y-31065389D01*
X25544308Y-31132055D01*
X25577642Y-31265389D01*
X25610975Y-31332055D01*
X25644308Y-31365389D01*
X25710975Y-31398722D01*
X25777642Y-31398722D01*
X25844308Y-31365389D01*
X25877642Y-31332055D01*
X25910975Y-31265389D01*
X25910975Y-31098722D01*
X25877642Y-30998722D01*
X25277642Y-30298722D02*
X25244308Y-30332055D01*
X25210975Y-30432055D01*
X25210975Y-30498722D01*
X25244308Y-30598722D01*
X25310975Y-30665389D01*
X25377642Y-30698722D01*
X25510975Y-30732055D01*
X25610975Y-30732055D01*
X25744308Y-30698722D01*
X25810975Y-30665389D01*
X25877642Y-30598722D01*
X25910975Y-30498722D01*
X25910975Y-30432055D01*
X25877642Y-30332055D01*
X25844308Y-30298722D01*
X25244308Y-30032055D02*
X25210975Y-29932055D01*
X25210975Y-29765389D01*
X25244308Y-29698722D01*
X25277642Y-29665389D01*
X25344308Y-29632055D01*
X25410975Y-29632055D01*
X25477642Y-29665389D01*
X25510975Y-29698722D01*
X25544308Y-29765389D01*
X25577642Y-29898722D01*
X25610975Y-29965389D01*
X25644308Y-29998722D01*
X25710975Y-30032055D01*
X25777642Y-30032055D01*
X25844308Y-29998722D01*
X25877642Y-29965389D01*
X25910975Y-29898722D01*
X25910975Y-29732055D01*
X25877642Y-29632055D01*
X25319308Y-26523722D02*
X25285975Y-26423722D01*
X25285975Y-26257055D01*
X25319308Y-26190389D01*
X25352642Y-26157055D01*
X25419308Y-26123722D01*
X25485975Y-26123722D01*
X25552642Y-26157055D01*
X25585975Y-26190389D01*
X25619308Y-26257055D01*
X25652642Y-26390389D01*
X25685975Y-26457055D01*
X25719308Y-26490389D01*
X25785975Y-26523722D01*
X25852642Y-26523722D01*
X25919308Y-26490389D01*
X25952642Y-26457055D01*
X25985975Y-26390389D01*
X25985975Y-26223722D01*
X25952642Y-26123722D01*
X25352642Y-25423722D02*
X25319308Y-25457055D01*
X25285975Y-25557055D01*
X25285975Y-25623722D01*
X25319308Y-25723722D01*
X25385975Y-25790389D01*
X25452642Y-25823722D01*
X25585975Y-25857055D01*
X25685975Y-25857055D01*
X25819308Y-25823722D01*
X25885975Y-25790389D01*
X25952642Y-25723722D01*
X25985975Y-25623722D01*
X25985975Y-25557055D01*
X25952642Y-25457055D01*
X25919308Y-25423722D01*
X25285975Y-24790389D02*
X25285975Y-25123722D01*
X25985975Y-25123722D01*
X25285975Y-24557055D02*
X25985975Y-24557055D01*
X25285975Y-24157055D02*
X25685975Y-24457055D01*
X25985975Y-24157055D02*
X25585975Y-24557055D01*
X25860975Y-34198722D02*
X25860975Y-33765389D01*
X25594308Y-33998722D01*
X25594308Y-33898722D01*
X25560975Y-33832055D01*
X25527642Y-33798722D01*
X25460975Y-33765389D01*
X25294308Y-33765389D01*
X25227642Y-33798722D01*
X25194308Y-33832055D01*
X25160975Y-33898722D01*
X25160975Y-34098722D01*
X25194308Y-34165389D01*
X25227642Y-34198722D01*
X25227642Y-33465389D02*
X25194308Y-33432055D01*
X25160975Y-33465389D01*
X25194308Y-33498722D01*
X25227642Y-33465389D01*
X25160975Y-33465389D01*
X25860975Y-33198722D02*
X25860975Y-32765389D01*
X25594308Y-32998722D01*
X25594308Y-32898722D01*
X25560975Y-32832055D01*
X25527642Y-32798722D01*
X25460975Y-32765389D01*
X25294308Y-32765389D01*
X25227642Y-32798722D01*
X25194308Y-32832055D01*
X25160975Y-32898722D01*
X25160975Y-33098722D01*
X25194308Y-33165389D01*
X25227642Y-33198722D01*
X25860975Y-32565389D02*
X25160975Y-32332055D01*
X25860975Y-32098722D01*
D11*
%TO.C,C1*%
X42319308Y-29097531D02*
X42366927Y-29145150D01*
X42509784Y-29192769D01*
X42605022Y-29192769D01*
X42747880Y-29145150D01*
X42843118Y-29049912D01*
X42890737Y-28954674D01*
X42938356Y-28764198D01*
X42938356Y-28621341D01*
X42890737Y-28430865D01*
X42843118Y-28335627D01*
X42747880Y-28240389D01*
X42605022Y-28192769D01*
X42509784Y-28192769D01*
X42366927Y-28240389D01*
X42319308Y-28288008D01*
X41366927Y-29192769D02*
X41938356Y-29192769D01*
X41652642Y-29192769D02*
X41652642Y-28192769D01*
X41747880Y-28335627D01*
X41843118Y-28430865D01*
X41938356Y-28478484D01*
%TO.C,C2*%
X42319308Y-34547531D02*
X42366927Y-34595150D01*
X42509784Y-34642769D01*
X42605022Y-34642769D01*
X42747880Y-34595150D01*
X42843118Y-34499912D01*
X42890737Y-34404674D01*
X42938356Y-34214198D01*
X42938356Y-34071341D01*
X42890737Y-33880865D01*
X42843118Y-33785627D01*
X42747880Y-33690389D01*
X42605022Y-33642769D01*
X42509784Y-33642769D01*
X42366927Y-33690389D01*
X42319308Y-33738008D01*
X41938356Y-33738008D02*
X41890737Y-33690389D01*
X41795499Y-33642769D01*
X41557403Y-33642769D01*
X41462165Y-33690389D01*
X41414546Y-33738008D01*
X41366927Y-33833246D01*
X41366927Y-33928484D01*
X41414546Y-34071341D01*
X41985975Y-34642769D01*
X41366927Y-34642769D01*
%TO.C,C3*%
X42519308Y-32947531D02*
X42566927Y-32995150D01*
X42709784Y-33042769D01*
X42805022Y-33042769D01*
X42947880Y-32995150D01*
X43043118Y-32899912D01*
X43090737Y-32804674D01*
X43138356Y-32614198D01*
X43138356Y-32471341D01*
X43090737Y-32280865D01*
X43043118Y-32185627D01*
X42947880Y-32090389D01*
X42805022Y-32042769D01*
X42709784Y-32042769D01*
X42566927Y-32090389D01*
X42519308Y-32138008D01*
X42185975Y-32042769D02*
X41566927Y-32042769D01*
X41900261Y-32423722D01*
X41757403Y-32423722D01*
X41662165Y-32471341D01*
X41614546Y-32518960D01*
X41566927Y-32614198D01*
X41566927Y-32852293D01*
X41614546Y-32947531D01*
X41662165Y-32995150D01*
X41757403Y-33042769D01*
X42043118Y-33042769D01*
X42138356Y-32995150D01*
X42185975Y-32947531D01*
%TO.C,FB1*%
X36235975Y-29668960D02*
X36569308Y-29668960D01*
X36569308Y-30192769D02*
X36569308Y-29192769D01*
X36093118Y-29192769D01*
X35378832Y-29668960D02*
X35235975Y-29716579D01*
X35188356Y-29764198D01*
X35140737Y-29859436D01*
X35140737Y-30002293D01*
X35188356Y-30097531D01*
X35235975Y-30145150D01*
X35331213Y-30192769D01*
X35712165Y-30192769D01*
X35712165Y-29192769D01*
X35378832Y-29192769D01*
X35283594Y-29240389D01*
X35235975Y-29288008D01*
X35188356Y-29383246D01*
X35188356Y-29478484D01*
X35235975Y-29573722D01*
X35283594Y-29621341D01*
X35378832Y-29668960D01*
X35712165Y-29668960D01*
X34188356Y-30192769D02*
X34759784Y-30192769D01*
X34474070Y-30192769D02*
X34474070Y-29192769D01*
X34569308Y-29335627D01*
X34664546Y-29430865D01*
X34759784Y-29478484D01*
%TO.C,FB2*%
X36385975Y-35618960D02*
X36719308Y-35618960D01*
X36719308Y-36142769D02*
X36719308Y-35142769D01*
X36243118Y-35142769D01*
X35528832Y-35618960D02*
X35385975Y-35666579D01*
X35338356Y-35714198D01*
X35290737Y-35809436D01*
X35290737Y-35952293D01*
X35338356Y-36047531D01*
X35385975Y-36095150D01*
X35481213Y-36142769D01*
X35862165Y-36142769D01*
X35862165Y-35142769D01*
X35528832Y-35142769D01*
X35433594Y-35190389D01*
X35385975Y-35238008D01*
X35338356Y-35333246D01*
X35338356Y-35428484D01*
X35385975Y-35523722D01*
X35433594Y-35571341D01*
X35528832Y-35618960D01*
X35862165Y-35618960D01*
X34909784Y-35238008D02*
X34862165Y-35190389D01*
X34766927Y-35142769D01*
X34528832Y-35142769D01*
X34433594Y-35190389D01*
X34385975Y-35238008D01*
X34338356Y-35333246D01*
X34338356Y-35428484D01*
X34385975Y-35571341D01*
X34957403Y-36142769D01*
X34338356Y-36142769D01*
%TO.C,R1*%
X42269308Y-30992769D02*
X42602642Y-30516579D01*
X42840737Y-30992769D02*
X42840737Y-29992769D01*
X42459784Y-29992769D01*
X42364546Y-30040389D01*
X42316927Y-30088008D01*
X42269308Y-30183246D01*
X42269308Y-30326103D01*
X42316927Y-30421341D01*
X42364546Y-30468960D01*
X42459784Y-30516579D01*
X42840737Y-30516579D01*
X41316927Y-30992769D02*
X41888356Y-30992769D01*
X41602642Y-30992769D02*
X41602642Y-29992769D01*
X41697880Y-30135627D01*
X41793118Y-30230865D01*
X41888356Y-30278484D01*
%TO.C,J2*%
X53567564Y-30307055D02*
X54281850Y-30307055D01*
X54424707Y-30259436D01*
X54519945Y-30164198D01*
X54567564Y-30021341D01*
X54567564Y-29926103D01*
X53662803Y-30735627D02*
X53615184Y-30783246D01*
X53567564Y-30878484D01*
X53567564Y-31116579D01*
X53615184Y-31211817D01*
X53662803Y-31259436D01*
X53758041Y-31307055D01*
X53853279Y-31307055D01*
X53996136Y-31259436D01*
X54567564Y-30688008D01*
X54567564Y-31307055D01*
%TO.C,R2*%
X42369308Y-27342769D02*
X42702642Y-26866579D01*
X42940737Y-27342769D02*
X42940737Y-26342769D01*
X42559784Y-26342769D01*
X42464546Y-26390389D01*
X42416927Y-26438008D01*
X42369308Y-26533246D01*
X42369308Y-26676103D01*
X42416927Y-26771341D01*
X42464546Y-26818960D01*
X42559784Y-26866579D01*
X42940737Y-26866579D01*
X41988356Y-26438008D02*
X41940737Y-26390389D01*
X41845499Y-26342769D01*
X41607403Y-26342769D01*
X41512165Y-26390389D01*
X41464546Y-26438008D01*
X41416927Y-26533246D01*
X41416927Y-26628484D01*
X41464546Y-26771341D01*
X42035975Y-27342769D01*
X41416927Y-27342769D01*
%TO.C,J3*%
X32184980Y-30157066D02*
X32899266Y-30157066D01*
X33042123Y-30109447D01*
X33137361Y-30014209D01*
X33184980Y-29871352D01*
X33184980Y-29776114D01*
X32184980Y-30538019D02*
X32184980Y-31157066D01*
X32565933Y-30823733D01*
X32565933Y-30966590D01*
X32613552Y-31061828D01*
X32661171Y-31109447D01*
X32756409Y-31157066D01*
X32994504Y-31157066D01*
X33089742Y-31109447D01*
X33137361Y-31061828D01*
X33184980Y-30966590D01*
X33184980Y-30680876D01*
X33137361Y-30585638D01*
X33089742Y-30538019D01*
D10*
%TO.C,C1*%
X39636367Y-28130400D02*
X39343833Y-28130400D01*
X39636367Y-29150400D02*
X39343833Y-29150400D01*
%TO.C,C2*%
X39661367Y-33730400D02*
X39368833Y-33730400D01*
X39661367Y-34750400D02*
X39368833Y-34750400D01*
%TO.C,C3*%
X39648867Y-31830400D02*
X39356333Y-31830400D01*
X39648867Y-32850400D02*
X39356333Y-32850400D01*
%TO.C,FB1*%
X35829664Y-30855400D02*
X35375536Y-30855400D01*
X35829664Y-32325400D02*
X35375536Y-32325400D01*
%TO.C,FB2*%
X35375536Y-34725400D02*
X35829664Y-34725400D01*
X35375536Y-33255400D02*
X35829664Y-33255400D01*
%TO.C,R1*%
X39744824Y-31012900D02*
X39235376Y-31012900D01*
X39744824Y-29967900D02*
X39235376Y-29967900D01*
%TO.C,J2*%
X52843142Y-26340400D02*
X52843142Y-34640400D01*
X51103142Y-26340400D02*
X52843142Y-26340400D01*
X47043142Y-34640400D02*
X48383142Y-34640400D01*
X47043142Y-27830400D02*
X45843142Y-27830400D01*
X47043142Y-27830400D02*
X47043142Y-26340400D01*
X47043142Y-33150400D02*
X47043142Y-34640400D01*
X47043142Y-26340400D02*
X48383142Y-26340400D01*
X52843142Y-34640400D02*
X51103142Y-34640400D01*
%TO.C,R2*%
X39744824Y-26317900D02*
X39235376Y-26317900D01*
X39744824Y-27362900D02*
X39235376Y-27362900D01*
%TO.C,J3*%
X30537600Y-26880400D02*
X30537600Y-27930400D01*
X28037600Y-34100400D02*
X30537600Y-34100400D01*
X26067600Y-32930400D02*
X26067600Y-28050400D01*
X30537600Y-34100400D02*
X30537600Y-33050400D01*
X28037600Y-26880400D02*
X30537600Y-26880400D01*
X30537600Y-33050400D02*
X31527600Y-33050400D01*
%TD*%
M02*
