%TF.GenerationSoftware,KiCad,Pcbnew,(5.1.10-1-10_14)*%
%TF.CreationDate,2021-08-16T11:19:27+07:00*%
%TF.ProjectId,sharp_memory_display,73686172-705f-46d6-956d-6f72795f6469,rev?*%
%TF.SameCoordinates,Original*%
%TF.FileFunction,Legend,Top*%
%TF.FilePolarity,Positive*%
%FSLAX46Y46*%
G04 Gerber Fmt 4.6, Leading zero omitted, Abs format (unit mm)*
G04 Created by KiCad (PCBNEW (5.1.10-1-10_14)) date 2021-08-16 11:19:27*
%MOMM*%
%LPD*%
G01*
G04 APERTURE LIST*
%ADD10C,0.120000*%
%ADD11C,0.150000*%
%ADD12C,0.125000*%
G04 APERTURE END LIST*
D10*
X55154308Y-26623722D02*
X55120975Y-26723722D01*
X55120975Y-26890389D01*
X55154308Y-26957055D01*
X55187642Y-26990389D01*
X55254308Y-27023722D01*
X55320975Y-27023722D01*
X55387642Y-26990389D01*
X55420975Y-26957055D01*
X55454308Y-26890389D01*
X55487642Y-26757055D01*
X55520975Y-26690389D01*
X55554308Y-26657055D01*
X55620975Y-26623722D01*
X55687642Y-26623722D01*
X55754308Y-26657055D01*
X55787642Y-26690389D01*
X55820975Y-26757055D01*
X55820975Y-26923722D01*
X55787642Y-27023722D01*
X55120975Y-27323722D02*
X55820975Y-27323722D01*
X55120975Y-27623722D02*
X55487642Y-27623722D01*
X55554308Y-27590389D01*
X55587642Y-27523722D01*
X55587642Y-27423722D01*
X55554308Y-27357055D01*
X55520975Y-27323722D01*
X55120975Y-28257055D02*
X55487642Y-28257055D01*
X55554308Y-28223722D01*
X55587642Y-28157055D01*
X55587642Y-28023722D01*
X55554308Y-27957055D01*
X55154308Y-28257055D02*
X55120975Y-28190389D01*
X55120975Y-28023722D01*
X55154308Y-27957055D01*
X55220975Y-27923722D01*
X55287642Y-27923722D01*
X55354308Y-27957055D01*
X55387642Y-28023722D01*
X55387642Y-28190389D01*
X55420975Y-28257055D01*
X55120975Y-28590389D02*
X55587642Y-28590389D01*
X55454308Y-28590389D02*
X55520975Y-28623722D01*
X55554308Y-28657055D01*
X55587642Y-28723722D01*
X55587642Y-28790389D01*
X55587642Y-29023722D02*
X54887642Y-29023722D01*
X55554308Y-29023722D02*
X55587642Y-29090389D01*
X55587642Y-29223722D01*
X55554308Y-29290389D01*
X55520975Y-29323722D01*
X55454308Y-29357055D01*
X55254308Y-29357055D01*
X55187642Y-29323722D01*
X55154308Y-29290389D01*
X55120975Y-29223722D01*
X55120975Y-29090389D01*
X55154308Y-29023722D01*
X55120975Y-30190389D02*
X55820975Y-30190389D01*
X55320975Y-30423722D01*
X55820975Y-30657055D01*
X55120975Y-30657055D01*
X55154308Y-31257055D02*
X55120975Y-31190389D01*
X55120975Y-31057055D01*
X55154308Y-30990389D01*
X55220975Y-30957055D01*
X55487642Y-30957055D01*
X55554308Y-30990389D01*
X55587642Y-31057055D01*
X55587642Y-31190389D01*
X55554308Y-31257055D01*
X55487642Y-31290389D01*
X55420975Y-31290389D01*
X55354308Y-30957055D01*
X55120975Y-31590389D02*
X55587642Y-31590389D01*
X55520975Y-31590389D02*
X55554308Y-31623722D01*
X55587642Y-31690389D01*
X55587642Y-31790389D01*
X55554308Y-31857055D01*
X55487642Y-31890389D01*
X55120975Y-31890389D01*
X55487642Y-31890389D02*
X55554308Y-31923722D01*
X55587642Y-31990389D01*
X55587642Y-32090389D01*
X55554308Y-32157055D01*
X55487642Y-32190389D01*
X55120975Y-32190389D01*
X55120975Y-32623722D02*
X55154308Y-32557055D01*
X55187642Y-32523722D01*
X55254308Y-32490389D01*
X55454308Y-32490389D01*
X55520975Y-32523722D01*
X55554308Y-32557055D01*
X55587642Y-32623722D01*
X55587642Y-32723722D01*
X55554308Y-32790389D01*
X55520975Y-32823722D01*
X55454308Y-32857055D01*
X55254308Y-32857055D01*
X55187642Y-32823722D01*
X55154308Y-32790389D01*
X55120975Y-32723722D01*
X55120975Y-32623722D01*
X55120975Y-33157055D02*
X55587642Y-33157055D01*
X55454308Y-33157055D02*
X55520975Y-33190389D01*
X55554308Y-33223722D01*
X55587642Y-33290389D01*
X55587642Y-33357055D01*
X55587642Y-33523722D02*
X55120975Y-33690389D01*
X55587642Y-33857055D02*
X55120975Y-33690389D01*
X54954308Y-33623722D01*
X54920975Y-33590389D01*
X54887642Y-33523722D01*
X53950975Y-26207055D02*
X54650975Y-26207055D01*
X54650975Y-26373722D01*
X54617642Y-26473722D01*
X54550975Y-26540389D01*
X54484308Y-26573722D01*
X54350975Y-26607055D01*
X54250975Y-26607055D01*
X54117642Y-26573722D01*
X54050975Y-26540389D01*
X53984308Y-26473722D01*
X53950975Y-26373722D01*
X53950975Y-26207055D01*
X53950975Y-26907055D02*
X54417642Y-26907055D01*
X54650975Y-26907055D02*
X54617642Y-26873722D01*
X54584308Y-26907055D01*
X54617642Y-26940389D01*
X54650975Y-26907055D01*
X54584308Y-26907055D01*
X53984308Y-27207055D02*
X53950975Y-27273722D01*
X53950975Y-27407055D01*
X53984308Y-27473722D01*
X54050975Y-27507055D01*
X54084308Y-27507055D01*
X54150975Y-27473722D01*
X54184308Y-27407055D01*
X54184308Y-27307055D01*
X54217642Y-27240389D01*
X54284308Y-27207055D01*
X54317642Y-27207055D01*
X54384308Y-27240389D01*
X54417642Y-27307055D01*
X54417642Y-27407055D01*
X54384308Y-27473722D01*
X54417642Y-27807055D02*
X53717642Y-27807055D01*
X54384308Y-27807055D02*
X54417642Y-27873722D01*
X54417642Y-28007055D01*
X54384308Y-28073722D01*
X54350975Y-28107055D01*
X54284308Y-28140389D01*
X54084308Y-28140389D01*
X54017642Y-28107055D01*
X53984308Y-28073722D01*
X53950975Y-28007055D01*
X53950975Y-27873722D01*
X53984308Y-27807055D01*
X53950975Y-28540389D02*
X53984308Y-28473722D01*
X54050975Y-28440389D01*
X54650975Y-28440389D01*
X53950975Y-29107055D02*
X54317642Y-29107055D01*
X54384308Y-29073722D01*
X54417642Y-29007055D01*
X54417642Y-28873722D01*
X54384308Y-28807055D01*
X53984308Y-29107055D02*
X53950975Y-29040389D01*
X53950975Y-28873722D01*
X53984308Y-28807055D01*
X54050975Y-28773722D01*
X54117642Y-28773722D01*
X54184308Y-28807055D01*
X54217642Y-28873722D01*
X54217642Y-29040389D01*
X54250975Y-29107055D01*
X54417642Y-29373722D02*
X53950975Y-29540389D01*
X54417642Y-29707055D02*
X53950975Y-29540389D01*
X53784308Y-29473722D01*
X53750975Y-29440389D01*
X53717642Y-29373722D01*
X54317642Y-30740389D02*
X54284308Y-30840389D01*
X54250975Y-30873722D01*
X54184308Y-30907055D01*
X54084308Y-30907055D01*
X54017642Y-30873722D01*
X53984308Y-30840389D01*
X53950975Y-30773722D01*
X53950975Y-30507055D01*
X54650975Y-30507055D01*
X54650975Y-30740389D01*
X54617642Y-30807055D01*
X54584308Y-30840389D01*
X54517642Y-30873722D01*
X54450975Y-30873722D01*
X54384308Y-30840389D01*
X54350975Y-30807055D01*
X54317642Y-30740389D01*
X54317642Y-30507055D01*
X53950975Y-31207055D02*
X54417642Y-31207055D01*
X54284308Y-31207055D02*
X54350975Y-31240389D01*
X54384308Y-31273722D01*
X54417642Y-31340389D01*
X54417642Y-31407055D01*
X53984308Y-31907055D02*
X53950975Y-31840389D01*
X53950975Y-31707055D01*
X53984308Y-31640389D01*
X54050975Y-31607055D01*
X54317642Y-31607055D01*
X54384308Y-31640389D01*
X54417642Y-31707055D01*
X54417642Y-31840389D01*
X54384308Y-31907055D01*
X54317642Y-31940389D01*
X54250975Y-31940389D01*
X54184308Y-31607055D01*
X53950975Y-32540389D02*
X54317642Y-32540389D01*
X54384308Y-32507055D01*
X54417642Y-32440389D01*
X54417642Y-32307055D01*
X54384308Y-32240389D01*
X53984308Y-32540389D02*
X53950975Y-32473722D01*
X53950975Y-32307055D01*
X53984308Y-32240389D01*
X54050975Y-32207055D01*
X54117642Y-32207055D01*
X54184308Y-32240389D01*
X54217642Y-32307055D01*
X54217642Y-32473722D01*
X54250975Y-32540389D01*
X53950975Y-32873722D02*
X54650975Y-32873722D01*
X54217642Y-32940389D02*
X53950975Y-33140389D01*
X54417642Y-33140389D02*
X54150975Y-32873722D01*
X53950975Y-33540389D02*
X53984308Y-33473722D01*
X54017642Y-33440389D01*
X54084308Y-33407055D01*
X54284308Y-33407055D01*
X54350975Y-33440389D01*
X54384308Y-33473722D01*
X54417642Y-33540389D01*
X54417642Y-33640389D01*
X54384308Y-33707055D01*
X54350975Y-33740389D01*
X54284308Y-33773722D01*
X54084308Y-33773722D01*
X54017642Y-33740389D01*
X53984308Y-33707055D01*
X53950975Y-33640389D01*
X53950975Y-33540389D01*
X54417642Y-34373722D02*
X53950975Y-34373722D01*
X54417642Y-34073722D02*
X54050975Y-34073722D01*
X53984308Y-34107055D01*
X53950975Y-34173722D01*
X53950975Y-34273722D01*
X53984308Y-34340389D01*
X54017642Y-34373722D01*
X54417642Y-34607055D02*
X54417642Y-34873722D01*
X54650975Y-34707055D02*
X54050975Y-34707055D01*
X53984308Y-34740389D01*
X53950975Y-34807055D01*
X53950975Y-34873722D01*
D11*
X32052641Y-31218960D02*
X31338356Y-31218960D01*
X31338356Y-29718960D01*
X32481213Y-31147531D02*
X32695499Y-31218960D01*
X33052642Y-31218960D01*
X33195499Y-31147531D01*
X33266927Y-31076103D01*
X33338356Y-30933246D01*
X33338356Y-30790389D01*
X33266927Y-30647531D01*
X33195499Y-30576103D01*
X33052642Y-30504674D01*
X32766927Y-30433246D01*
X32624070Y-30361817D01*
X32552642Y-30290389D01*
X32481213Y-30147531D01*
X32481213Y-30004674D01*
X32552642Y-29861817D01*
X32624070Y-29790389D01*
X32766927Y-29718960D01*
X33124070Y-29718960D01*
X33338356Y-29790389D01*
X34266927Y-29718960D02*
X34409784Y-29718960D01*
X34552642Y-29790389D01*
X34624070Y-29861817D01*
X34695499Y-30004674D01*
X34766927Y-30290389D01*
X34766927Y-30647531D01*
X34695499Y-30933246D01*
X34624070Y-31076103D01*
X34552642Y-31147531D01*
X34409784Y-31218960D01*
X34266927Y-31218960D01*
X34124070Y-31147531D01*
X34052642Y-31076103D01*
X33981213Y-30933246D01*
X33909784Y-30647531D01*
X33909784Y-30290389D01*
X33981213Y-30004674D01*
X34052642Y-29861817D01*
X34124070Y-29790389D01*
X34266927Y-29718960D01*
X36195499Y-31218960D02*
X35338356Y-31218960D01*
X35766927Y-31218960D02*
X35766927Y-29718960D01*
X35624070Y-29933246D01*
X35481213Y-30076103D01*
X35338356Y-30147531D01*
X37624070Y-31218960D02*
X36766927Y-31218960D01*
X37195499Y-31218960D02*
X37195499Y-29718960D01*
X37052642Y-29933246D01*
X36909784Y-30076103D01*
X36766927Y-30147531D01*
X38766927Y-30433246D02*
X38981213Y-30504674D01*
X39052642Y-30576103D01*
X39124070Y-30718960D01*
X39124070Y-30933246D01*
X39052642Y-31076103D01*
X38981213Y-31147531D01*
X38838356Y-31218960D01*
X38266927Y-31218960D01*
X38266927Y-29718960D01*
X38766927Y-29718960D01*
X38909784Y-29790389D01*
X38981213Y-29861817D01*
X39052642Y-30004674D01*
X39052642Y-30147531D01*
X38981213Y-30290389D01*
X38909784Y-30361817D01*
X38766927Y-30433246D01*
X38266927Y-30433246D01*
X39624070Y-29718960D02*
X40624070Y-29718960D01*
X39981213Y-31218960D01*
X41195499Y-31218960D02*
X41195499Y-29718960D01*
X41552642Y-29718960D01*
X41766927Y-29790389D01*
X41909784Y-29933246D01*
X41981213Y-30076103D01*
X42052642Y-30361817D01*
X42052642Y-30576103D01*
X41981213Y-30861817D01*
X41909784Y-31004674D01*
X41766927Y-31147531D01*
X41552642Y-31218960D01*
X41195499Y-31218960D01*
X42695499Y-31218960D02*
X42695499Y-29718960D01*
X42695499Y-30433246D02*
X43552642Y-30433246D01*
X43552642Y-31218960D02*
X43552642Y-29718960D01*
X44552642Y-29718960D02*
X44695499Y-29718960D01*
X44838356Y-29790389D01*
X44909784Y-29861817D01*
X44981213Y-30004674D01*
X45052642Y-30290389D01*
X45052642Y-30647531D01*
X44981213Y-30933246D01*
X44909784Y-31076103D01*
X44838356Y-31147531D01*
X44695499Y-31218960D01*
X44552642Y-31218960D01*
X44409784Y-31147531D01*
X44338356Y-31076103D01*
X44266927Y-30933246D01*
X44195499Y-30647531D01*
X44195499Y-30290389D01*
X44266927Y-30004674D01*
X44338356Y-29861817D01*
X44409784Y-29790389D01*
X44552642Y-29718960D01*
X45552642Y-29718960D02*
X46481213Y-29718960D01*
X45981213Y-30290389D01*
X46195499Y-30290389D01*
X46338356Y-30361817D01*
X46409784Y-30433246D01*
X46481213Y-30576103D01*
X46481213Y-30933246D01*
X46409784Y-31076103D01*
X46338356Y-31147531D01*
X46195499Y-31218960D01*
X45766927Y-31218960D01*
X45624070Y-31147531D01*
X45552642Y-31076103D01*
D10*
X52652642Y-35840389D02*
X52652642Y-25140389D01*
X27402642Y-35840389D02*
X52652642Y-35840389D01*
X27402642Y-25140389D02*
X27402642Y-35840389D01*
X52652642Y-25140389D02*
X27402642Y-25140389D01*
D12*
X26252642Y-25073722D02*
X26219308Y-25040389D01*
X26185975Y-24940389D01*
X26185975Y-24873722D01*
X26219308Y-24773722D01*
X26285975Y-24707055D01*
X26352642Y-24673722D01*
X26485975Y-24640389D01*
X26585975Y-24640389D01*
X26719308Y-24673722D01*
X26785975Y-24707055D01*
X26852642Y-24773722D01*
X26885975Y-24873722D01*
X26885975Y-24940389D01*
X26852642Y-25040389D01*
X26819308Y-25073722D01*
X26185975Y-25707055D02*
X26185975Y-25373722D01*
X26885975Y-25373722D01*
X26185975Y-25940389D02*
X26885975Y-25940389D01*
X26185975Y-26340389D02*
X26585975Y-26040389D01*
X26885975Y-26340389D02*
X26485975Y-25940389D01*
X26135975Y-27640389D02*
X26835975Y-27640389D01*
X26835975Y-27807055D01*
X26802642Y-27907055D01*
X26735975Y-27973722D01*
X26669308Y-28007055D01*
X26535975Y-28040389D01*
X26435975Y-28040389D01*
X26302642Y-28007055D01*
X26235975Y-27973722D01*
X26169308Y-27907055D01*
X26135975Y-27807055D01*
X26135975Y-27640389D01*
X26135975Y-28340389D02*
X26835975Y-28340389D01*
X26202642Y-30273722D02*
X26169308Y-30240389D01*
X26135975Y-30140389D01*
X26135975Y-30073722D01*
X26169308Y-29973722D01*
X26235975Y-29907055D01*
X26302642Y-29873722D01*
X26435975Y-29840389D01*
X26535975Y-29840389D01*
X26669308Y-29873722D01*
X26735975Y-29907055D01*
X26802642Y-29973722D01*
X26835975Y-30073722D01*
X26835975Y-30140389D01*
X26802642Y-30240389D01*
X26769308Y-30273722D01*
X26169308Y-30540389D02*
X26135975Y-30640389D01*
X26135975Y-30807055D01*
X26169308Y-30873722D01*
X26202642Y-30907055D01*
X26269308Y-30940389D01*
X26335975Y-30940389D01*
X26402642Y-30907055D01*
X26435975Y-30873722D01*
X26469308Y-30807055D01*
X26502642Y-30673722D01*
X26535975Y-30607055D01*
X26569308Y-30573722D01*
X26635975Y-30540389D01*
X26702642Y-30540389D01*
X26769308Y-30573722D01*
X26802642Y-30607055D01*
X26835975Y-30673722D01*
X26835975Y-30840389D01*
X26802642Y-30940389D01*
X26785975Y-31990389D02*
X26785975Y-32423722D01*
X26519308Y-32190389D01*
X26519308Y-32290389D01*
X26485975Y-32357055D01*
X26452642Y-32390389D01*
X26385975Y-32423722D01*
X26219308Y-32423722D01*
X26152642Y-32390389D01*
X26119308Y-32357055D01*
X26085975Y-32290389D01*
X26085975Y-32090389D01*
X26119308Y-32023722D01*
X26152642Y-31990389D01*
X26152642Y-32723722D02*
X26119308Y-32757055D01*
X26085975Y-32723722D01*
X26119308Y-32690389D01*
X26152642Y-32723722D01*
X26085975Y-32723722D01*
X26785975Y-32990389D02*
X26785975Y-33423722D01*
X26519308Y-33190389D01*
X26519308Y-33290389D01*
X26485975Y-33357055D01*
X26452642Y-33390389D01*
X26385975Y-33423722D01*
X26219308Y-33423722D01*
X26152642Y-33390389D01*
X26119308Y-33357055D01*
X26085975Y-33290389D01*
X26085975Y-33090389D01*
X26119308Y-33023722D01*
X26152642Y-32990389D01*
X26552642Y-33657055D02*
X26085975Y-33823722D01*
X26552642Y-33990389D01*
X26752642Y-35207055D02*
X26785975Y-35140389D01*
X26785975Y-35040389D01*
X26752642Y-34940389D01*
X26685975Y-34873722D01*
X26619308Y-34840389D01*
X26485975Y-34807055D01*
X26385975Y-34807055D01*
X26252642Y-34840389D01*
X26185975Y-34873722D01*
X26119308Y-34940389D01*
X26085975Y-35040389D01*
X26085975Y-35107055D01*
X26119308Y-35207055D01*
X26152642Y-35240389D01*
X26385975Y-35240389D01*
X26385975Y-35107055D01*
X26085975Y-35540389D02*
X26785975Y-35540389D01*
X26085975Y-35940389D01*
X26785975Y-35940389D01*
X26085975Y-36273722D02*
X26785975Y-36273722D01*
X26785975Y-36440389D01*
X26752642Y-36540389D01*
X26685975Y-36607055D01*
X26619308Y-36640389D01*
X26485975Y-36673722D01*
X26385975Y-36673722D01*
X26252642Y-36640389D01*
X26185975Y-36607055D01*
X26119308Y-36540389D01*
X26085975Y-36440389D01*
X26085975Y-36273722D01*
D10*
%TO.C,J1*%
X25582600Y-34300400D02*
X22922600Y-34300400D01*
X25582600Y-34300400D02*
X25582600Y-24080400D01*
X25582600Y-24080400D02*
X22922600Y-24080400D01*
X22922600Y-34300400D02*
X22922600Y-24080400D01*
X22922600Y-36900400D02*
X22922600Y-35570400D01*
X24252600Y-36900400D02*
X22922600Y-36900400D01*
%TO.C,H4*%
D11*
X53990737Y-19042769D02*
X53990737Y-18042769D01*
X53990737Y-18518960D02*
X54562165Y-18518960D01*
X54562165Y-19042769D02*
X54562165Y-18042769D01*
X55466927Y-18376103D02*
X55466927Y-19042769D01*
X55228832Y-17995150D02*
X54990737Y-18709436D01*
X55609784Y-18709436D01*
%TO.C,H3*%
X22305022Y-40252293D02*
X21305022Y-40252293D01*
X21781213Y-40252293D02*
X21781213Y-39680865D01*
X22305022Y-39680865D02*
X21305022Y-39680865D01*
X21305022Y-39299912D02*
X21305022Y-38680865D01*
X21685975Y-39014198D01*
X21685975Y-38871341D01*
X21733594Y-38776103D01*
X21781213Y-38728484D01*
X21876451Y-38680865D01*
X22114546Y-38680865D01*
X22209784Y-38728484D01*
X22257403Y-38776103D01*
X22305022Y-38871341D01*
X22305022Y-39157055D01*
X22257403Y-39252293D01*
X22209784Y-39299912D01*
%TO.C,H2*%
X23990737Y-19042769D02*
X23990737Y-18042769D01*
X23990737Y-18518960D02*
X24562165Y-18518960D01*
X24562165Y-19042769D02*
X24562165Y-18042769D01*
X24990737Y-18138008D02*
X25038356Y-18090389D01*
X25133594Y-18042769D01*
X25371689Y-18042769D01*
X25466927Y-18090389D01*
X25514546Y-18138008D01*
X25562165Y-18233246D01*
X25562165Y-18328484D01*
X25514546Y-18471341D01*
X24943118Y-19042769D01*
X25562165Y-19042769D01*
%TO.C,H1*%
X53990737Y-37042769D02*
X53990737Y-36042769D01*
X53990737Y-36518960D02*
X54562165Y-36518960D01*
X54562165Y-37042769D02*
X54562165Y-36042769D01*
X55562165Y-37042769D02*
X54990737Y-37042769D01*
X55276451Y-37042769D02*
X55276451Y-36042769D01*
X55181213Y-36185627D01*
X55085975Y-36280865D01*
X54990737Y-36328484D01*
%TD*%
M02*
