M48
; DRILL file {KiCad (5.99.0-11678-ga208dac8d8)} date Thursday, August 19, 2021 at 02:25:39 PM
; FORMAT={-:-/ absolute / metric / decimal}
; #@! TF.CreationDate,2021-08-19T14:25:39+07:00
; #@! TF.GenerationSoftware,Kicad,Pcbnew,(5.99.0-11678-ga208dac8d8)
; #@! TF.FileFunction,MixedPlating,1,2
FMAT,2
METRIC
; #@! TA.AperFunction,Plated,PTH,ViaDrill
T1C0.400
; #@! TA.AperFunction,Plated,PTH,ComponentDrill
T2C1.000
; #@! TA.AperFunction,Plated,PTH,ComponentDrill
T3C2.200
; #@! TA.AperFunction,NonPlated,NPTH,ComponentDrill
T4C0.787
%
G90
G05
T1
X39.437Y-31.362
X39.591Y-29.618
X42.849Y-31.768
X45.803Y-28.765
X45.953Y-31.315
T2
X24.253Y-25.41
X24.253Y-27.95
X24.253Y-30.49
X24.253Y-33.03
X24.253Y-35.57
T3
X24.753Y-21.49
X24.753Y-39.49
X54.753Y-21.49
X54.753Y-39.49
T4
X23.483Y-23.29
X23.483Y-37.69
X24.753Y-23.29
X24.753Y-37.69
X26.023Y-23.29
X26.023Y-37.69
X53.483Y-23.29
X53.483Y-37.69
X54.753Y-23.29
X54.753Y-37.69
X56.023Y-23.29
X56.023Y-37.69
T0
M30
