%TF.GenerationSoftware,KiCad,Pcbnew,(5.99.0-11678-ga208dac8d8)*%
%TF.CreationDate,2021-08-19T14:25:43+07:00*%
%TF.ProjectId,sharp_memory_display,73686172-705f-46d6-956d-6f72795f6469,rev?*%
%TF.SameCoordinates,Original*%
%TF.FileFunction,Soldermask,Bot*%
%TF.FilePolarity,Negative*%
%FSLAX46Y46*%
G04 Gerber Fmt 4.6, Leading zero omitted, Abs format (unit mm)*
G04 Created by KiCad (PCBNEW (5.99.0-11678-ga208dac8d8)) date 2021-08-19 14:25:43*
%MOMM*%
%LPD*%
G01*
G04 APERTURE LIST*
G04 Aperture macros list*
%AMRoundRect*
0 Rectangle with rounded corners*
0 $1 Rounding radius*
0 $2 $3 $4 $5 $6 $7 $8 $9 X,Y pos of 4 corners*
0 Add a 4 corners polygon primitive as box body*
4,1,4,$2,$3,$4,$5,$6,$7,$8,$9,$2,$3,0*
0 Add four circle primitives for the rounded corners*
1,1,$1+$1,$2,$3*
1,1,$1+$1,$4,$5*
1,1,$1+$1,$6,$7*
1,1,$1+$1,$8,$9*
0 Add four rect primitives between the rounded corners*
20,1,$1+$1,$2,$3,$4,$5,0*
20,1,$1+$1,$4,$5,$6,$7,0*
20,1,$1+$1,$6,$7,$8,$9,0*
20,1,$1+$1,$8,$9,$2,$3,0*%
G04 Aperture macros list end*
%ADD10C,0.787400*%
%ADD11C,3.800000*%
%ADD12RoundRect,0.249999X0.650001X-0.350001X0.650001X0.350001X-0.650001X0.350001X-0.650001X-0.350001X0*%
%ADD13RoundRect,0.150000X0.625000X-0.150000X0.625000X0.150000X-0.625000X0.150000X-0.625000X-0.150000X0*%
%ADD14RoundRect,0.249999X-0.350001X-0.450001X0.350001X-0.450001X0.350001X0.450001X-0.350001X0.450001X0*%
%ADD15RoundRect,0.249999X0.350001X0.450001X-0.350001X0.450001X-0.350001X-0.450001X0.350001X-0.450001X0*%
%ADD16R,1.300000X0.300000*%
%ADD17R,2.200000X1.800000*%
%ADD18RoundRect,0.237500X0.250000X0.237500X-0.250000X0.237500X-0.250000X-0.237500X0.250000X-0.237500X0*%
%ADD19O,1.700000X1.700000*%
%ADD20R,1.700000X1.700000*%
%ADD21RoundRect,0.237500X0.300000X0.237500X-0.300000X0.237500X-0.300000X-0.237500X0.300000X-0.237500X0*%
G04 APERTURE END LIST*
D10*
%TO.C,REF\u002A\u002A*%
X26022642Y-37690389D03*
X24752642Y-37690389D03*
X23482642Y-37690389D03*
%TD*%
%TO.C,REF\u002A\u002A*%
X23482642Y-23290389D03*
X24752642Y-23290389D03*
X26022642Y-23290389D03*
%TD*%
%TO.C,REF\u002A\u002A*%
X56022642Y-37690389D03*
X54752642Y-37690389D03*
X53482642Y-37690389D03*
%TD*%
%TO.C,REF\u002A\u002A*%
X56022642Y-23290389D03*
X54752642Y-23290389D03*
X53482642Y-23290389D03*
%TD*%
D11*
%TO.C,H4*%
X54752642Y-21490389D03*
%TD*%
%TO.C,H3*%
X24752642Y-39490389D03*
%TD*%
%TO.C,H2*%
X24752642Y-21490389D03*
%TD*%
%TO.C,H1*%
X54752642Y-39490389D03*
%TD*%
D12*
%TO.C,J3*%
X26877600Y-27190400D03*
X26877600Y-33790400D03*
D13*
X30752600Y-28490400D03*
X30752600Y-29490400D03*
X30752600Y-30490400D03*
X30752600Y-31490400D03*
X30752600Y-32490400D03*
%TD*%
D14*
%TO.C,FB2*%
X36602600Y-33990400D03*
X34602600Y-33990400D03*
%TD*%
D15*
%TO.C,FB1*%
X34602600Y-31590400D03*
X36602600Y-31590400D03*
%TD*%
D16*
%TO.C,J2*%
X44330600Y-32740400D03*
X44330600Y-32240400D03*
X44330600Y-31740400D03*
X44330600Y-31240400D03*
X44330600Y-30740400D03*
X44330600Y-30240400D03*
X44330600Y-29740400D03*
X44330600Y-29240400D03*
X44330600Y-28740400D03*
X44330600Y-28240400D03*
D17*
X47580600Y-26340400D03*
X47580600Y-34640400D03*
%TD*%
D18*
%TO.C,R2*%
X38577600Y-26840400D03*
X40402600Y-26840400D03*
%TD*%
%TO.C,R1*%
X38577600Y-30490400D03*
X40402600Y-30490400D03*
%TD*%
D19*
%TO.C,J1*%
X24252600Y-25410400D03*
X24252600Y-27950400D03*
X24252600Y-30490400D03*
X24252600Y-33030400D03*
D20*
X24252600Y-35570400D03*
%TD*%
D21*
%TO.C,C3*%
X38640100Y-32340400D03*
X40365100Y-32340400D03*
%TD*%
%TO.C,C2*%
X38652600Y-34240400D03*
X40377600Y-34240400D03*
%TD*%
%TO.C,C1*%
X38627600Y-28640400D03*
X40352600Y-28640400D03*
%TD*%
M02*
