%TF.GenerationSoftware,KiCad,Pcbnew,(5.99.0-11678-ga208dac8d8)*%
%TF.CreationDate,2021-09-17T02:16:07+07:00*%
%TF.ProjectId,sharp_memory_display,73686172-705f-46d6-956d-6f72795f6469,rev?*%
%TF.SameCoordinates,Original*%
%TF.FileFunction,Copper,L1,Top*%
%TF.FilePolarity,Positive*%
%FSLAX46Y46*%
G04 Gerber Fmt 4.6, Leading zero omitted, Abs format (unit mm)*
G04 Created by KiCad (PCBNEW (5.99.0-11678-ga208dac8d8)) date 2021-09-17 02:16:07*
%MOMM*%
%LPD*%
G01*
G04 APERTURE LIST*
%TA.AperFunction,SMDPad,CuDef*%
%ADD10R,5.000000X0.300000*%
%TD*%
%TA.AperFunction,ComponentPad*%
%ADD11R,1.700000X1.700000*%
%TD*%
%TA.AperFunction,ComponentPad*%
%ADD12O,1.700000X1.700000*%
%TD*%
%TA.AperFunction,ComponentPad*%
%ADD13C,3.800000*%
%TD*%
%TA.AperFunction,ViaPad*%
%ADD14C,0.800000*%
%TD*%
%TA.AperFunction,Conductor*%
%ADD15C,0.250000*%
%TD*%
G04 APERTURE END LIST*
D10*
%TO.P,J4,1,Pin_1*%
%TO.N,VSSA*%
X52202642Y-32740389D03*
%TO.P,J4,2,Pin_2*%
%TO.N,VSS*%
X52202642Y-32240389D03*
%TO.P,J4,3,Pin_3*%
%TO.N,EXTMODE*%
X52202642Y-31740389D03*
%TO.P,J4,4,Pin_4*%
%TO.N,VDD*%
X52202642Y-31240389D03*
%TO.P,J4,5,Pin_5*%
%TO.N,VDDA*%
X52202642Y-30740389D03*
%TO.P,J4,6,Pin_6*%
%TO.N,DISP*%
X52202642Y-30240389D03*
%TO.P,J4,7,Pin_7*%
%TO.N,EXTCOMIN*%
X52202642Y-29740389D03*
%TO.P,J4,8,Pin_8*%
%TO.N,SCS*%
X52202642Y-29240389D03*
%TO.P,J4,9,Pin_9*%
%TO.N,SI*%
X52202642Y-28740389D03*
%TO.P,J4,10,Pin_10*%
%TO.N,SCLK*%
X52202642Y-28240389D03*
%TD*%
D11*
%TO.P,J1,1,Pin_1*%
%TO.N,VSS*%
X24252600Y-35570400D03*
D12*
%TO.P,J1,2,Pin_2*%
%TO.N,VDD*%
X24252600Y-33030400D03*
%TO.P,J1,3,Pin_3*%
%TO.N,SCS*%
X24252600Y-30490400D03*
%TO.P,J1,4,Pin_4*%
%TO.N,SI*%
X24252600Y-27950400D03*
%TO.P,J1,5,Pin_5*%
%TO.N,SCLK*%
X24252600Y-25410400D03*
%TD*%
D13*
%TO.P,H2,1*%
%TO.N,N/C*%
X24752642Y-21490389D03*
%TD*%
%TO.P,H4,1*%
%TO.N,N/C*%
X54752642Y-21490389D03*
%TD*%
%TO.P,H3,1*%
%TO.N,N/C*%
X24752642Y-39490389D03*
%TD*%
%TO.P,H1,1*%
%TO.N,N/C*%
X54752642Y-39490389D03*
%TD*%
D14*
%TO.N,VSSA*%
X37752642Y-34090389D03*
%TO.N,VSS*%
X48752642Y-32739400D03*
%TO.N,EXTMODE*%
X55952642Y-32090389D03*
%TO.N,VDDA*%
X55952642Y-30890389D03*
%TO.N,DISP*%
X55952642Y-29890389D03*
%TO.N,EXTCOMIN*%
X41752642Y-28674900D03*
%TO.N,SCS*%
X48152642Y-29464900D03*
%TO.N,SCLK*%
X52352642Y-27690389D03*
%TO.N,SI*%
X48952642Y-28490389D03*
%TO.N,VDD*%
X48752642Y-31290389D03*
X39437200Y-31362500D03*
%TO.N,EXTMODE*%
X42849500Y-31768500D03*
X39591300Y-29618300D03*
%TD*%
D15*
%TO.N,SCS*%
X52202642Y-29240389D02*
X49427256Y-29240389D01*
X49427256Y-29240389D02*
X49202745Y-29464900D01*
%TO.N,SI*%
X48952642Y-28490389D02*
X49002642Y-28740389D01*
X49002642Y-28740389D02*
X52202642Y-28740389D01*
X48212653Y-27950400D02*
X24252600Y-27950400D01*
X48952642Y-28490389D02*
X48212653Y-27950400D01*
%TO.N,EXTMODE*%
X52202642Y-31740389D02*
X55602642Y-31740389D01*
X55602642Y-31740389D02*
X55952642Y-32090389D01*
%TO.N,VSSA*%
X37752642Y-34090389D02*
X50852642Y-34090389D01*
X50852642Y-34090389D02*
X52202642Y-32740389D01*
%TO.N,VSS*%
X49251653Y-32240389D02*
X48752642Y-32739400D01*
X52202642Y-32240389D02*
X49251653Y-32240389D01*
%TO.N,VDD*%
X52202642Y-31240389D02*
X48802642Y-31240389D01*
X48802642Y-31240389D02*
X48752642Y-31290389D01*
%TO.N,VDDA*%
X52202642Y-30740389D02*
X55802642Y-30740389D01*
X55802642Y-30740389D02*
X55952642Y-30890389D01*
%TO.N,DISP*%
X55184002Y-30240389D02*
X55602642Y-30240389D01*
X55602642Y-30240389D02*
X55952642Y-29890389D01*
X55201458Y-30257845D02*
X55184002Y-30240389D01*
X55184002Y-30240389D02*
X52202642Y-30240389D01*
%TO.N,EXTCOMIN*%
X49113952Y-30189411D02*
X43267153Y-30189411D01*
X43267153Y-30189411D02*
X41752642Y-28674900D01*
X49562974Y-29740389D02*
X49113952Y-30189411D01*
X52202642Y-29740389D02*
X49562974Y-29740389D01*
%TO.N,SCS*%
X48152642Y-29464900D02*
X49202745Y-29464900D01*
%TO.N,SCLK*%
X52352642Y-27690389D02*
X52352642Y-28090389D01*
X52352642Y-28090389D02*
X52202642Y-28240389D01*
%TO.N,VDD*%
X41323387Y-31315389D02*
X39484311Y-31315389D01*
X48752642Y-31290389D02*
X46949530Y-32493501D01*
X46949530Y-32493501D02*
X42501499Y-32493501D01*
X42501499Y-32493501D02*
X41323387Y-31315389D01*
X39484311Y-31315389D02*
X39437200Y-31362500D01*
X39437200Y-31362500D02*
X25920500Y-31362500D01*
X25920500Y-31362500D02*
X24252600Y-33030400D01*
%TO.N,EXTMODE*%
X40699300Y-29618300D02*
X42849500Y-31768500D01*
X39591300Y-29618300D02*
X40699300Y-29618300D01*
%TD*%
%TA.AperFunction,Conductor*%
%TO.N,VSS*%
G36*
X41076913Y-31968891D02*
G01*
X41097888Y-31985794D01*
X41553970Y-32441877D01*
X41997852Y-32885759D01*
X42005386Y-32894038D01*
X42009499Y-32900519D01*
X42053587Y-32941920D01*
X42059150Y-32947144D01*
X42061992Y-32949899D01*
X42081729Y-32969636D01*
X42084926Y-32972116D01*
X42093946Y-32979819D01*
X42126178Y-33010087D01*
X42133124Y-33013906D01*
X42133127Y-33013908D01*
X42143933Y-33019849D01*
X42160452Y-33030700D01*
X42176458Y-33043115D01*
X42183727Y-33046260D01*
X42183731Y-33046263D01*
X42217036Y-33060675D01*
X42227686Y-33065892D01*
X42266439Y-33087196D01*
X42274114Y-33089167D01*
X42274115Y-33089167D01*
X42286061Y-33092234D01*
X42304766Y-33098638D01*
X42323354Y-33106682D01*
X42331177Y-33107921D01*
X42331187Y-33107924D01*
X42367023Y-33113600D01*
X42378643Y-33116006D01*
X42408187Y-33123591D01*
X42421469Y-33127001D01*
X42441723Y-33127001D01*
X42461433Y-33128552D01*
X42481442Y-33131721D01*
X42489334Y-33130975D01*
X42500762Y-33129895D01*
X42525461Y-33127560D01*
X42537318Y-33127001D01*
X46886507Y-33127001D01*
X46907274Y-33128724D01*
X46924048Y-33131527D01*
X46931948Y-33130848D01*
X46931949Y-33130848D01*
X46971318Y-33127464D01*
X46982108Y-33127001D01*
X46989386Y-33127001D01*
X46993310Y-33126505D01*
X46993315Y-33126505D01*
X47004996Y-33125029D01*
X47013891Y-33123905D01*
X47018868Y-33123377D01*
X47052445Y-33120491D01*
X47075622Y-33118499D01*
X47075623Y-33118499D01*
X47083520Y-33117820D01*
X47091002Y-33115198D01*
X47095723Y-33114185D01*
X47100459Y-33112969D01*
X47108327Y-33111975D01*
X47115695Y-33109058D01*
X47115698Y-33109057D01*
X47168628Y-33088100D01*
X47173340Y-33086343D01*
X47227084Y-33067508D01*
X47227086Y-33067507D01*
X47234571Y-33064884D01*
X47241167Y-33060483D01*
X47245504Y-33058319D01*
X47249773Y-33055972D01*
X47257147Y-33053053D01*
X47270826Y-33043115D01*
X47288326Y-33030400D01*
X47309636Y-33014917D01*
X47313758Y-33012047D01*
X48518393Y-32208264D01*
X48586159Y-32187093D01*
X48614524Y-32189828D01*
X48650691Y-32197516D01*
X48650700Y-32197517D01*
X48657155Y-32198889D01*
X48848129Y-32198889D01*
X48854581Y-32197517D01*
X48854586Y-32197517D01*
X48942710Y-32178785D01*
X49034930Y-32159183D01*
X49040957Y-32156500D01*
X49040965Y-32156497D01*
X49118318Y-32122057D01*
X49188685Y-32112623D01*
X49252982Y-32142730D01*
X49270392Y-32161599D01*
X49272809Y-32164824D01*
X49297657Y-32231330D01*
X49282604Y-32300713D01*
X49272810Y-32315953D01*
X49252028Y-32343683D01*
X49251739Y-32343467D01*
X49205577Y-32389528D01*
X49200224Y-32391742D01*
X49196314Y-32396254D01*
X49194643Y-32403937D01*
X49194643Y-32435059D01*
X49195012Y-32441877D01*
X49198551Y-32474456D01*
X49198551Y-32501669D01*
X49194142Y-32542255D01*
X49194142Y-32938523D01*
X49200897Y-33000705D01*
X49252027Y-33137094D01*
X49314329Y-33220223D01*
X49339381Y-33253650D01*
X49336839Y-33255555D01*
X49363350Y-33304106D01*
X49358285Y-33374921D01*
X49315738Y-33431757D01*
X49249218Y-33456568D01*
X49240229Y-33456889D01*
X38460842Y-33456889D01*
X38392721Y-33436887D01*
X38373495Y-33420546D01*
X38373222Y-33420849D01*
X38368310Y-33416426D01*
X38363895Y-33411523D01*
X38209394Y-33299271D01*
X38203366Y-33296587D01*
X38203364Y-33296586D01*
X38040961Y-33224280D01*
X38040960Y-33224280D01*
X38034930Y-33221595D01*
X37941529Y-33201742D01*
X37854586Y-33183261D01*
X37854581Y-33183261D01*
X37848129Y-33181889D01*
X37657155Y-33181889D01*
X37650703Y-33183261D01*
X37650698Y-33183261D01*
X37563755Y-33201742D01*
X37470354Y-33221595D01*
X37464324Y-33224280D01*
X37464323Y-33224280D01*
X37301920Y-33296586D01*
X37301918Y-33296587D01*
X37295890Y-33299271D01*
X37141389Y-33411523D01*
X37013602Y-33553445D01*
X36918115Y-33718833D01*
X36859100Y-33900461D01*
X36858410Y-33907022D01*
X36858410Y-33907024D01*
X36846692Y-34018515D01*
X36839138Y-34090389D01*
X36839828Y-34096954D01*
X36853484Y-34226880D01*
X36859100Y-34280317D01*
X36918115Y-34461945D01*
X36921418Y-34467667D01*
X36921419Y-34467668D01*
X36947595Y-34513005D01*
X37013602Y-34627333D01*
X37018020Y-34632240D01*
X37018021Y-34632241D01*
X37100094Y-34723392D01*
X37141389Y-34769255D01*
X37295890Y-34881507D01*
X37301918Y-34884191D01*
X37301920Y-34884192D01*
X37464323Y-34956498D01*
X37470354Y-34959183D01*
X37563754Y-34979036D01*
X37650698Y-34997517D01*
X37650703Y-34997517D01*
X37657155Y-34998889D01*
X37848129Y-34998889D01*
X37854581Y-34997517D01*
X37854586Y-34997517D01*
X37941530Y-34979036D01*
X38034930Y-34959183D01*
X38040961Y-34956498D01*
X38203364Y-34884192D01*
X38203366Y-34884191D01*
X38209394Y-34881507D01*
X38363895Y-34769255D01*
X38368310Y-34764352D01*
X38373222Y-34759929D01*
X38374347Y-34761178D01*
X38427656Y-34728338D01*
X38460842Y-34723889D01*
X50773875Y-34723889D01*
X50785058Y-34724416D01*
X50792551Y-34726091D01*
X50800477Y-34725842D01*
X50800478Y-34725842D01*
X50860628Y-34723951D01*
X50864587Y-34723889D01*
X50892498Y-34723889D01*
X50896433Y-34723392D01*
X50896498Y-34723384D01*
X50908335Y-34722451D01*
X50940593Y-34721437D01*
X50944612Y-34721311D01*
X50952531Y-34721062D01*
X50971985Y-34715410D01*
X50991342Y-34711402D01*
X51003572Y-34709857D01*
X51003573Y-34709857D01*
X51011439Y-34708863D01*
X51018810Y-34705944D01*
X51018812Y-34705944D01*
X51052554Y-34692585D01*
X51063784Y-34688740D01*
X51098625Y-34678618D01*
X51098626Y-34678618D01*
X51106235Y-34676407D01*
X51113054Y-34672374D01*
X51113059Y-34672372D01*
X51123670Y-34666096D01*
X51141418Y-34657401D01*
X51160259Y-34649941D01*
X51196029Y-34623953D01*
X51205949Y-34617437D01*
X51237177Y-34598969D01*
X51237180Y-34598967D01*
X51244004Y-34594931D01*
X51258325Y-34580610D01*
X51273359Y-34567769D01*
X51283336Y-34560520D01*
X51289749Y-34555861D01*
X51317940Y-34521784D01*
X51325930Y-34513005D01*
X52403141Y-33435794D01*
X52465453Y-33401768D01*
X52492236Y-33398889D01*
X54750776Y-33398889D01*
X54812958Y-33392134D01*
X54949347Y-33341004D01*
X55065903Y-33253650D01*
X55153257Y-33137094D01*
X55204387Y-33000705D01*
X55211142Y-32938523D01*
X55211142Y-32921914D01*
X55231144Y-32853793D01*
X55284800Y-32807300D01*
X55355074Y-32797196D01*
X55411203Y-32819978D01*
X55495890Y-32881507D01*
X55501918Y-32884191D01*
X55501920Y-32884192D01*
X55660642Y-32954859D01*
X55670354Y-32959183D01*
X55763754Y-32979036D01*
X55850698Y-32997517D01*
X55850703Y-32997517D01*
X55857155Y-32998889D01*
X56048129Y-32998889D01*
X56054584Y-32997517D01*
X56054593Y-32997516D01*
X56092444Y-32989470D01*
X56163235Y-32994871D01*
X56219868Y-33037687D01*
X56244362Y-33104325D01*
X56244642Y-33112716D01*
X56244642Y-36408312D01*
X56224640Y-36476433D01*
X56170984Y-36522926D01*
X56117467Y-36531675D01*
X56117467Y-36534189D01*
X55927817Y-36534189D01*
X55921364Y-36535561D01*
X55921360Y-36535561D01*
X55835064Y-36553904D01*
X55742311Y-36573619D01*
X55736282Y-36576303D01*
X55736280Y-36576304D01*
X55575087Y-36648072D01*
X55575085Y-36648073D01*
X55569057Y-36650757D01*
X55563716Y-36654637D01*
X55563715Y-36654638D01*
X55461703Y-36728754D01*
X55394835Y-36752613D01*
X55325683Y-36736532D01*
X55313581Y-36728754D01*
X55211569Y-36654638D01*
X55211568Y-36654637D01*
X55206227Y-36650757D01*
X55200199Y-36648073D01*
X55200197Y-36648072D01*
X55039004Y-36576304D01*
X55039002Y-36576303D01*
X55032973Y-36573619D01*
X54940220Y-36553904D01*
X54853924Y-36535561D01*
X54853920Y-36535561D01*
X54847467Y-36534189D01*
X54657817Y-36534189D01*
X54651364Y-36535561D01*
X54651360Y-36535561D01*
X54565064Y-36553904D01*
X54472311Y-36573619D01*
X54466282Y-36576303D01*
X54466280Y-36576304D01*
X54305087Y-36648072D01*
X54305085Y-36648073D01*
X54299057Y-36650757D01*
X54293716Y-36654637D01*
X54293715Y-36654638D01*
X54191703Y-36728754D01*
X54124835Y-36752613D01*
X54055683Y-36736532D01*
X54043581Y-36728754D01*
X53941569Y-36654638D01*
X53941568Y-36654637D01*
X53936227Y-36650757D01*
X53930199Y-36648073D01*
X53930197Y-36648072D01*
X53769004Y-36576304D01*
X53769002Y-36576303D01*
X53762973Y-36573619D01*
X53670220Y-36553904D01*
X53583924Y-36535561D01*
X53583920Y-36535561D01*
X53577467Y-36534189D01*
X53387817Y-36534189D01*
X53381364Y-36535561D01*
X53381360Y-36535561D01*
X53295064Y-36553904D01*
X53202311Y-36573619D01*
X53196282Y-36576303D01*
X53196280Y-36576304D01*
X53035087Y-36648072D01*
X53035085Y-36648073D01*
X53029057Y-36650757D01*
X53023716Y-36654637D01*
X53023715Y-36654638D01*
X52880971Y-36758347D01*
X52880969Y-36758349D01*
X52875627Y-36762230D01*
X52871206Y-36767140D01*
X52871205Y-36767141D01*
X52786076Y-36861687D01*
X52748726Y-36903168D01*
X52745425Y-36908886D01*
X52739360Y-36919390D01*
X52687976Y-36968383D01*
X52630241Y-36982389D01*
X26980286Y-36982389D01*
X26912165Y-36962387D01*
X26865672Y-36908731D01*
X26860453Y-36895325D01*
X26853425Y-36873694D01*
X26853424Y-36873692D01*
X26851383Y-36867410D01*
X26756558Y-36703168D01*
X26712862Y-36654638D01*
X26634079Y-36567141D01*
X26634078Y-36567140D01*
X26629657Y-36562230D01*
X26624315Y-36558349D01*
X26624313Y-36558347D01*
X26481569Y-36454638D01*
X26481568Y-36454637D01*
X26476227Y-36450757D01*
X26470199Y-36448073D01*
X26470197Y-36448072D01*
X26309004Y-36376304D01*
X26309002Y-36376303D01*
X26302973Y-36373619D01*
X26210220Y-36353904D01*
X26123924Y-36335561D01*
X26123920Y-36335561D01*
X26117467Y-36334189D01*
X25927817Y-36334189D01*
X25921364Y-36335561D01*
X25921360Y-36335561D01*
X25834197Y-36354088D01*
X25762796Y-36369265D01*
X25692006Y-36363863D01*
X25635373Y-36321046D01*
X25610880Y-36254408D01*
X25610600Y-36246018D01*
X25610600Y-35842515D01*
X25606125Y-35827276D01*
X25604735Y-35826071D01*
X25597052Y-35824400D01*
X24124600Y-35824400D01*
X24056479Y-35804398D01*
X24009986Y-35750742D01*
X23998600Y-35698400D01*
X23998600Y-35442400D01*
X24018602Y-35374279D01*
X24072258Y-35327786D01*
X24124600Y-35316400D01*
X25592484Y-35316400D01*
X25607723Y-35311925D01*
X25608928Y-35310535D01*
X25610599Y-35302852D01*
X25610599Y-34675731D01*
X25610229Y-34668910D01*
X25604705Y-34618048D01*
X25601079Y-34602796D01*
X25555924Y-34482346D01*
X25547386Y-34466751D01*
X25470885Y-34364676D01*
X25458324Y-34352115D01*
X25356249Y-34275614D01*
X25340654Y-34267076D01*
X25230413Y-34225748D01*
X25173649Y-34183106D01*
X25148949Y-34116545D01*
X25164157Y-34047196D01*
X25185704Y-34018515D01*
X25287030Y-33917544D01*
X25287040Y-33917532D01*
X25290696Y-33913889D01*
X25304335Y-33894909D01*
X25418035Y-33736677D01*
X25421053Y-33732477D01*
X25427797Y-33718833D01*
X25517736Y-33536853D01*
X25517737Y-33536851D01*
X25520030Y-33532211D01*
X25584970Y-33318469D01*
X25614129Y-33096990D01*
X25614462Y-33083380D01*
X25615674Y-33033765D01*
X25615674Y-33033761D01*
X25615756Y-33030400D01*
X25597452Y-32807761D01*
X25569421Y-32696165D01*
X25572225Y-32625225D01*
X25602530Y-32576374D01*
X26146001Y-32032904D01*
X26208313Y-31998879D01*
X26235096Y-31996000D01*
X38729000Y-31996000D01*
X38797121Y-32016002D01*
X38816347Y-32032343D01*
X38816620Y-32032040D01*
X38821532Y-32036463D01*
X38825947Y-32041366D01*
X38980448Y-32153618D01*
X38986476Y-32156302D01*
X38986478Y-32156303D01*
X39148881Y-32228609D01*
X39154912Y-32231294D01*
X39248313Y-32251147D01*
X39335256Y-32269628D01*
X39335261Y-32269628D01*
X39341713Y-32271000D01*
X39532687Y-32271000D01*
X39539139Y-32269628D01*
X39539144Y-32269628D01*
X39626087Y-32251147D01*
X39719488Y-32231294D01*
X39725519Y-32228609D01*
X39887922Y-32156303D01*
X39887924Y-32156302D01*
X39893952Y-32153618D01*
X40048453Y-32041366D01*
X40056073Y-32032904D01*
X40094183Y-31990578D01*
X40154629Y-31953339D01*
X40187819Y-31948889D01*
X41008792Y-31948889D01*
X41076913Y-31968891D01*
G37*
%TD.AperFunction*%
%TD*%
M02*
