%TF.GenerationSoftware,KiCad,Pcbnew,(5.99.0-11678-ga208dac8d8)*%
%TF.CreationDate,2021-08-19T14:25:42+07:00*%
%TF.ProjectId,sharp_memory_display,73686172-705f-46d6-956d-6f72795f6469,rev?*%
%TF.SameCoordinates,Original*%
%TF.FileFunction,Legend,Top*%
%TF.FilePolarity,Positive*%
%FSLAX46Y46*%
G04 Gerber Fmt 4.6, Leading zero omitted, Abs format (unit mm)*
G04 Created by KiCad (PCBNEW (5.99.0-11678-ga208dac8d8)) date 2021-08-19 14:25:42*
%MOMM*%
%LPD*%
G01*
G04 APERTURE LIST*
%ADD10C,0.150000*%
%ADD11C,0.120000*%
%ADD12C,0.125000*%
G04 APERTURE END LIST*
D10*
X31282284Y-32457055D02*
X31758475Y-32457055D01*
X31151332Y-32742769D02*
X31609665Y-31742769D01*
X31817999Y-32742769D01*
X32663237Y-32076103D02*
X32579903Y-32742769D01*
X32234665Y-32076103D02*
X32169189Y-32599912D01*
X32204903Y-32695150D01*
X32294189Y-32742769D01*
X32437046Y-32742769D01*
X32538237Y-32695150D01*
X32591808Y-32647531D01*
X33567999Y-32076103D02*
X33466808Y-32885627D01*
X33407284Y-32980865D01*
X33353713Y-33028484D01*
X33252522Y-33076103D01*
X33109665Y-33076103D01*
X33020380Y-33028484D01*
X33490618Y-32695150D02*
X33389427Y-32742769D01*
X33198951Y-32742769D01*
X33109665Y-32695150D01*
X33067999Y-32647531D01*
X33032284Y-32552293D01*
X33067999Y-32266579D01*
X33127522Y-32171341D01*
X33181094Y-32123722D01*
X33282284Y-32076103D01*
X33472761Y-32076103D01*
X33562046Y-32123722D01*
X34472761Y-32076103D02*
X34389427Y-32742769D01*
X34044189Y-32076103D02*
X33978713Y-32599912D01*
X34014427Y-32695150D01*
X34103713Y-32742769D01*
X34246570Y-32742769D01*
X34347761Y-32695150D01*
X34401332Y-32647531D01*
X34823951Y-32695150D02*
X34913237Y-32742769D01*
X35103713Y-32742769D01*
X35204903Y-32695150D01*
X35264427Y-32599912D01*
X35270380Y-32552293D01*
X35234665Y-32457055D01*
X35145380Y-32409436D01*
X35002522Y-32409436D01*
X34913237Y-32361817D01*
X34877522Y-32266579D01*
X34883475Y-32218960D01*
X34942999Y-32123722D01*
X35044189Y-32076103D01*
X35187046Y-32076103D01*
X35276332Y-32123722D01*
X35615618Y-32076103D02*
X35996570Y-32076103D01*
X35800142Y-31742769D02*
X35692999Y-32599912D01*
X35728713Y-32695150D01*
X35817999Y-32742769D01*
X35913237Y-32742769D01*
X37073951Y-31838008D02*
X37127522Y-31790389D01*
X37228713Y-31742769D01*
X37466808Y-31742769D01*
X37556094Y-31790389D01*
X37597761Y-31838008D01*
X37633475Y-31933246D01*
X37621570Y-32028484D01*
X37556094Y-32171341D01*
X36913237Y-32742769D01*
X37532284Y-32742769D01*
X38276332Y-31742769D02*
X38371570Y-31742769D01*
X38460856Y-31790389D01*
X38502522Y-31838008D01*
X38538237Y-31933246D01*
X38562046Y-32123722D01*
X38532284Y-32361817D01*
X38460856Y-32552293D01*
X38401332Y-32647531D01*
X38347761Y-32695150D01*
X38246570Y-32742769D01*
X38151332Y-32742769D01*
X38062046Y-32695150D01*
X38020380Y-32647531D01*
X37984665Y-32552293D01*
X37960856Y-32361817D01*
X37990618Y-32123722D01*
X38062046Y-31933246D01*
X38121570Y-31838008D01*
X38175142Y-31790389D01*
X38276332Y-31742769D01*
X38978713Y-31838008D02*
X39032284Y-31790389D01*
X39133475Y-31742769D01*
X39371570Y-31742769D01*
X39460856Y-31790389D01*
X39502522Y-31838008D01*
X39538237Y-31933246D01*
X39526332Y-32028484D01*
X39460856Y-32171341D01*
X38817999Y-32742769D01*
X39437046Y-32742769D01*
X40389427Y-32742769D02*
X39817999Y-32742769D01*
X40103713Y-32742769D02*
X40228713Y-31742769D01*
X40115618Y-31885627D01*
X40008475Y-31980865D01*
X39907284Y-32028484D01*
D11*
X55132808Y-26623722D02*
X55099475Y-26723722D01*
X55099475Y-26890389D01*
X55132808Y-26957055D01*
X55166142Y-26990389D01*
X55232808Y-27023722D01*
X55299475Y-27023722D01*
X55366142Y-26990389D01*
X55399475Y-26957055D01*
X55432808Y-26890389D01*
X55466142Y-26757055D01*
X55499475Y-26690389D01*
X55532808Y-26657055D01*
X55599475Y-26623722D01*
X55666142Y-26623722D01*
X55732808Y-26657055D01*
X55766142Y-26690389D01*
X55799475Y-26757055D01*
X55799475Y-26923722D01*
X55766142Y-27023722D01*
X55099475Y-27323722D02*
X55799475Y-27323722D01*
X55099475Y-27623722D02*
X55466142Y-27623722D01*
X55532808Y-27590389D01*
X55566142Y-27523722D01*
X55566142Y-27423722D01*
X55532808Y-27357055D01*
X55499475Y-27323722D01*
X55099475Y-28257055D02*
X55466142Y-28257055D01*
X55532808Y-28223722D01*
X55566142Y-28157055D01*
X55566142Y-28023722D01*
X55532808Y-27957055D01*
X55132808Y-28257055D02*
X55099475Y-28190389D01*
X55099475Y-28023722D01*
X55132808Y-27957055D01*
X55199475Y-27923722D01*
X55266142Y-27923722D01*
X55332808Y-27957055D01*
X55366142Y-28023722D01*
X55366142Y-28190389D01*
X55399475Y-28257055D01*
X55099475Y-28590389D02*
X55566142Y-28590389D01*
X55432808Y-28590389D02*
X55499475Y-28623722D01*
X55532808Y-28657055D01*
X55566142Y-28723722D01*
X55566142Y-28790389D01*
X55566142Y-29023722D02*
X54866142Y-29023722D01*
X55532808Y-29023722D02*
X55566142Y-29090389D01*
X55566142Y-29223722D01*
X55532808Y-29290389D01*
X55499475Y-29323722D01*
X55432808Y-29357055D01*
X55232808Y-29357055D01*
X55166142Y-29323722D01*
X55132808Y-29290389D01*
X55099475Y-29223722D01*
X55099475Y-29090389D01*
X55132808Y-29023722D01*
X55099475Y-30190389D02*
X55799475Y-30190389D01*
X55299475Y-30423722D01*
X55799475Y-30657055D01*
X55099475Y-30657055D01*
X55132808Y-31257055D02*
X55099475Y-31190389D01*
X55099475Y-31057055D01*
X55132808Y-30990389D01*
X55199475Y-30957055D01*
X55466142Y-30957055D01*
X55532808Y-30990389D01*
X55566142Y-31057055D01*
X55566142Y-31190389D01*
X55532808Y-31257055D01*
X55466142Y-31290389D01*
X55399475Y-31290389D01*
X55332808Y-30957055D01*
X55099475Y-31590389D02*
X55566142Y-31590389D01*
X55499475Y-31590389D02*
X55532808Y-31623722D01*
X55566142Y-31690389D01*
X55566142Y-31790389D01*
X55532808Y-31857055D01*
X55466142Y-31890389D01*
X55099475Y-31890389D01*
X55466142Y-31890389D02*
X55532808Y-31923722D01*
X55566142Y-31990389D01*
X55566142Y-32090389D01*
X55532808Y-32157055D01*
X55466142Y-32190389D01*
X55099475Y-32190389D01*
X55099475Y-32623722D02*
X55132808Y-32557055D01*
X55166142Y-32523722D01*
X55232808Y-32490389D01*
X55432808Y-32490389D01*
X55499475Y-32523722D01*
X55532808Y-32557055D01*
X55566142Y-32623722D01*
X55566142Y-32723722D01*
X55532808Y-32790389D01*
X55499475Y-32823722D01*
X55432808Y-32857055D01*
X55232808Y-32857055D01*
X55166142Y-32823722D01*
X55132808Y-32790389D01*
X55099475Y-32723722D01*
X55099475Y-32623722D01*
X55099475Y-33157055D02*
X55566142Y-33157055D01*
X55432808Y-33157055D02*
X55499475Y-33190389D01*
X55532808Y-33223722D01*
X55566142Y-33290389D01*
X55566142Y-33357055D01*
X55566142Y-33523722D02*
X55099475Y-33690389D01*
X55566142Y-33857055D02*
X55099475Y-33690389D01*
X54932808Y-33623722D01*
X54899475Y-33590389D01*
X54866142Y-33523722D01*
X53972475Y-26207055D02*
X54672475Y-26207055D01*
X54672475Y-26373722D01*
X54639142Y-26473722D01*
X54572475Y-26540389D01*
X54505808Y-26573722D01*
X54372475Y-26607055D01*
X54272475Y-26607055D01*
X54139142Y-26573722D01*
X54072475Y-26540389D01*
X54005808Y-26473722D01*
X53972475Y-26373722D01*
X53972475Y-26207055D01*
X53972475Y-26907055D02*
X54439142Y-26907055D01*
X54672475Y-26907055D02*
X54639142Y-26873722D01*
X54605808Y-26907055D01*
X54639142Y-26940389D01*
X54672475Y-26907055D01*
X54605808Y-26907055D01*
X54005808Y-27207055D02*
X53972475Y-27273722D01*
X53972475Y-27407055D01*
X54005808Y-27473722D01*
X54072475Y-27507055D01*
X54105808Y-27507055D01*
X54172475Y-27473722D01*
X54205808Y-27407055D01*
X54205808Y-27307055D01*
X54239142Y-27240389D01*
X54305808Y-27207055D01*
X54339142Y-27207055D01*
X54405808Y-27240389D01*
X54439142Y-27307055D01*
X54439142Y-27407055D01*
X54405808Y-27473722D01*
X54439142Y-27807055D02*
X53739142Y-27807055D01*
X54405808Y-27807055D02*
X54439142Y-27873722D01*
X54439142Y-28007055D01*
X54405808Y-28073722D01*
X54372475Y-28107055D01*
X54305808Y-28140389D01*
X54105808Y-28140389D01*
X54039142Y-28107055D01*
X54005808Y-28073722D01*
X53972475Y-28007055D01*
X53972475Y-27873722D01*
X54005808Y-27807055D01*
X53972475Y-28540389D02*
X54005808Y-28473722D01*
X54072475Y-28440389D01*
X54672475Y-28440389D01*
X53972475Y-29107055D02*
X54339142Y-29107055D01*
X54405808Y-29073722D01*
X54439142Y-29007055D01*
X54439142Y-28873722D01*
X54405808Y-28807055D01*
X54005808Y-29107055D02*
X53972475Y-29040389D01*
X53972475Y-28873722D01*
X54005808Y-28807055D01*
X54072475Y-28773722D01*
X54139142Y-28773722D01*
X54205808Y-28807055D01*
X54239142Y-28873722D01*
X54239142Y-29040389D01*
X54272475Y-29107055D01*
X54439142Y-29373722D02*
X53972475Y-29540389D01*
X54439142Y-29707055D02*
X53972475Y-29540389D01*
X53805808Y-29473722D01*
X53772475Y-29440389D01*
X53739142Y-29373722D01*
X54339142Y-30740389D02*
X54305808Y-30840389D01*
X54272475Y-30873722D01*
X54205808Y-30907055D01*
X54105808Y-30907055D01*
X54039142Y-30873722D01*
X54005808Y-30840389D01*
X53972475Y-30773722D01*
X53972475Y-30507055D01*
X54672475Y-30507055D01*
X54672475Y-30740389D01*
X54639142Y-30807055D01*
X54605808Y-30840389D01*
X54539142Y-30873722D01*
X54472475Y-30873722D01*
X54405808Y-30840389D01*
X54372475Y-30807055D01*
X54339142Y-30740389D01*
X54339142Y-30507055D01*
X53972475Y-31207055D02*
X54439142Y-31207055D01*
X54305808Y-31207055D02*
X54372475Y-31240389D01*
X54405808Y-31273722D01*
X54439142Y-31340389D01*
X54439142Y-31407055D01*
X54005808Y-31907055D02*
X53972475Y-31840389D01*
X53972475Y-31707055D01*
X54005808Y-31640389D01*
X54072475Y-31607055D01*
X54339142Y-31607055D01*
X54405808Y-31640389D01*
X54439142Y-31707055D01*
X54439142Y-31840389D01*
X54405808Y-31907055D01*
X54339142Y-31940389D01*
X54272475Y-31940389D01*
X54205808Y-31607055D01*
X53972475Y-32540389D02*
X54339142Y-32540389D01*
X54405808Y-32507055D01*
X54439142Y-32440389D01*
X54439142Y-32307055D01*
X54405808Y-32240389D01*
X54005808Y-32540389D02*
X53972475Y-32473722D01*
X53972475Y-32307055D01*
X54005808Y-32240389D01*
X54072475Y-32207055D01*
X54139142Y-32207055D01*
X54205808Y-32240389D01*
X54239142Y-32307055D01*
X54239142Y-32473722D01*
X54272475Y-32540389D01*
X53972475Y-32873722D02*
X54672475Y-32873722D01*
X54239142Y-32940389D02*
X53972475Y-33140389D01*
X54439142Y-33140389D02*
X54172475Y-32873722D01*
X53972475Y-33540389D02*
X54005808Y-33473722D01*
X54039142Y-33440389D01*
X54105808Y-33407055D01*
X54305808Y-33407055D01*
X54372475Y-33440389D01*
X54405808Y-33473722D01*
X54439142Y-33540389D01*
X54439142Y-33640389D01*
X54405808Y-33707055D01*
X54372475Y-33740389D01*
X54305808Y-33773722D01*
X54105808Y-33773722D01*
X54039142Y-33740389D01*
X54005808Y-33707055D01*
X53972475Y-33640389D01*
X53972475Y-33540389D01*
X54439142Y-34373722D02*
X53972475Y-34373722D01*
X54439142Y-34073722D02*
X54072475Y-34073722D01*
X54005808Y-34107055D01*
X53972475Y-34173722D01*
X53972475Y-34273722D01*
X54005808Y-34340389D01*
X54039142Y-34373722D01*
X54439142Y-34607055D02*
X54439142Y-34873722D01*
X54672475Y-34707055D02*
X54072475Y-34707055D01*
X54005808Y-34740389D01*
X53972475Y-34807055D01*
X53972475Y-34873722D01*
D10*
X32052641Y-31218960D02*
X31338356Y-31218960D01*
X31338356Y-29718960D01*
X32481213Y-31147531D02*
X32695499Y-31218960D01*
X33052642Y-31218960D01*
X33195499Y-31147531D01*
X33266927Y-31076103D01*
X33338356Y-30933246D01*
X33338356Y-30790389D01*
X33266927Y-30647531D01*
X33195499Y-30576103D01*
X33052642Y-30504674D01*
X32766927Y-30433246D01*
X32624070Y-30361817D01*
X32552642Y-30290389D01*
X32481213Y-30147531D01*
X32481213Y-30004674D01*
X32552642Y-29861817D01*
X32624070Y-29790389D01*
X32766927Y-29718960D01*
X33124070Y-29718960D01*
X33338356Y-29790389D01*
X34266927Y-29718960D02*
X34409784Y-29718960D01*
X34552642Y-29790389D01*
X34624070Y-29861817D01*
X34695499Y-30004674D01*
X34766927Y-30290389D01*
X34766927Y-30647531D01*
X34695499Y-30933246D01*
X34624070Y-31076103D01*
X34552642Y-31147531D01*
X34409784Y-31218960D01*
X34266927Y-31218960D01*
X34124070Y-31147531D01*
X34052642Y-31076103D01*
X33981213Y-30933246D01*
X33909784Y-30647531D01*
X33909784Y-30290389D01*
X33981213Y-30004674D01*
X34052642Y-29861817D01*
X34124070Y-29790389D01*
X34266927Y-29718960D01*
X36195499Y-31218960D02*
X35338356Y-31218960D01*
X35766927Y-31218960D02*
X35766927Y-29718960D01*
X35624070Y-29933246D01*
X35481213Y-30076103D01*
X35338356Y-30147531D01*
X37624070Y-31218960D02*
X36766927Y-31218960D01*
X37195499Y-31218960D02*
X37195499Y-29718960D01*
X37052642Y-29933246D01*
X36909784Y-30076103D01*
X36766927Y-30147531D01*
X38766927Y-30433246D02*
X38981213Y-30504674D01*
X39052642Y-30576103D01*
X39124070Y-30718960D01*
X39124070Y-30933246D01*
X39052642Y-31076103D01*
X38981213Y-31147531D01*
X38838356Y-31218960D01*
X38266927Y-31218960D01*
X38266927Y-29718960D01*
X38766927Y-29718960D01*
X38909784Y-29790389D01*
X38981213Y-29861817D01*
X39052642Y-30004674D01*
X39052642Y-30147531D01*
X38981213Y-30290389D01*
X38909784Y-30361817D01*
X38766927Y-30433246D01*
X38266927Y-30433246D01*
X39624070Y-29718960D02*
X40624070Y-29718960D01*
X39981213Y-31218960D01*
X41195499Y-31218960D02*
X41195499Y-29718960D01*
X41552642Y-29718960D01*
X41766927Y-29790389D01*
X41909784Y-29933246D01*
X41981213Y-30076103D01*
X42052642Y-30361817D01*
X42052642Y-30576103D01*
X41981213Y-30861817D01*
X41909784Y-31004674D01*
X41766927Y-31147531D01*
X41552642Y-31218960D01*
X41195499Y-31218960D01*
X42695499Y-31218960D02*
X42695499Y-29718960D01*
X42695499Y-30433246D02*
X43552642Y-30433246D01*
X43552642Y-31218960D02*
X43552642Y-29718960D01*
X44552642Y-29718960D02*
X44695499Y-29718960D01*
X44838356Y-29790389D01*
X44909784Y-29861817D01*
X44981213Y-30004674D01*
X45052642Y-30290389D01*
X45052642Y-30647531D01*
X44981213Y-30933246D01*
X44909784Y-31076103D01*
X44838356Y-31147531D01*
X44695499Y-31218960D01*
X44552642Y-31218960D01*
X44409784Y-31147531D01*
X44338356Y-31076103D01*
X44266927Y-30933246D01*
X44195499Y-30647531D01*
X44195499Y-30290389D01*
X44266927Y-30004674D01*
X44338356Y-29861817D01*
X44409784Y-29790389D01*
X44552642Y-29718960D01*
X45552642Y-29718960D02*
X46481213Y-29718960D01*
X45981213Y-30290389D01*
X46195499Y-30290389D01*
X46338356Y-30361817D01*
X46409784Y-30433246D01*
X46481213Y-30576103D01*
X46481213Y-30933246D01*
X46409784Y-31076103D01*
X46338356Y-31147531D01*
X46195499Y-31218960D01*
X45766927Y-31218960D01*
X45624070Y-31147531D01*
X45552642Y-31076103D01*
D11*
X52652642Y-35840389D02*
X52652642Y-25140389D01*
X27402642Y-35840389D02*
X52652642Y-35840389D01*
X27402642Y-25140389D02*
X27402642Y-35840389D01*
X52652642Y-25140389D02*
X27402642Y-25140389D01*
D12*
X26252642Y-25073722D02*
X26219308Y-25040389D01*
X26185975Y-24940389D01*
X26185975Y-24873722D01*
X26219308Y-24773722D01*
X26285975Y-24707055D01*
X26352642Y-24673722D01*
X26485975Y-24640389D01*
X26585975Y-24640389D01*
X26719308Y-24673722D01*
X26785975Y-24707055D01*
X26852642Y-24773722D01*
X26885975Y-24873722D01*
X26885975Y-24940389D01*
X26852642Y-25040389D01*
X26819308Y-25073722D01*
X26185975Y-25707055D02*
X26185975Y-25373722D01*
X26885975Y-25373722D01*
X26185975Y-25940389D02*
X26885975Y-25940389D01*
X26185975Y-26340389D02*
X26585975Y-26040389D01*
X26885975Y-26340389D02*
X26485975Y-25940389D01*
X26135975Y-27640389D02*
X26835975Y-27640389D01*
X26835975Y-27807055D01*
X26802642Y-27907055D01*
X26735975Y-27973722D01*
X26669308Y-28007055D01*
X26535975Y-28040389D01*
X26435975Y-28040389D01*
X26302642Y-28007055D01*
X26235975Y-27973722D01*
X26169308Y-27907055D01*
X26135975Y-27807055D01*
X26135975Y-27640389D01*
X26135975Y-28340389D02*
X26835975Y-28340389D01*
X26202642Y-30273722D02*
X26169308Y-30240389D01*
X26135975Y-30140389D01*
X26135975Y-30073722D01*
X26169308Y-29973722D01*
X26235975Y-29907055D01*
X26302642Y-29873722D01*
X26435975Y-29840389D01*
X26535975Y-29840389D01*
X26669308Y-29873722D01*
X26735975Y-29907055D01*
X26802642Y-29973722D01*
X26835975Y-30073722D01*
X26835975Y-30140389D01*
X26802642Y-30240389D01*
X26769308Y-30273722D01*
X26169308Y-30540389D02*
X26135975Y-30640389D01*
X26135975Y-30807055D01*
X26169308Y-30873722D01*
X26202642Y-30907055D01*
X26269308Y-30940389D01*
X26335975Y-30940389D01*
X26402642Y-30907055D01*
X26435975Y-30873722D01*
X26469308Y-30807055D01*
X26502642Y-30673722D01*
X26535975Y-30607055D01*
X26569308Y-30573722D01*
X26635975Y-30540389D01*
X26702642Y-30540389D01*
X26769308Y-30573722D01*
X26802642Y-30607055D01*
X26835975Y-30673722D01*
X26835975Y-30840389D01*
X26802642Y-30940389D01*
X26785975Y-31990389D02*
X26785975Y-32423722D01*
X26519308Y-32190389D01*
X26519308Y-32290389D01*
X26485975Y-32357055D01*
X26452642Y-32390389D01*
X26385975Y-32423722D01*
X26219308Y-32423722D01*
X26152642Y-32390389D01*
X26119308Y-32357055D01*
X26085975Y-32290389D01*
X26085975Y-32090389D01*
X26119308Y-32023722D01*
X26152642Y-31990389D01*
X26152642Y-32723722D02*
X26119308Y-32757055D01*
X26085975Y-32723722D01*
X26119308Y-32690389D01*
X26152642Y-32723722D01*
X26085975Y-32723722D01*
X26785975Y-32990389D02*
X26785975Y-33423722D01*
X26519308Y-33190389D01*
X26519308Y-33290389D01*
X26485975Y-33357055D01*
X26452642Y-33390389D01*
X26385975Y-33423722D01*
X26219308Y-33423722D01*
X26152642Y-33390389D01*
X26119308Y-33357055D01*
X26085975Y-33290389D01*
X26085975Y-33090389D01*
X26119308Y-33023722D01*
X26152642Y-32990389D01*
X26552642Y-33657055D02*
X26085975Y-33823722D01*
X26552642Y-33990389D01*
X26752642Y-35207055D02*
X26785975Y-35140389D01*
X26785975Y-35040389D01*
X26752642Y-34940389D01*
X26685975Y-34873722D01*
X26619308Y-34840389D01*
X26485975Y-34807055D01*
X26385975Y-34807055D01*
X26252642Y-34840389D01*
X26185975Y-34873722D01*
X26119308Y-34940389D01*
X26085975Y-35040389D01*
X26085975Y-35107055D01*
X26119308Y-35207055D01*
X26152642Y-35240389D01*
X26385975Y-35240389D01*
X26385975Y-35107055D01*
X26085975Y-35540389D02*
X26785975Y-35540389D01*
X26085975Y-35940389D01*
X26785975Y-35940389D01*
X26085975Y-36273722D02*
X26785975Y-36273722D01*
X26785975Y-36440389D01*
X26752642Y-36540389D01*
X26685975Y-36607055D01*
X26619308Y-36640389D01*
X26485975Y-36673722D01*
X26385975Y-36673722D01*
X26252642Y-36640389D01*
X26185975Y-36607055D01*
X26119308Y-36540389D01*
X26085975Y-36440389D01*
X26085975Y-36273722D01*
D11*
%TO.C,J1*%
X24252600Y-36900400D02*
X22922600Y-36900400D01*
X22922600Y-36900400D02*
X22922600Y-35570400D01*
X22922600Y-34300400D02*
X22922600Y-24080400D01*
X25582600Y-24080400D02*
X22922600Y-24080400D01*
X25582600Y-34300400D02*
X25582600Y-24080400D01*
X25582600Y-34300400D02*
X22922600Y-34300400D01*
%TD*%
M02*
