%TF.GenerationSoftware,KiCad,Pcbnew,(5.99.0-11678-ga208dac8d8)*%
%TF.CreationDate,2021-08-19T14:25:42+07:00*%
%TF.ProjectId,sharp_memory_display,73686172-705f-46d6-956d-6f72795f6469,rev?*%
%TF.SameCoordinates,Original*%
%TF.FileFunction,Copper,L2,Bot*%
%TF.FilePolarity,Positive*%
%FSLAX46Y46*%
G04 Gerber Fmt 4.6, Leading zero omitted, Abs format (unit mm)*
G04 Created by KiCad (PCBNEW (5.99.0-11678-ga208dac8d8)) date 2021-08-19 14:25:42*
%MOMM*%
%LPD*%
G01*
G04 APERTURE LIST*
G04 Aperture macros list*
%AMRoundRect*
0 Rectangle with rounded corners*
0 $1 Rounding radius*
0 $2 $3 $4 $5 $6 $7 $8 $9 X,Y pos of 4 corners*
0 Add a 4 corners polygon primitive as box body*
4,1,4,$2,$3,$4,$5,$6,$7,$8,$9,$2,$3,0*
0 Add four circle primitives for the rounded corners*
1,1,$1+$1,$2,$3*
1,1,$1+$1,$4,$5*
1,1,$1+$1,$6,$7*
1,1,$1+$1,$8,$9*
0 Add four rect primitives between the rounded corners*
20,1,$1+$1,$2,$3,$4,$5,0*
20,1,$1+$1,$4,$5,$6,$7,0*
20,1,$1+$1,$6,$7,$8,$9,0*
20,1,$1+$1,$8,$9,$2,$3,0*%
G04 Aperture macros list end*
%TA.AperFunction,ComponentPad*%
%ADD10C,3.800000*%
%TD*%
%TA.AperFunction,SMDPad,CuDef*%
%ADD11RoundRect,0.249999X0.650001X-0.350001X0.650001X0.350001X-0.650001X0.350001X-0.650001X-0.350001X0*%
%TD*%
%TA.AperFunction,SMDPad,CuDef*%
%ADD12RoundRect,0.150000X0.625000X-0.150000X0.625000X0.150000X-0.625000X0.150000X-0.625000X-0.150000X0*%
%TD*%
%TA.AperFunction,SMDPad,CuDef*%
%ADD13RoundRect,0.249999X-0.350001X-0.450001X0.350001X-0.450001X0.350001X0.450001X-0.350001X0.450001X0*%
%TD*%
%TA.AperFunction,SMDPad,CuDef*%
%ADD14RoundRect,0.249999X0.350001X0.450001X-0.350001X0.450001X-0.350001X-0.450001X0.350001X-0.450001X0*%
%TD*%
%TA.AperFunction,SMDPad,CuDef*%
%ADD15R,1.300000X0.300000*%
%TD*%
%TA.AperFunction,SMDPad,CuDef*%
%ADD16R,2.200000X1.800000*%
%TD*%
%TA.AperFunction,SMDPad,CuDef*%
%ADD17RoundRect,0.237500X0.250000X0.237500X-0.250000X0.237500X-0.250000X-0.237500X0.250000X-0.237500X0*%
%TD*%
%TA.AperFunction,ComponentPad*%
%ADD18O,1.700000X1.700000*%
%TD*%
%TA.AperFunction,ComponentPad*%
%ADD19R,1.700000X1.700000*%
%TD*%
%TA.AperFunction,SMDPad,CuDef*%
%ADD20RoundRect,0.237500X0.300000X0.237500X-0.300000X0.237500X-0.300000X-0.237500X0.300000X-0.237500X0*%
%TD*%
%TA.AperFunction,ViaPad*%
%ADD21C,0.800000*%
%TD*%
%TA.AperFunction,Conductor*%
%ADD22C,0.250000*%
%TD*%
%TA.AperFunction,Conductor*%
%ADD23C,0.254000*%
%TD*%
G04 APERTURE END LIST*
D10*
%TO.P,H4,1*%
%TO.N,N/C*%
X54752642Y-21490389D03*
%TD*%
%TO.P,H3,1*%
%TO.N,N/C*%
X24752642Y-39490389D03*
%TD*%
%TO.P,H2,1*%
%TO.N,N/C*%
X24752642Y-21490389D03*
%TD*%
%TO.P,H1,1*%
%TO.N,N/C*%
X54752642Y-39490389D03*
%TD*%
D11*
%TO.P,J3,MP*%
%TO.N,N/C*%
X26877600Y-27190400D03*
X26877600Y-33790400D03*
D12*
%TO.P,J3,5*%
%TO.N,SCLK*%
X30752600Y-28490400D03*
%TO.P,J3,4*%
%TO.N,SI*%
X30752600Y-29490400D03*
%TO.P,J3,3*%
%TO.N,SCS*%
X30752600Y-30490400D03*
%TO.P,J3,2*%
%TO.N,VDD*%
X30752600Y-31490400D03*
%TO.P,J3,1*%
%TO.N,VSS*%
X30752600Y-32490400D03*
%TD*%
D13*
%TO.P,FB2,2*%
%TO.N,VSSA*%
X36602600Y-33990400D03*
%TO.P,FB2,1*%
%TO.N,VSS*%
X34602600Y-33990400D03*
%TD*%
D14*
%TO.P,FB1,2*%
%TO.N,VDD*%
X34602600Y-31590400D03*
%TO.P,FB1,1*%
%TO.N,VDDA*%
X36602600Y-31590400D03*
%TD*%
D15*
%TO.P,J2,10*%
%TO.N,VSSA*%
X44330600Y-32740400D03*
%TO.P,J2,9*%
%TO.N,VSS*%
X44330600Y-32240400D03*
%TO.P,J2,8*%
%TO.N,EXTMODE*%
X44330600Y-31740400D03*
%TO.P,J2,7*%
%TO.N,VDD*%
X44330600Y-31240400D03*
%TO.P,J2,6*%
%TO.N,VDDA*%
X44330600Y-30740400D03*
%TO.P,J2,5*%
%TO.N,DISP*%
X44330600Y-30240400D03*
%TO.P,J2,4*%
%TO.N,EXTCOMIN*%
X44330600Y-29740400D03*
%TO.P,J2,3*%
%TO.N,SCS*%
X44330600Y-29240400D03*
%TO.P,J2,2*%
%TO.N,SI*%
X44330600Y-28740400D03*
%TO.P,J2,1*%
%TO.N,SCLK*%
X44330600Y-28240400D03*
D16*
%TO.P,J2,MP*%
%TO.N,N/C*%
X47580600Y-26340400D03*
X47580600Y-34640400D03*
%TD*%
D17*
%TO.P,R2,2*%
%TO.N,VSS*%
X38577600Y-26840400D03*
%TO.P,R2,1*%
%TO.N,EXTCOMIN*%
X40402600Y-26840400D03*
%TD*%
%TO.P,R1,2*%
%TO.N,VSS*%
X38577600Y-30490400D03*
%TO.P,R1,1*%
%TO.N,EXTMODE*%
X40402600Y-30490400D03*
%TD*%
D18*
%TO.P,J1,5*%
%TO.N,SCLK*%
X24252600Y-25410400D03*
%TO.P,J1,4*%
%TO.N,SI*%
X24252600Y-27950400D03*
%TO.P,J1,3*%
%TO.N,SCS*%
X24252600Y-30490400D03*
%TO.P,J1,2*%
%TO.N,VDD*%
X24252600Y-33030400D03*
D19*
%TO.P,J1,1*%
%TO.N,VSS*%
X24252600Y-35570400D03*
%TD*%
D20*
%TO.P,C3,2*%
%TO.N,VSS*%
X38640100Y-32340400D03*
%TO.P,C3,1*%
%TO.N,VDD*%
X40365100Y-32340400D03*
%TD*%
%TO.P,C2,2*%
%TO.N,VSSA*%
X38652600Y-34240400D03*
%TO.P,C2,1*%
%TO.N,VDDA*%
X40377600Y-34240400D03*
%TD*%
%TO.P,C1,2*%
%TO.N,VSS*%
X38627600Y-28640400D03*
%TO.P,C1,1*%
%TO.N,DISP*%
X40352600Y-28640400D03*
%TD*%
D21*
%TO.N,VDD*%
X39437200Y-31362500D03*
X45952642Y-31315389D03*
%TO.N,SI*%
X45802642Y-28765389D03*
%TO.N,EXTMODE*%
X42849500Y-31768500D03*
X39591300Y-29618300D03*
%TD*%
D22*
%TO.N,VSS*%
X35602600Y-33990400D02*
X35602600Y-30918000D01*
X35602600Y-30918000D02*
X36030200Y-30490400D01*
X36030200Y-30490400D02*
X38577600Y-30490400D01*
X35602600Y-33990400D02*
X34602600Y-33990400D01*
X38640100Y-32340400D02*
X38640100Y-30552900D01*
X38640100Y-30552900D02*
X38577600Y-30490400D01*
X34602600Y-33990400D02*
X33102600Y-32490400D01*
X33102600Y-32490400D02*
X30752600Y-32490400D01*
X38627600Y-28640400D02*
X38577600Y-28690400D01*
X38577600Y-28690400D02*
X38577600Y-30490400D01*
X38627600Y-28640400D02*
X38577600Y-28590400D01*
X38577600Y-28590400D02*
X38577600Y-26840400D01*
X25427601Y-34395399D02*
X24252600Y-35570400D01*
X25427601Y-33340430D02*
X25427601Y-34395399D01*
X26277631Y-32490400D02*
X25427601Y-33340430D01*
X30752600Y-32490400D02*
X26277631Y-32490400D01*
X35602600Y-34615400D02*
X35602600Y-33990400D01*
X39311300Y-35535510D02*
X38878706Y-35102916D01*
X43066721Y-33665389D02*
X41196600Y-35535510D01*
X43102642Y-33665389D02*
X43066721Y-33665389D01*
X38878706Y-35102916D02*
X36090115Y-35102916D01*
X41196600Y-35535510D02*
X39311300Y-35535510D01*
X45040477Y-33303224D02*
X43464807Y-33303224D01*
X36090115Y-35102916D02*
X35602600Y-34615400D01*
X43464807Y-33303224D02*
X43102642Y-33665389D01*
X44330600Y-32240400D02*
X45305900Y-32240400D01*
X45305900Y-33037800D02*
X45040477Y-33303224D01*
X45305900Y-32240400D02*
X45305900Y-33037800D01*
%TO.N,DISP*%
X40352600Y-28640400D02*
X41952600Y-30240400D01*
X41952600Y-30240400D02*
X44330600Y-30240400D01*
%TO.N,VSSA*%
X44330600Y-32740400D02*
X43355300Y-32740400D01*
X43355300Y-32740400D02*
X41010200Y-35085500D01*
X41010200Y-35085500D02*
X39497700Y-35085500D01*
X39497700Y-35085500D02*
X38652600Y-34240400D01*
X38652600Y-34240400D02*
X36852600Y-34240400D01*
X36852600Y-34240400D02*
X36602600Y-33990400D01*
%TO.N,VDDA*%
X44330600Y-30740400D02*
X42851900Y-30740400D01*
X42851900Y-30740400D02*
X42124200Y-31468100D01*
X42124200Y-31468100D02*
X42124200Y-31919200D01*
X42124200Y-31919200D02*
X40128500Y-33914900D01*
X36602600Y-31590400D02*
X36602600Y-31696600D01*
X36602600Y-31696600D02*
X38063300Y-33157300D01*
X38063300Y-33157300D02*
X39370900Y-33157300D01*
X39370900Y-33157300D02*
X40128500Y-33914900D01*
X40377600Y-34240400D02*
X40128500Y-33991300D01*
X40128500Y-33991300D02*
X40128500Y-33914900D01*
%TO.N,VDD*%
X40365100Y-32340400D02*
X39437200Y-31412500D01*
X39437200Y-31412500D02*
X39437200Y-31362500D01*
X30752600Y-31490400D02*
X30852600Y-31590400D01*
X30852600Y-31590400D02*
X34602600Y-31590400D01*
X45877653Y-31240400D02*
X44330600Y-31240400D01*
X45952642Y-31315389D02*
X45877653Y-31240400D01*
X25792600Y-31490400D02*
X24252600Y-33030400D01*
X30752600Y-31490400D02*
X25792600Y-31490400D01*
%TO.N,SCLK*%
X25427601Y-26585401D02*
X24252600Y-25410400D01*
X25427601Y-27665348D02*
X25427601Y-26585401D01*
X26252653Y-28490400D02*
X25427601Y-27665348D01*
X30752600Y-28490400D02*
X26252653Y-28490400D01*
X41977710Y-27057600D02*
X43160510Y-28240400D01*
X30752600Y-28490400D02*
X34769590Y-28490400D01*
X37676290Y-25583700D02*
X41176300Y-25583700D01*
X41176300Y-25583700D02*
X41977710Y-26385111D01*
X41977710Y-26385111D02*
X41977710Y-27057600D01*
X43160510Y-28240400D02*
X44330600Y-28240400D01*
X34769590Y-28490400D02*
X37676290Y-25583700D01*
%TO.N,SI*%
X24252600Y-27920900D02*
X24252600Y-27950400D01*
X44330600Y-28740400D02*
X45305900Y-28740400D01*
X24252600Y-27950400D02*
X24252600Y-28751398D01*
X24991602Y-29490400D02*
X28252653Y-29490400D01*
X24252600Y-28751398D02*
X24991602Y-29490400D01*
X28252653Y-29490400D02*
X30752600Y-29490400D01*
X44330600Y-28740400D02*
X45802631Y-28740400D01*
X45802631Y-28765378D02*
X45802642Y-28765389D01*
X45802631Y-28740400D02*
X45802631Y-28765378D01*
%TO.N,SCS*%
X30752600Y-30490400D02*
X33406000Y-30490400D01*
X33406000Y-30490400D02*
X37862400Y-26034000D01*
X37862400Y-26034000D02*
X40910200Y-26034000D01*
X40910200Y-26034000D02*
X41527700Y-26651500D01*
X41527700Y-26651500D02*
X41527700Y-27244000D01*
X41527700Y-27244000D02*
X43524100Y-29240400D01*
X43524100Y-29240400D02*
X44330600Y-29240400D01*
X24252600Y-30490400D02*
X30752600Y-30490400D01*
%TO.N,EXTMODE*%
X40402600Y-30490400D02*
X39591300Y-29679100D01*
X39591300Y-29679100D02*
X39591300Y-29618300D01*
X42849500Y-31768500D02*
X42877600Y-31740400D01*
X42877600Y-31740400D02*
X44330600Y-31740400D01*
%TO.N,EXTCOMIN*%
X40402600Y-26840400D02*
X43302600Y-29740400D01*
X43302600Y-29740400D02*
X44330600Y-29740400D01*
%TD*%
%TO.N,VSS*%
D23*
X26139932Y-23744182D02*
X26201217Y-23858839D01*
X26283694Y-23959337D01*
X26384192Y-24041814D01*
X26498849Y-24103099D01*
X26623259Y-24140839D01*
X26720223Y-24150389D01*
X26752642Y-24153582D01*
X26785061Y-24150389D01*
X52720223Y-24150389D01*
X52752642Y-24153582D01*
X52785061Y-24150389D01*
X52882025Y-24140839D01*
X53006435Y-24103099D01*
X53121092Y-24041814D01*
X53221590Y-23959337D01*
X53304067Y-23858839D01*
X53365352Y-23744182D01*
X53398619Y-23634517D01*
X53551827Y-23736888D01*
X54013168Y-23927982D01*
X54502924Y-24025400D01*
X55002276Y-24025400D01*
X55492032Y-23927982D01*
X55953373Y-23736888D01*
X56092643Y-23643831D01*
X56092642Y-37315743D01*
X56060943Y-37315788D01*
X55953373Y-37243912D01*
X55492032Y-37052818D01*
X55002276Y-36955400D01*
X54502924Y-36955400D01*
X54013168Y-37052818D01*
X53551827Y-37243912D01*
X53438690Y-37319508D01*
X53390524Y-37319576D01*
X53365351Y-37236596D01*
X53304066Y-37121939D01*
X53221589Y-37021441D01*
X53121091Y-36938964D01*
X53006434Y-36877679D01*
X52882024Y-36839939D01*
X52785060Y-36830389D01*
X52785053Y-36830389D01*
X52752641Y-36827197D01*
X52720232Y-36830389D01*
X26785061Y-36830389D01*
X26752642Y-36827196D01*
X26720223Y-36830389D01*
X26623259Y-36839939D01*
X26498849Y-36877679D01*
X26384192Y-36938964D01*
X26283694Y-37021441D01*
X26201217Y-37121939D01*
X26139932Y-37236596D01*
X26106645Y-37346326D01*
X25953373Y-37243912D01*
X25492032Y-37052818D01*
X25318859Y-37018372D01*
X25346780Y-37009902D01*
X25457094Y-36950937D01*
X25553785Y-36871585D01*
X25633137Y-36774894D01*
X25692102Y-36664580D01*
X25728412Y-36544882D01*
X25740672Y-36420400D01*
X25737600Y-35856150D01*
X25578850Y-35697400D01*
X24379600Y-35697400D01*
X24379600Y-35717400D01*
X24125600Y-35717400D01*
X24125600Y-35697400D01*
X24105600Y-35697400D01*
X24105600Y-35443400D01*
X24125600Y-35443400D01*
X24125600Y-35423400D01*
X24379600Y-35423400D01*
X24379600Y-35443400D01*
X25578850Y-35443400D01*
X25737600Y-35284650D01*
X25739793Y-34881788D01*
X25887749Y-34960872D01*
X26054345Y-35011408D01*
X26227599Y-35028472D01*
X27527601Y-35028472D01*
X27700855Y-35011408D01*
X27867451Y-34960872D01*
X28020987Y-34878805D01*
X28155562Y-34768362D01*
X28219543Y-34690400D01*
X33364528Y-34690400D01*
X33376788Y-34814882D01*
X33413098Y-34934580D01*
X33472063Y-35044894D01*
X33551415Y-35141585D01*
X33648106Y-35220937D01*
X33758420Y-35279902D01*
X33878118Y-35316212D01*
X34002600Y-35328472D01*
X34316850Y-35325400D01*
X34475600Y-35166650D01*
X34475600Y-34117400D01*
X33526350Y-34117400D01*
X33367600Y-34276150D01*
X33364528Y-34690400D01*
X28219543Y-34690400D01*
X28266005Y-34633787D01*
X28348072Y-34480251D01*
X28398608Y-34313655D01*
X28415672Y-34140401D01*
X28415672Y-33440399D01*
X28398608Y-33267145D01*
X28348072Y-33100549D01*
X28266005Y-32947013D01*
X28155562Y-32812438D01*
X28128709Y-32790400D01*
X29339528Y-32790400D01*
X29351788Y-32914882D01*
X29388098Y-33034580D01*
X29447063Y-33144894D01*
X29526415Y-33241585D01*
X29623106Y-33320937D01*
X29733420Y-33379902D01*
X29853118Y-33416212D01*
X29977600Y-33428472D01*
X30466850Y-33425400D01*
X30625600Y-33266650D01*
X30625600Y-32617400D01*
X30879600Y-32617400D01*
X30879600Y-33266650D01*
X31038350Y-33425400D01*
X31527600Y-33428472D01*
X31652082Y-33416212D01*
X31771780Y-33379902D01*
X31882094Y-33320937D01*
X31978785Y-33241585D01*
X32058137Y-33144894D01*
X32117102Y-33034580D01*
X32153412Y-32914882D01*
X32165672Y-32790400D01*
X32162600Y-32776150D01*
X32003850Y-32617400D01*
X30879600Y-32617400D01*
X30625600Y-32617400D01*
X29501350Y-32617400D01*
X29342600Y-32776150D01*
X29339528Y-32790400D01*
X28128709Y-32790400D01*
X28020987Y-32701995D01*
X27867451Y-32619928D01*
X27700855Y-32569392D01*
X27527601Y-32552328D01*
X26227599Y-32552328D01*
X26054345Y-32569392D01*
X25887749Y-32619928D01*
X25734213Y-32701995D01*
X25705978Y-32725167D01*
X25693810Y-32663992D01*
X26107402Y-32250400D01*
X29388350Y-32250400D01*
X29501350Y-32363400D01*
X29816507Y-32363400D01*
X29826018Y-32368484D01*
X29973855Y-32413329D01*
X30127600Y-32428472D01*
X31377600Y-32428472D01*
X31531345Y-32413329D01*
X31679182Y-32368484D01*
X31688693Y-32363400D01*
X32003850Y-32363400D01*
X32016850Y-32350400D01*
X33423073Y-32350400D01*
X33432128Y-32380251D01*
X33514195Y-32533787D01*
X33624638Y-32668362D01*
X33701413Y-32731369D01*
X33648106Y-32759863D01*
X33551415Y-32839215D01*
X33472063Y-32935906D01*
X33413098Y-33046220D01*
X33376788Y-33165918D01*
X33364528Y-33290400D01*
X33367600Y-33704650D01*
X33526350Y-33863400D01*
X34475600Y-33863400D01*
X34475600Y-33843400D01*
X34729600Y-33843400D01*
X34729600Y-33863400D01*
X34749600Y-33863400D01*
X34749600Y-34117400D01*
X34729600Y-34117400D01*
X34729600Y-35166650D01*
X34888350Y-35325400D01*
X35202600Y-35328472D01*
X35327082Y-35316212D01*
X35446780Y-35279902D01*
X35557094Y-35220937D01*
X35653785Y-35141585D01*
X35677963Y-35112124D01*
X35759213Y-35178805D01*
X35912749Y-35260872D01*
X36079345Y-35311408D01*
X36252599Y-35328472D01*
X36952601Y-35328472D01*
X37125855Y-35311408D01*
X37292451Y-35260872D01*
X37445987Y-35178805D01*
X37580562Y-35068362D01*
X37636337Y-35000400D01*
X37654180Y-35000400D01*
X37733477Y-35097023D01*
X37866158Y-35205912D01*
X38017533Y-35286823D01*
X38181784Y-35336648D01*
X38352600Y-35353472D01*
X38690870Y-35353472D01*
X38933901Y-35596503D01*
X38957699Y-35625501D01*
X38986697Y-35649299D01*
X39073423Y-35720474D01*
X39193356Y-35784580D01*
X39205453Y-35791046D01*
X39348714Y-35834503D01*
X39460367Y-35845500D01*
X39460377Y-35845500D01*
X39497700Y-35849176D01*
X39535023Y-35845500D01*
X40972878Y-35845500D01*
X41010200Y-35849176D01*
X41047522Y-35845500D01*
X41047533Y-35845500D01*
X41159186Y-35834503D01*
X41302447Y-35791046D01*
X41434476Y-35720474D01*
X41550201Y-35625501D01*
X41574004Y-35596497D01*
X43430101Y-33740400D01*
X45842528Y-33740400D01*
X45842528Y-35540400D01*
X45854788Y-35664882D01*
X45891098Y-35784580D01*
X45950063Y-35894894D01*
X46029415Y-35991585D01*
X46126106Y-36070937D01*
X46236420Y-36129902D01*
X46356118Y-36166212D01*
X46480600Y-36178472D01*
X48680600Y-36178472D01*
X48805082Y-36166212D01*
X48924780Y-36129902D01*
X49035094Y-36070937D01*
X49131785Y-35991585D01*
X49211137Y-35894894D01*
X49270102Y-35784580D01*
X49306412Y-35664882D01*
X49318672Y-35540400D01*
X49318672Y-33740400D01*
X49306412Y-33615918D01*
X49270102Y-33496220D01*
X49211137Y-33385906D01*
X49131785Y-33289215D01*
X49035094Y-33209863D01*
X48924780Y-33150898D01*
X48805082Y-33114588D01*
X48680600Y-33102328D01*
X46480600Y-33102328D01*
X46356118Y-33114588D01*
X46236420Y-33150898D01*
X46126106Y-33209863D01*
X46029415Y-33289215D01*
X45950063Y-33385906D01*
X45891098Y-33496220D01*
X45854788Y-33615918D01*
X45842528Y-33740400D01*
X43430101Y-33740400D01*
X43645488Y-33525014D01*
X43680600Y-33528472D01*
X44980600Y-33528472D01*
X45105082Y-33516212D01*
X45224780Y-33479902D01*
X45335094Y-33420937D01*
X45431785Y-33341585D01*
X45511137Y-33244894D01*
X45570102Y-33134580D01*
X45606412Y-33014882D01*
X45618672Y-32890400D01*
X45618672Y-32590400D01*
X45608482Y-32486935D01*
X45615600Y-32422150D01*
X45583353Y-32389903D01*
X45576527Y-32367402D01*
X45615600Y-32367402D01*
X45615600Y-32296058D01*
X45650744Y-32310615D01*
X45850703Y-32350389D01*
X46054581Y-32350389D01*
X46254540Y-32310615D01*
X46442898Y-32232594D01*
X46612416Y-32119326D01*
X46756579Y-31975163D01*
X46869847Y-31805645D01*
X46947868Y-31617287D01*
X46987642Y-31417328D01*
X46987642Y-31213450D01*
X46947868Y-31013491D01*
X46869847Y-30825133D01*
X46756579Y-30655615D01*
X46612416Y-30511452D01*
X46442898Y-30398184D01*
X46254540Y-30320163D01*
X46054581Y-30280389D01*
X45850703Y-30280389D01*
X45650744Y-30320163D01*
X45618672Y-30333448D01*
X45618672Y-30090400D01*
X45608823Y-29990400D01*
X45618672Y-29890400D01*
X45618672Y-29784072D01*
X45700703Y-29800389D01*
X45904581Y-29800389D01*
X46104540Y-29760615D01*
X46292898Y-29682594D01*
X46462416Y-29569326D01*
X46606579Y-29425163D01*
X46719847Y-29255645D01*
X46797868Y-29067287D01*
X46837642Y-28867328D01*
X46837642Y-28663450D01*
X46797868Y-28463491D01*
X46719847Y-28275133D01*
X46606579Y-28105615D01*
X46462416Y-27961452D01*
X46292898Y-27848184D01*
X46282529Y-27843889D01*
X46356118Y-27866212D01*
X46480600Y-27878472D01*
X48680600Y-27878472D01*
X48805082Y-27866212D01*
X48924780Y-27829902D01*
X49035094Y-27770937D01*
X49131785Y-27691585D01*
X49211137Y-27594894D01*
X49270102Y-27484580D01*
X49306412Y-27364882D01*
X49318672Y-27240400D01*
X49318672Y-25440400D01*
X49306412Y-25315918D01*
X49270102Y-25196220D01*
X49211137Y-25085906D01*
X49131785Y-24989215D01*
X49035094Y-24909863D01*
X48924780Y-24850898D01*
X48805082Y-24814588D01*
X48680600Y-24802328D01*
X46480600Y-24802328D01*
X46356118Y-24814588D01*
X46236420Y-24850898D01*
X46126106Y-24909863D01*
X46029415Y-24989215D01*
X45950063Y-25085906D01*
X45891098Y-25196220D01*
X45854788Y-25315918D01*
X45842528Y-25440400D01*
X45842528Y-27240400D01*
X45854788Y-27364882D01*
X45891098Y-27484580D01*
X45950063Y-27594894D01*
X46029415Y-27691585D01*
X46126106Y-27770937D01*
X46193926Y-27807188D01*
X46104540Y-27770163D01*
X45904581Y-27730389D01*
X45700703Y-27730389D01*
X45526689Y-27765002D01*
X45511137Y-27735906D01*
X45431785Y-27639215D01*
X45335094Y-27559863D01*
X45224780Y-27500898D01*
X45105082Y-27464588D01*
X44980600Y-27452328D01*
X43680600Y-27452328D01*
X43556118Y-27464588D01*
X43503993Y-27480400D01*
X43475312Y-27480400D01*
X42737710Y-26742799D01*
X42737710Y-26422444D01*
X42741387Y-26385111D01*
X42726713Y-26236125D01*
X42692610Y-26123701D01*
X42683256Y-26092864D01*
X42612684Y-25960835D01*
X42541510Y-25874108D01*
X42541505Y-25874103D01*
X42517711Y-25845110D01*
X42488720Y-25821318D01*
X41740099Y-25072697D01*
X41716301Y-25043699D01*
X41600576Y-24948726D01*
X41468547Y-24878154D01*
X41325286Y-24834697D01*
X41213633Y-24823700D01*
X41213623Y-24823700D01*
X41176300Y-24820024D01*
X41138978Y-24823700D01*
X37713623Y-24823700D01*
X37676290Y-24820023D01*
X37638957Y-24823700D01*
X37527304Y-24834697D01*
X37384043Y-24878154D01*
X37252014Y-24948726D01*
X37136289Y-25043699D01*
X37112491Y-25072697D01*
X34454789Y-27730400D01*
X31870576Y-27730400D01*
X31815429Y-27685142D01*
X31679182Y-27612316D01*
X31531345Y-27567471D01*
X31377600Y-27552328D01*
X30127600Y-27552328D01*
X29973855Y-27567471D01*
X29826018Y-27612316D01*
X29689771Y-27685142D01*
X29634624Y-27730400D01*
X28393528Y-27730400D01*
X28398608Y-27713655D01*
X28415672Y-27540401D01*
X28415672Y-26840399D01*
X28398608Y-26667145D01*
X28348072Y-26500549D01*
X28266005Y-26347013D01*
X28155562Y-26212438D01*
X28020987Y-26101995D01*
X27867451Y-26019928D01*
X27700855Y-25969392D01*
X27527601Y-25952328D01*
X26227599Y-25952328D01*
X26054345Y-25969392D01*
X25925483Y-26008481D01*
X25693810Y-25776808D01*
X25737600Y-25556660D01*
X25737600Y-25264140D01*
X25680532Y-24977242D01*
X25568590Y-24706989D01*
X25406075Y-24463768D01*
X25199232Y-24256925D01*
X24956011Y-24094410D01*
X24789405Y-24025400D01*
X25002276Y-24025400D01*
X25492032Y-23927982D01*
X25953373Y-23736888D01*
X26106651Y-23634471D01*
X26139932Y-23744182D02*
X26106651Y-23634471D01*
%TA.AperFunction,Conductor*%
G36*
X26139932Y-23744182D02*
G01*
X26201217Y-23858839D01*
X26283694Y-23959337D01*
X26384192Y-24041814D01*
X26498849Y-24103099D01*
X26623259Y-24140839D01*
X26720223Y-24150389D01*
X26752642Y-24153582D01*
X26785061Y-24150389D01*
X52720223Y-24150389D01*
X52752642Y-24153582D01*
X52785061Y-24150389D01*
X52882025Y-24140839D01*
X53006435Y-24103099D01*
X53121092Y-24041814D01*
X53221590Y-23959337D01*
X53304067Y-23858839D01*
X53365352Y-23744182D01*
X53398619Y-23634517D01*
X53551827Y-23736888D01*
X54013168Y-23927982D01*
X54502924Y-24025400D01*
X55002276Y-24025400D01*
X55492032Y-23927982D01*
X55953373Y-23736888D01*
X56092643Y-23643831D01*
X56092642Y-37315743D01*
X56060943Y-37315788D01*
X55953373Y-37243912D01*
X55492032Y-37052818D01*
X55002276Y-36955400D01*
X54502924Y-36955400D01*
X54013168Y-37052818D01*
X53551827Y-37243912D01*
X53438690Y-37319508D01*
X53390524Y-37319576D01*
X53365351Y-37236596D01*
X53304066Y-37121939D01*
X53221589Y-37021441D01*
X53121091Y-36938964D01*
X53006434Y-36877679D01*
X52882024Y-36839939D01*
X52785060Y-36830389D01*
X52785053Y-36830389D01*
X52752641Y-36827197D01*
X52720232Y-36830389D01*
X26785061Y-36830389D01*
X26752642Y-36827196D01*
X26720223Y-36830389D01*
X26623259Y-36839939D01*
X26498849Y-36877679D01*
X26384192Y-36938964D01*
X26283694Y-37021441D01*
X26201217Y-37121939D01*
X26139932Y-37236596D01*
X26106645Y-37346326D01*
X25953373Y-37243912D01*
X25492032Y-37052818D01*
X25318859Y-37018372D01*
X25346780Y-37009902D01*
X25457094Y-36950937D01*
X25553785Y-36871585D01*
X25633137Y-36774894D01*
X25692102Y-36664580D01*
X25728412Y-36544882D01*
X25740672Y-36420400D01*
X25737600Y-35856150D01*
X25578850Y-35697400D01*
X24379600Y-35697400D01*
X24379600Y-35717400D01*
X24125600Y-35717400D01*
X24125600Y-35697400D01*
X24105600Y-35697400D01*
X24105600Y-35443400D01*
X24125600Y-35443400D01*
X24125600Y-35423400D01*
X24379600Y-35423400D01*
X24379600Y-35443400D01*
X25578850Y-35443400D01*
X25737600Y-35284650D01*
X25739793Y-34881788D01*
X25887749Y-34960872D01*
X26054345Y-35011408D01*
X26227599Y-35028472D01*
X27527601Y-35028472D01*
X27700855Y-35011408D01*
X27867451Y-34960872D01*
X28020987Y-34878805D01*
X28155562Y-34768362D01*
X28219543Y-34690400D01*
X33364528Y-34690400D01*
X33376788Y-34814882D01*
X33413098Y-34934580D01*
X33472063Y-35044894D01*
X33551415Y-35141585D01*
X33648106Y-35220937D01*
X33758420Y-35279902D01*
X33878118Y-35316212D01*
X34002600Y-35328472D01*
X34316850Y-35325400D01*
X34475600Y-35166650D01*
X34475600Y-34117400D01*
X33526350Y-34117400D01*
X33367600Y-34276150D01*
X33364528Y-34690400D01*
X28219543Y-34690400D01*
X28266005Y-34633787D01*
X28348072Y-34480251D01*
X28398608Y-34313655D01*
X28415672Y-34140401D01*
X28415672Y-33440399D01*
X28398608Y-33267145D01*
X28348072Y-33100549D01*
X28266005Y-32947013D01*
X28155562Y-32812438D01*
X28128709Y-32790400D01*
X29339528Y-32790400D01*
X29351788Y-32914882D01*
X29388098Y-33034580D01*
X29447063Y-33144894D01*
X29526415Y-33241585D01*
X29623106Y-33320937D01*
X29733420Y-33379902D01*
X29853118Y-33416212D01*
X29977600Y-33428472D01*
X30466850Y-33425400D01*
X30625600Y-33266650D01*
X30625600Y-32617400D01*
X30879600Y-32617400D01*
X30879600Y-33266650D01*
X31038350Y-33425400D01*
X31527600Y-33428472D01*
X31652082Y-33416212D01*
X31771780Y-33379902D01*
X31882094Y-33320937D01*
X31978785Y-33241585D01*
X32058137Y-33144894D01*
X32117102Y-33034580D01*
X32153412Y-32914882D01*
X32165672Y-32790400D01*
X32162600Y-32776150D01*
X32003850Y-32617400D01*
X30879600Y-32617400D01*
X30625600Y-32617400D01*
X29501350Y-32617400D01*
X29342600Y-32776150D01*
X29339528Y-32790400D01*
X28128709Y-32790400D01*
X28020987Y-32701995D01*
X27867451Y-32619928D01*
X27700855Y-32569392D01*
X27527601Y-32552328D01*
X26227599Y-32552328D01*
X26054345Y-32569392D01*
X25887749Y-32619928D01*
X25734213Y-32701995D01*
X25705978Y-32725167D01*
X25693810Y-32663992D01*
X26107402Y-32250400D01*
X29388350Y-32250400D01*
X29501350Y-32363400D01*
X29816507Y-32363400D01*
X29826018Y-32368484D01*
X29973855Y-32413329D01*
X30127600Y-32428472D01*
X31377600Y-32428472D01*
X31531345Y-32413329D01*
X31679182Y-32368484D01*
X31688693Y-32363400D01*
X32003850Y-32363400D01*
X32016850Y-32350400D01*
X33423073Y-32350400D01*
X33432128Y-32380251D01*
X33514195Y-32533787D01*
X33624638Y-32668362D01*
X33701413Y-32731369D01*
X33648106Y-32759863D01*
X33551415Y-32839215D01*
X33472063Y-32935906D01*
X33413098Y-33046220D01*
X33376788Y-33165918D01*
X33364528Y-33290400D01*
X33367600Y-33704650D01*
X33526350Y-33863400D01*
X34475600Y-33863400D01*
X34475600Y-33843400D01*
X34729600Y-33843400D01*
X34729600Y-33863400D01*
X34749600Y-33863400D01*
X34749600Y-34117400D01*
X34729600Y-34117400D01*
X34729600Y-35166650D01*
X34888350Y-35325400D01*
X35202600Y-35328472D01*
X35327082Y-35316212D01*
X35446780Y-35279902D01*
X35557094Y-35220937D01*
X35653785Y-35141585D01*
X35677963Y-35112124D01*
X35759213Y-35178805D01*
X35912749Y-35260872D01*
X36079345Y-35311408D01*
X36252599Y-35328472D01*
X36952601Y-35328472D01*
X37125855Y-35311408D01*
X37292451Y-35260872D01*
X37445987Y-35178805D01*
X37580562Y-35068362D01*
X37636337Y-35000400D01*
X37654180Y-35000400D01*
X37733477Y-35097023D01*
X37866158Y-35205912D01*
X38017533Y-35286823D01*
X38181784Y-35336648D01*
X38352600Y-35353472D01*
X38690870Y-35353472D01*
X38933901Y-35596503D01*
X38957699Y-35625501D01*
X38986697Y-35649299D01*
X39073423Y-35720474D01*
X39193356Y-35784580D01*
X39205453Y-35791046D01*
X39348714Y-35834503D01*
X39460367Y-35845500D01*
X39460377Y-35845500D01*
X39497700Y-35849176D01*
X39535023Y-35845500D01*
X40972878Y-35845500D01*
X41010200Y-35849176D01*
X41047522Y-35845500D01*
X41047533Y-35845500D01*
X41159186Y-35834503D01*
X41302447Y-35791046D01*
X41434476Y-35720474D01*
X41550201Y-35625501D01*
X41574004Y-35596497D01*
X43430101Y-33740400D01*
X45842528Y-33740400D01*
X45842528Y-35540400D01*
X45854788Y-35664882D01*
X45891098Y-35784580D01*
X45950063Y-35894894D01*
X46029415Y-35991585D01*
X46126106Y-36070937D01*
X46236420Y-36129902D01*
X46356118Y-36166212D01*
X46480600Y-36178472D01*
X48680600Y-36178472D01*
X48805082Y-36166212D01*
X48924780Y-36129902D01*
X49035094Y-36070937D01*
X49131785Y-35991585D01*
X49211137Y-35894894D01*
X49270102Y-35784580D01*
X49306412Y-35664882D01*
X49318672Y-35540400D01*
X49318672Y-33740400D01*
X49306412Y-33615918D01*
X49270102Y-33496220D01*
X49211137Y-33385906D01*
X49131785Y-33289215D01*
X49035094Y-33209863D01*
X48924780Y-33150898D01*
X48805082Y-33114588D01*
X48680600Y-33102328D01*
X46480600Y-33102328D01*
X46356118Y-33114588D01*
X46236420Y-33150898D01*
X46126106Y-33209863D01*
X46029415Y-33289215D01*
X45950063Y-33385906D01*
X45891098Y-33496220D01*
X45854788Y-33615918D01*
X45842528Y-33740400D01*
X43430101Y-33740400D01*
X43645488Y-33525014D01*
X43680600Y-33528472D01*
X44980600Y-33528472D01*
X45105082Y-33516212D01*
X45224780Y-33479902D01*
X45335094Y-33420937D01*
X45431785Y-33341585D01*
X45511137Y-33244894D01*
X45570102Y-33134580D01*
X45606412Y-33014882D01*
X45618672Y-32890400D01*
X45618672Y-32590400D01*
X45608482Y-32486935D01*
X45615600Y-32422150D01*
X45583353Y-32389903D01*
X45576527Y-32367402D01*
X45615600Y-32367402D01*
X45615600Y-32296058D01*
X45650744Y-32310615D01*
X45850703Y-32350389D01*
X46054581Y-32350389D01*
X46254540Y-32310615D01*
X46442898Y-32232594D01*
X46612416Y-32119326D01*
X46756579Y-31975163D01*
X46869847Y-31805645D01*
X46947868Y-31617287D01*
X46987642Y-31417328D01*
X46987642Y-31213450D01*
X46947868Y-31013491D01*
X46869847Y-30825133D01*
X46756579Y-30655615D01*
X46612416Y-30511452D01*
X46442898Y-30398184D01*
X46254540Y-30320163D01*
X46054581Y-30280389D01*
X45850703Y-30280389D01*
X45650744Y-30320163D01*
X45618672Y-30333448D01*
X45618672Y-30090400D01*
X45608823Y-29990400D01*
X45618672Y-29890400D01*
X45618672Y-29784072D01*
X45700703Y-29800389D01*
X45904581Y-29800389D01*
X46104540Y-29760615D01*
X46292898Y-29682594D01*
X46462416Y-29569326D01*
X46606579Y-29425163D01*
X46719847Y-29255645D01*
X46797868Y-29067287D01*
X46837642Y-28867328D01*
X46837642Y-28663450D01*
X46797868Y-28463491D01*
X46719847Y-28275133D01*
X46606579Y-28105615D01*
X46462416Y-27961452D01*
X46292898Y-27848184D01*
X46282529Y-27843889D01*
X46356118Y-27866212D01*
X46480600Y-27878472D01*
X48680600Y-27878472D01*
X48805082Y-27866212D01*
X48924780Y-27829902D01*
X49035094Y-27770937D01*
X49131785Y-27691585D01*
X49211137Y-27594894D01*
X49270102Y-27484580D01*
X49306412Y-27364882D01*
X49318672Y-27240400D01*
X49318672Y-25440400D01*
X49306412Y-25315918D01*
X49270102Y-25196220D01*
X49211137Y-25085906D01*
X49131785Y-24989215D01*
X49035094Y-24909863D01*
X48924780Y-24850898D01*
X48805082Y-24814588D01*
X48680600Y-24802328D01*
X46480600Y-24802328D01*
X46356118Y-24814588D01*
X46236420Y-24850898D01*
X46126106Y-24909863D01*
X46029415Y-24989215D01*
X45950063Y-25085906D01*
X45891098Y-25196220D01*
X45854788Y-25315918D01*
X45842528Y-25440400D01*
X45842528Y-27240400D01*
X45854788Y-27364882D01*
X45891098Y-27484580D01*
X45950063Y-27594894D01*
X46029415Y-27691585D01*
X46126106Y-27770937D01*
X46193926Y-27807188D01*
X46104540Y-27770163D01*
X45904581Y-27730389D01*
X45700703Y-27730389D01*
X45526689Y-27765002D01*
X45511137Y-27735906D01*
X45431785Y-27639215D01*
X45335094Y-27559863D01*
X45224780Y-27500898D01*
X45105082Y-27464588D01*
X44980600Y-27452328D01*
X43680600Y-27452328D01*
X43556118Y-27464588D01*
X43503993Y-27480400D01*
X43475312Y-27480400D01*
X42737710Y-26742799D01*
X42737710Y-26422444D01*
X42741387Y-26385111D01*
X42726713Y-26236125D01*
X42692610Y-26123701D01*
X42683256Y-26092864D01*
X42612684Y-25960835D01*
X42541510Y-25874108D01*
X42541505Y-25874103D01*
X42517711Y-25845110D01*
X42488720Y-25821318D01*
X41740099Y-25072697D01*
X41716301Y-25043699D01*
X41600576Y-24948726D01*
X41468547Y-24878154D01*
X41325286Y-24834697D01*
X41213633Y-24823700D01*
X41213623Y-24823700D01*
X41176300Y-24820024D01*
X41138978Y-24823700D01*
X37713623Y-24823700D01*
X37676290Y-24820023D01*
X37638957Y-24823700D01*
X37527304Y-24834697D01*
X37384043Y-24878154D01*
X37252014Y-24948726D01*
X37136289Y-25043699D01*
X37112491Y-25072697D01*
X34454789Y-27730400D01*
X31870576Y-27730400D01*
X31815429Y-27685142D01*
X31679182Y-27612316D01*
X31531345Y-27567471D01*
X31377600Y-27552328D01*
X30127600Y-27552328D01*
X29973855Y-27567471D01*
X29826018Y-27612316D01*
X29689771Y-27685142D01*
X29634624Y-27730400D01*
X28393528Y-27730400D01*
X28398608Y-27713655D01*
X28415672Y-27540401D01*
X28415672Y-26840399D01*
X28398608Y-26667145D01*
X28348072Y-26500549D01*
X28266005Y-26347013D01*
X28155562Y-26212438D01*
X28020987Y-26101995D01*
X27867451Y-26019928D01*
X27700855Y-25969392D01*
X27527601Y-25952328D01*
X26227599Y-25952328D01*
X26054345Y-25969392D01*
X25925483Y-26008481D01*
X25693810Y-25776808D01*
X25737600Y-25556660D01*
X25737600Y-25264140D01*
X25680532Y-24977242D01*
X25568590Y-24706989D01*
X25406075Y-24463768D01*
X25199232Y-24256925D01*
X24956011Y-24094410D01*
X24789405Y-24025400D01*
X25002276Y-24025400D01*
X25492032Y-23927982D01*
X25953373Y-23736888D01*
X26106651Y-23634471D01*
X26139932Y-23744182D01*
G37*
%TD.AperFunction*%
X38767100Y-32213400D02*
X38787100Y-32213400D01*
X38787100Y-32397300D01*
X38493100Y-32397300D01*
X38493100Y-32213400D01*
X38513100Y-32213400D01*
X38513100Y-32193400D01*
X38767100Y-32193400D01*
X38767100Y-32213400D02*
X38767100Y-32193400D01*
%TA.AperFunction,Conductor*%
G36*
X38767100Y-32213400D02*
G01*
X38787100Y-32213400D01*
X38787100Y-32397300D01*
X38493100Y-32397300D01*
X38493100Y-32213400D01*
X38513100Y-32213400D01*
X38513100Y-32193400D01*
X38767100Y-32193400D01*
X38767100Y-32213400D01*
G37*
%TD.AperFunction*%
X38500598Y-29750400D02*
X38562299Y-29750400D01*
X38596074Y-29920198D01*
X38674095Y-30108556D01*
X38704600Y-30154210D01*
X38704600Y-30363400D01*
X38724600Y-30363400D01*
X38724600Y-30611389D01*
X38718589Y-30617400D01*
X38704600Y-30617400D01*
X38704600Y-30631389D01*
X38698589Y-30637400D01*
X38450600Y-30637400D01*
X38450600Y-30617400D01*
X38430600Y-30617400D01*
X38430600Y-30363400D01*
X38450600Y-30363400D01*
X38450600Y-29641650D01*
X38500598Y-29591652D01*
X38500598Y-29750400D02*
X38500598Y-29591652D01*
%TA.AperFunction,Conductor*%
G36*
X38500598Y-29750400D02*
G01*
X38562299Y-29750400D01*
X38596074Y-29920198D01*
X38674095Y-30108556D01*
X38704600Y-30154210D01*
X38704600Y-30363400D01*
X38724600Y-30363400D01*
X38724600Y-30611389D01*
X38718589Y-30617400D01*
X38704600Y-30617400D01*
X38704600Y-30631389D01*
X38698589Y-30637400D01*
X38450600Y-30637400D01*
X38450600Y-30617400D01*
X38430600Y-30617400D01*
X38430600Y-30363400D01*
X38450600Y-30363400D01*
X38450600Y-29641650D01*
X38500598Y-29591652D01*
X38500598Y-29750400D01*
G37*
%TD.AperFunction*%
X38724600Y-26967400D02*
X38704600Y-26967400D01*
X38704600Y-27791650D01*
X38754600Y-27841650D01*
X38754600Y-28513400D01*
X38774600Y-28513400D01*
X38774600Y-28767400D01*
X38754600Y-28767400D01*
X38754600Y-28787400D01*
X38500600Y-28787400D01*
X38500600Y-28767400D01*
X37613850Y-28767400D01*
X37455100Y-28926150D01*
X37452028Y-29115400D01*
X37464288Y-29239882D01*
X37500598Y-29359580D01*
X37559563Y-29469894D01*
X37637942Y-29565400D01*
X37559563Y-29660906D01*
X37500598Y-29771220D01*
X37464288Y-29890918D01*
X37452028Y-30015400D01*
X37455100Y-30204650D01*
X37613848Y-30363398D01*
X37455100Y-30363398D01*
X37455100Y-30409474D01*
X37445987Y-30401995D01*
X37292451Y-30319928D01*
X37125855Y-30269392D01*
X36952601Y-30252328D01*
X36252599Y-30252328D01*
X36079345Y-30269392D01*
X35912749Y-30319928D01*
X35759213Y-30401995D01*
X35624638Y-30512438D01*
X35602600Y-30539291D01*
X35580562Y-30512438D01*
X35445987Y-30401995D01*
X35292451Y-30319928D01*
X35125855Y-30269392D01*
X34952601Y-30252328D01*
X34718873Y-30252328D01*
X37479889Y-27491313D01*
X37500598Y-27559580D01*
X37559563Y-27669894D01*
X37617426Y-27740400D01*
X37559563Y-27810906D01*
X37500598Y-27921220D01*
X37464288Y-28040918D01*
X37452028Y-28165400D01*
X37455100Y-28354650D01*
X37613850Y-28513400D01*
X38500600Y-28513400D01*
X38500600Y-27689150D01*
X38450600Y-27639150D01*
X38450600Y-26967400D01*
X38430600Y-26967400D01*
X38430600Y-26794000D01*
X38724600Y-26794000D01*
X38724600Y-26967400D02*
X38724600Y-26794000D01*
%TA.AperFunction,Conductor*%
G36*
X38724600Y-26967400D02*
G01*
X38704600Y-26967400D01*
X38704600Y-27791650D01*
X38754600Y-27841650D01*
X38754600Y-28513400D01*
X38774600Y-28513400D01*
X38774600Y-28767400D01*
X38754600Y-28767400D01*
X38754600Y-28787400D01*
X38500600Y-28787400D01*
X38500600Y-28767400D01*
X37613850Y-28767400D01*
X37455100Y-28926150D01*
X37452028Y-29115400D01*
X37464288Y-29239882D01*
X37500598Y-29359580D01*
X37559563Y-29469894D01*
X37637942Y-29565400D01*
X37559563Y-29660906D01*
X37500598Y-29771220D01*
X37464288Y-29890918D01*
X37452028Y-30015400D01*
X37455100Y-30204650D01*
X37613848Y-30363398D01*
X37455100Y-30363398D01*
X37455100Y-30409474D01*
X37445987Y-30401995D01*
X37292451Y-30319928D01*
X37125855Y-30269392D01*
X36952601Y-30252328D01*
X36252599Y-30252328D01*
X36079345Y-30269392D01*
X35912749Y-30319928D01*
X35759213Y-30401995D01*
X35624638Y-30512438D01*
X35602600Y-30539291D01*
X35580562Y-30512438D01*
X35445987Y-30401995D01*
X35292451Y-30319928D01*
X35125855Y-30269392D01*
X34952601Y-30252328D01*
X34718873Y-30252328D01*
X37479889Y-27491313D01*
X37500598Y-27559580D01*
X37559563Y-27669894D01*
X37617426Y-27740400D01*
X37559563Y-27810906D01*
X37500598Y-27921220D01*
X37464288Y-28040918D01*
X37452028Y-28165400D01*
X37455100Y-28354650D01*
X37613850Y-28513400D01*
X38500600Y-28513400D01*
X38500600Y-27689150D01*
X38450600Y-27639150D01*
X38450600Y-26967400D01*
X38430600Y-26967400D01*
X38430600Y-26794000D01*
X38724600Y-26794000D01*
X38724600Y-26967400D01*
G37*
%TD.AperFunction*%
%TD*%
M02*
