%TF.GenerationSoftware,KiCad,Pcbnew,(5.99.0-11678-ga208dac8d8)*%
%TF.CreationDate,2021-09-17T02:16:08+07:00*%
%TF.ProjectId,sharp_memory_display,73686172-705f-46d6-956d-6f72795f6469,rev?*%
%TF.SameCoordinates,Original*%
%TF.FileFunction,Profile,NP*%
%FSLAX46Y46*%
G04 Gerber Fmt 4.6, Leading zero omitted, Abs format (unit mm)*
G04 Created by KiCad (PCBNEW (5.99.0-11678-ga208dac8d8)) date 2021-09-17 02:16:08*
%MOMM*%
%LPD*%
G01*
G04 APERTURE LIST*
%TA.AperFunction,Profile*%
%ADD10C,0.050000*%
%TD*%
G04 APERTURE END LIST*
D10*
X26752642Y-41690389D02*
X26752642Y-40490389D01*
X22752642Y-41690389D02*
X26752642Y-41690389D01*
X22752642Y-40490389D02*
X22752642Y-41690389D01*
X22752642Y-19290389D02*
X22752642Y-20490389D01*
X26752642Y-19290389D02*
X22752642Y-19290389D01*
X26752642Y-20490389D02*
X26752642Y-19290389D01*
X52752642Y-19290389D02*
X52752642Y-20490389D01*
X56752642Y-19290389D02*
X52752642Y-19290389D01*
X56752642Y-20490389D02*
X56752642Y-19290389D01*
X52752642Y-41690389D02*
X52752642Y-40490389D01*
X56752642Y-41690389D02*
X52752642Y-41690389D01*
X56752642Y-40490389D02*
X56752642Y-41690389D01*
X22502642Y-37490389D02*
X22752642Y-37490389D01*
X52752642Y-40490389D02*
X52752642Y-39490389D01*
X52752642Y-20490389D02*
X52752642Y-21490389D01*
X22752642Y-20490389D02*
X22752642Y-21490389D01*
X22752642Y-40490389D02*
X22752642Y-39490389D01*
X26752642Y-39490389D02*
X26752642Y-40490389D01*
X56752642Y-39490389D02*
X56752642Y-40490389D01*
X22752642Y-37490389D02*
X22752642Y-39490389D01*
X52752642Y-39490389D02*
X52752641Y-37490389D01*
X56752642Y-23490389D02*
X56752642Y-21490389D01*
X56752642Y-37490389D02*
X56752642Y-23490389D01*
X26752642Y-39490389D02*
X26752642Y-37490389D01*
X56752642Y-37490389D02*
X56752641Y-39490389D01*
X52752642Y-21490389D02*
X52752642Y-23490389D01*
X22502642Y-23490389D02*
X22502642Y-37490389D01*
X26752642Y-37490389D02*
X52752641Y-37490389D01*
X56752642Y-21490389D02*
X56752642Y-20490389D01*
X26752642Y-21490389D02*
X26752642Y-23490389D01*
X22752642Y-23490389D02*
X22502642Y-23490389D01*
X52752642Y-23490389D02*
X26752642Y-23490389D01*
X22752642Y-23490389D02*
X22752642Y-21490389D01*
X26752642Y-21490389D02*
X26752642Y-20490389D01*
M02*
