%TF.GenerationSoftware,KiCad,Pcbnew,(5.99.0-11678-ga208dac8d8)*%
%TF.CreationDate,2021-08-19T14:25:43+07:00*%
%TF.ProjectId,sharp_memory_display,73686172-705f-46d6-956d-6f72795f6469,rev?*%
%TF.SameCoordinates,Original*%
%TF.FileFunction,Profile,NP*%
%FSLAX46Y46*%
G04 Gerber Fmt 4.6, Leading zero omitted, Abs format (unit mm)*
G04 Created by KiCad (PCBNEW (5.99.0-11678-ga208dac8d8)) date 2021-08-19 14:25:43*
%MOMM*%
%LPD*%
G01*
G04 APERTURE LIST*
%TA.AperFunction,Profile*%
%ADD10C,0.050000*%
%TD*%
G04 APERTURE END LIST*
D10*
X22752642Y-40490389D02*
X22752642Y-39490389D01*
X23752642Y-40490389D02*
X22752642Y-40490389D01*
X23752642Y-39490389D02*
X23752642Y-40490389D01*
X25752642Y-40490389D02*
X25752642Y-39490389D01*
X26752642Y-40490389D02*
X25752642Y-40490389D01*
X26752642Y-39490389D02*
X26752642Y-40490389D01*
X22752642Y-20490389D02*
X22752642Y-21490389D01*
X23752642Y-20490389D02*
X22752642Y-20490389D01*
X23752642Y-21490389D02*
X23752642Y-20490389D01*
X25752642Y-20490389D02*
X25752642Y-21490389D01*
X26752642Y-20490389D02*
X25752642Y-20490389D01*
X26752642Y-21490389D02*
X26752642Y-20490389D01*
X52752642Y-20490389D02*
X52752642Y-21490389D01*
X53752642Y-20490389D02*
X52752642Y-20490389D01*
X53752642Y-21490389D02*
X53752642Y-20490389D01*
X55752642Y-20490389D02*
X55752642Y-21490389D01*
X56752642Y-20490389D02*
X55752642Y-20490389D01*
X56752642Y-21490389D02*
X56752642Y-20490389D01*
X52752642Y-40490389D02*
X52752642Y-39490389D01*
X53752642Y-40490389D02*
X52752642Y-40490389D01*
X53752642Y-40490389D02*
X53752642Y-39490389D01*
X55752642Y-40490389D02*
X55752642Y-39490389D01*
X56752642Y-40490389D02*
X55752642Y-40490389D01*
X56752642Y-39490389D02*
X56752642Y-40490389D01*
X53752642Y-39490389D02*
G75*
G02*
X55752642Y-39490389I1000000J0D01*
G01*
X55752642Y-21490389D02*
G75*
G02*
X53752642Y-21490389I-1000000J0D01*
G01*
X23752642Y-39490389D02*
G75*
G02*
X25752642Y-39490389I1000000J0D01*
G01*
X25752642Y-21490389D02*
G75*
G02*
X23752642Y-21490389I-1000000J0D01*
G01*
X52752642Y-21490389D02*
X52752642Y-23490389D01*
X56752642Y-23490389D02*
X56752642Y-21490389D01*
X26752642Y-21490389D02*
X26752642Y-23490389D01*
X22752642Y-23490389D02*
X22752642Y-21490389D01*
X26752642Y-39490389D02*
X26752642Y-37490389D01*
X22752642Y-37490389D02*
X22752642Y-39490389D01*
X52752642Y-39490389D02*
X52752641Y-37490389D01*
X56752642Y-37490389D02*
X56752641Y-39490389D01*
X22502642Y-37490389D02*
X22752642Y-37490389D01*
X22502642Y-23490389D02*
X22502642Y-37490389D01*
X22752642Y-23490389D02*
X22502642Y-23490389D01*
X52752642Y-23490389D02*
X26752642Y-23490389D01*
X56752642Y-37490389D02*
X56752642Y-23490389D01*
X26752642Y-37490389D02*
X52752641Y-37490389D01*
M02*
