0
SECTION
2
HEADER
9
$INSUNITS
70
4
9
$ACADVER
1
AC1014
9
$HANDSEED
5
FFFF
0
ENDSEC
0
SECTION
2
TABLES
0
TABLE
2
VPORT
5
8
100
AcDbSymbolTable
0
ENDTAB
0
TABLE
2
LTYPE
5
5
100
AcDbSymbolTable
0
LTYPE
5
14
100
AcDbSymbolTableRecord
100
AcDbLinetypeTableRecord
2
BYBLOCK
70
0
0
LTYPE
5
15
100
AcDbSymbolTableRecord
100
AcDbLinetypeTableRecord
2
BYLAYER
70
0
0
ENDTAB
0
TABLE
2
LAYER
5
2
100
AcDbSymbolTable
70
2
0
LAYER
5
50
100
AcDbSymbolTableRecord
100
AcDbLayerTableRecord
2
0
70
0
6
CONTINUOUS
0
ENDTAB
0
TABLE
2
STYLE
5
3
100
AcDbSymbolTable
70
1
0
STYLE
5
11
100
AcDbSymbolTableRecord
100
AcDbTextStyleTableRecord
2
STANDARD
70
0
0
ENDTAB
0
TABLE
2
VIEW
5
6
100
AcDbSymbolTable
70
0
0
ENDTAB
0
TABLE
2
UCS
5
7
100
AcDbSymbolTable
70
0
0
ENDTAB
0
TABLE
2
APPID
5
9
100
AcDbSymbolTable
70
2
0
APPID
5
12
100
AcDbSymbolTableRecord
100
AcDbRegAppTableRecord
2
ACAD
70
0
0
ENDTAB
0
TABLE
2
DIMSTYLE
5
A
100
AcDbSymbolTable
70
1
0
ENDTAB
0
TABLE
2
BLOCK_RECORD
5
1
100
AcDbSymbolTable
70
1
0
BLOCK_RECORD
5
1F
100
AcDbSymbolTableRecord
100
AcDbBlockTableRecord
2
*MODEL_SPACE
0
BLOCK_RECORD
5
1B
100
AcDbSymbolTableRecord
100
AcDbBlockTableRecord
2
*PAPER_SPACE
0
ENDTAB
0
ENDSEC
0
SECTION
2
BLOCKS
0
BLOCK
5
20
100
AcDbEntity
100
AcDbBlockBegin
2
*MODEL_SPACE
0
ENDBLK
5
21
100
AcDbEntity
100
AcDbBlockEnd
0
BLOCK
5
1C
100
AcDbEntity
100
AcDbBlockBegin
2
*PAPER_SPACE
0
ENDBLK
5
1D
100
AcDbEntity
100
AcDbBlockEnd
0
ENDSEC
0
SECTION
2
ENTITIES
0
LWPOLYLINE
5
100
100
AcDbEntity
8
0
100
AcDbPolyline
90
4
70
1
43
0.0
10
22.000000327825546
20
24.000000357627869
10
47.280000327825547
20
24.000000357627869
10
34.640000327825547
20
18.628000357627869
10
22.000000327825546
20
13.256000357627869
0
LINE
5
101
100
AcDbEntity
8
0
100
AcDbLine
10
47.280000327825547
20
24.000000357627869
30
0
11
47.280000327825547
21
13.256000357627869
31
0
0
LINE
5
102
100
AcDbEntity
8
0
100
AcDbLine
10
47.280000327825547
20
13.256000357627869
30
0
11
22.000000327825546
21
13.256000357627869
31
0
0
LINE
5
103
100
AcDbEntity
8
0
100
AcDbLine
10
34.640000327825547
20
24.000000357627869
30
0
11
34.640000327825547
21
13.256000357627869
31
0
0
LWPOLYLINE
5
104
100
AcDbEntity
8
0
100
AcDbPolyline
90
7
70
1
43
0.0
10
52.370000327825551
20
18.628000357627869
10
52.370000327825551
20
11.628000357627869
10
20.370000327825551
20
11.628000357627869
10
17.820000327825554
20
11.628000357627869
10
17.820000327825554
20
25.628000357627869
10
20.370000327825551
20
25.628000357627869
10
52.370000327825551
20
25.628000357627869
0
LINE
5
105
100
AcDbEntity
8
0
100
AcDbLine
10
20.370000327825551
20
25.628000357627869
30
0
11
20.370000327825551
21
11.628000357627869
31
0
0
LWPOLYLINE
5
106
100
AcDbEntity
8
0
100
AcDbPolyline
90
4
70
1
43
0.0
10
20.670000327825552
20
25.328000357627868
10
20.670000327825552
20
11.928000357627868
10
49.770000327825556
20
11.928000357627868
10
49.770000327825556
20
25.328000357627868
0
LWPOLYLINE
5
107
100
AcDbEntity
8
0
100
AcDbPolyline
90
6
70
1
43
0.0
10
52.370000327825551
20
18.628000357627869
10
66.00000032782556
20
18.628000357627869
10
66.00000032782556
20
21.378000357627869
10
58.200000327825556
20
21.378000357627869
10
58.200000327825556
20
23.363000357627868
10
52.370000327825551
20
23.363000357627868
0
LINE
5
108
100
AcDbEntity
8
0
100
AcDbLine
10
52.370000327825551
20
18.628000357627869
30
0
11
52.370000327825551
21
13.893000357627869
31
0
0
LINE
5
109
100
AcDbEntity
8
0
100
AcDbLine
10
66.00000032782556
20
18.628000357627869
30
0
11
66.00000032782556
21
15.878000357627871
31
0
0
LINE
5
110
100
AcDbEntity
8
0
100
AcDbLine
10
66.00000032782556
20
15.878000357627871
30
0
11
58.200000327825556
21
15.878000357627871
31
0
0
LINE
5
111
100
AcDbEntity
8
0
100
AcDbLine
10
58.200000327825556
20
15.878000357627871
30
0
11
58.200000327825556
21
13.893000357627869
31
0
0
LINE
5
112
100
AcDbEntity
8
0
100
AcDbLine
10
52.370000327825551
20
13.893000357627869
30
0
11
58.200000327825556
21
13.893000357627869
31
0
0
LINE
5
113
100
AcDbEntity
8
0
100
AcDbLine
10
66.00000032782556
20
15.878000357627871
30
0
11
61.50000032782556
21
15.878000357627871
31
0
0
LINE
5
114
100
AcDbEntity
8
0
100
AcDbLine
10
61.50000032782556
20
15.878000357627871
30
0
11
61.50000032782556
21
21.378000357627869
31
0
0
LINE
5
115
100
AcDbEntity
8
0
100
AcDbLine
10
52.370000327825551
20
13.893000357627869
30
0
11
51.299998853355646
21
13.893000357627869
31
0
0
LINE
5
116
100
AcDbEntity
8
0
100
AcDbLine
10
51.299998853355646
20
13.893000357627869
30
0
11
51.299998853355646
21
23.363000357627868
31
0
0
LINE
5
117
100
AcDbEntity
8
0
100
AcDbLine
10
52.370000327825551
20
23.363000357627868
30
0
11
51.299998853355646
21
23.363000357627868
31
0
0
LINE
5
118
100
AcDbEntity
8
0
100
AcDbLine
10
49.770000327825556
20
25.328000357627868
30
0
11
49.770000327825556
21
25.628000357627869
31
0
0
LINE
5
119
100
AcDbEntity
8
0
100
AcDbLine
10
49.770000327825556
20
11.928000357627868
30
0
11
49.770000327825556
21
11.628000357627869
31
0
0
ENDSEC
0
SECTION
2
OBJECTS
0
DICTIONARY
5
C
100
AcDbDictionary
3
ACAD_GROUP
350
D
3
ACAD_MLINESTYLE
350
17
0
DICTIONARY
5
D
100
AcDbDictionary
0
DICTIONARY
5
1A
330
C
100
AcDbDictionary
0
DICTIONARY
5
17
100
AcDbDictionary
0
ENDSEC
0
EOF
